SplineFontDB: 3.0
FontName: Topmarks-Book
FullName: Topmarks Book
FamilyName: Topmarks
Weight: Book
Copyright: Copyright (c) 2011-12 by vernon adams. All rights reserved.
Version: ; ttfautohint (v0.93.66-3fd1) -l 8 -r 50 -G 200 -x 0 -w "gG" -W -c
ItalicAngle: 0
UnderlinePosition: -22
UnderlineWidth: 0
Ascent: 1638
Descent: 410
sfntRevision: 0x00010000
LayerCount: 2
Layer: 0 1 "Back"  1
Layer: 1 1 "Fore"  0
XUID: [1021 308 1009609422 12432551]
FSType: 0
OS2Version: 1
OS2_WeightWidthSlopeOnly: 0
OS2_UseTypoMetrics: 1
CreationTime: 1359146569
ModificationTime: 1359151022
PfmFamily: 17
TTFWeight: 400
TTFWidth: 5
LineGap: 0
VLineGap: 0
OS2TypoAscent: 2035
OS2TypoAOffset: 0
OS2TypoDescent: -672
OS2TypoDOffset: 0
OS2TypoLinegap: 0
OS2WinAscent: 2035
OS2WinAOffset: 0
OS2WinDescent: 672
OS2WinDOffset: 0
HheadAscent: 2035
HheadAOffset: 0
HheadDescent: -672
HheadDOffset: 0
OS2FamilyClass: 2053
OS2Vendor: 'newt'
MarkAttachClasses: 1
DEI: 91125
TtTable: prep
MPPEM
PUSHW_1
 200
GT
IF
PUSHB_2
 1
 1
INSTCTRL
EIF
PUSHW_2
 2048
 2048
MUL
DUP
PUSHB_1
 1
SWAP
WCVTP
PUSHB_1
 3
SWAP
WCVTF
PUSHB_1
 23
RCVT
DUP
DUP
PUSHB_1
 40
ADD
FLOOR
DUP
ROLL
NEQ
IF
PUSHB_1
 2
CINDEX
SUB
PUSHB_1
 1
RCVT
MUL
SWAP
DIV
PUSHB_1
 2
SWAP
WCVTP
PUSHB_3
 11
 1
 6
LOOPCALL
PUSHB_3
 12
 6
 6
LOOPCALL
PUSHB_3
 20
 6
 6
LOOPCALL
EIF
PUSHB_3
 4
 40
 9
RCVT
GT
WCVTP
PUSHB_3
 12
 8
 7
LOOPCALL
PUSHB_2
 6
 3
WCVTP
PUSHB_2
 36
 1
GETINFO
LTEQ
IF
PUSHB_1
 64
GETINFO
IF
PUSHB_2
 6
 3
WCVTP
PUSHB_2
 38
 1
GETINFO
LTEQ
IF
PUSHW_1
 1024
GETINFO
IF
PUSHB_2
 6
 1
WCVTP
EIF
EIF
EIF
EIF
PUSHW_1
 511
SCANCTRL
PUSHB_1
 4
SCANTYPE
PUSHB_2
 5
 0
WCVTP
EndTTInstrs
TtTable: fpgm
PUSHB_1
 0
FDEF
PUSHB_1
 32
ADD
FLOOR
ENDF
PUSHB_1
 1
FDEF
DUP
ABS
DUP
PUSHB_1
 192
LT
PUSHB_1
 4
MINDEX
AND
PUSHB_1
 4
RCVT
OR
IF
POP
SWAP
POP
ELSE
ROLL
IF
DUP
PUSHB_1
 80
LT
IF
POP
PUSHB_1
 64
EIF
ELSE
DUP
PUSHB_1
 56
LT
IF
POP
PUSHB_1
 56
EIF
EIF
DUP
PUSHB_1
 11
RCVT
SUB
ABS
PUSHB_1
 40
LT
IF
POP
PUSHB_1
 11
RCVT
DUP
PUSHB_1
 48
LT
IF
POP
PUSHB_1
 48
EIF

StartChar: exclam
Encoding: 33 33 4
Width: 753
VWidth: 1024
GlyphClass: 2
Flags: W
LayerCount: 2
Fore
SplineSet
441.5 25.5 m 128,-1,1
 406 -6 406 -6 356.5 -6 c 128,-1,2
 307 -6 307 -6 276.5 27.5 c 128,-1,3
 246 61 246 61 246 110.5 c 128,-1,4
 246 160 246 160 280.5 190.5 c 128,-1,5
 315 221 315 221 365.5 221 c 128,-1,6
 416 221 416 221 446.5 188.5 c 128,-1,7
 477 156 477 156 477 106.5 c 128,-1,0
 477 57 477 57 441.5 25.5 c 128,-1,1
311 381 m 1,8,-1
 260 1491 l 1,9,-1
 451 1491 l 1,10,-1
 401 381 l 1,11,-1
 311 381 l 1,8,-1
EndSplineSet
EndChar

StartChar: quotedbl
Encoding: 34 34 5
Width: 737
VWidth: 1024
GlyphClass: 2
Flags: W
LayerCount: 2
Fore
SplineSet
154 1012 m 1,0,-1
 117 1487 l 1,1,-1
 287 1487 l 1,2,-1
 287 1012 l 1,3,-1
 154 1012 l 1,0,-1
451 1012 m 1,4,-1
 414 1487 l 1,5,-1
 582 1487 l 1,6,-1
 582 1012 l 1,7,-1
 451 1012 l 1,4,-1
EndSplineSet
EndChar

StartChar: numbersign
Encoding: 35 35 6
Width: 1271
VWidth: 1024
GlyphClass: 2
Flags: W
LayerCount: 2
Fore
SplineSet
215 61 m 1,0,-1
 301 496 l 1,1,-1
 43 496 l 1,2,-1
 53 627 l 1,3,-1
 326 627 l 1,4,5
 330 647 330 647 377 907 c 1,6,-1
 111 907 l 1,7,-1
 123 1034 l 1,8,-1
 399 1034 l 1,9,-1
 479 1454 l 1,10,-1
 631 1454 l 1,11,-1
 551 1034 l 1,12,-1
 819 1034 l 1,13,-1
 897 1454 l 1,14,-1
 1044 1454 l 1,15,-1
 967 1034 l 1,16,-1
 1212 1034 l 1,17,-1
 1198 907 l 1,18,-1
 942 907 l 1,19,-1
 889 627 l 1,20,-1
 1147 627 l 1,21,-1
 1135 496 l 1,22,-1
 868 496 l 1,23,-1
 782 61 l 1,24,-1
 635 61 l 1,25,-1
 717 496 l 1,26,-1
 449 496 l 1,27,-1
 365 61 l 1,28,-1
 215 61 l 1,0,-1
471 627 m 1,29,-1
 741 627 l 1,30,-1
 795 907 l 1,31,-1
 526 907 l 1,32,-1
 471 627 l 1,29,-1
EndSplineSet
EndChar

StartChar: dollar
Encoding: 36 36 7
Width: 1218
VWidth: 1024
GlyphClass: 2
Flags: W
LayerCount: 2
Fore
SplineSet
549 -176 m 1,0,-1
 545 -16 l 1,1,2
 350 -12 350 -12 207 90 c 1,3,-1
 258 229 l 1,4,5
 393 139 393 139 545 131 c 1,6,-1
 547 664 l 1,7,8
 387 734 387 734 332 770 c 0,9,10
 221 838 221 838 172 926 c 0,11,12
 139 987 139 987 139 1073 c 0,13,14
 139 1229 139 1229 262 1343.5 c 128,-1,15
 385 1458 385 1458 547 1470 c 1,16,-1
 543 1614 l 1,17,-1
 670 1614 l 1,18,-1
 672 1475 l 1,19,20
 889 1471 889 1471 1020 1358 c 1,21,-1
 971 1227 l 1,22,23
 862 1327 862 1327 674 1331 c 1,24,-1
 672 788 l 1,25,26
 789 743 789 743 863.5 705.5 c 128,-1,27
 938 668 938 668 995 618 c 0,28,29
 1106 524 1106 524 1106 369 c 0,30,31
 1106 238 1106 238 1032 152 c 0,32,33
 907 9 907 9 672 -12 c 1,34,-1
 676 -176 l 1,35,-1
 549 -176 l 1,0,-1
670 135 m 1,36,37
 840 160 840 160 901 276 c 0,38,39
 921 317 921 317 922 369 c 0,40,41
 922 471 922 471 844 528 c 0,42,43
 787 573 787 573 688 614 c 0,44,45
 684 614 684 614 680 616 c 128,-1,46
 676 618 676 618 674 618 c 1,47,-1
 670 135 l 1,36,37
545 838 m 1,48,-1
 547 1323 l 1,49,50
 453 1311 453 1311 393.5 1247.5 c 128,-1,51
 334 1184 334 1184 334 1080.5 c 128,-1,52
 334 977 334 977 399 920 c 0,53,54
 432 891 432 891 465 872.5 c 128,-1,55
 498 854 498 854 545 838 c 1,48,-1
EndSplineSet
EndChar

StartChar: percent
Encoding: 37 37 8
Width: 2031
VWidth: 1024
GlyphClass: 2
Flags: W
LayerCount: 2
Fore
SplineSet
532 702 m 0,0,1
 403 702 403 702 318 766 c 0,2,3
 233 832 233 832 197 938 c 0,4,5
 172 1008 172 1008 172 1090 c 0,6,7
 172 1221 172 1221 229.5 1315 c 128,-1,8
 287 1409 287 1409 385 1452 c 0,9,10
 451 1483 451 1483 539 1483 c 0,11,12
 711 1483 711 1483 804 1376.5 c 128,-1,13
 897 1270 897 1270 897 1094 c 0,14,15
 897 963 897 963 839.5 870.5 c 128,-1,16
 782 778 782 778 684 733 c 0,17,18
 616 702 616 702 532 702 c 0,0,1
1483 -29 m 0,19,20
 1354 -29 1354 -29 1270 35 c 0,21,22
 1184 98 1184 98 1147 207 c 0,23,24
 1122 279 1122 279 1122 360 c 0,25,26
 1122 491 1122 491 1179.5 583.5 c 128,-1,27
 1237 676 1237 676 1337 721 c 0,28,29
 1405 754 1405 754 1491 754 c 0,30,31
 1663 754 1663 754 1756 647.5 c 128,-1,32
 1849 541 1849 541 1849 365 c 0,33,34
 1849 234 1849 234 1791 141.5 c 128,-1,35
 1733 49 1733 49 1634 4 c 0,36,37
 1565 -29 1565 -29 1483 -29 c 0,19,20
373.5 895 m 128,-1,39
 428 819 428 819 535.5 819 c 128,-1,40
 643 819 643 819 697.5 897 c 128,-1,41
 752 975 752 975 752 1094 c 0,42,43
 752 1282 752 1282 633 1346 c 0,44,45
 590 1369 590 1369 537 1368 c 0,46,47
 431 1368 431 1368 375 1290 c 128,-1,48
 319 1212 319 1212 319 1091.5 c 128,-1,38
 319 971 319 971 373.5 895 c 128,-1,39
1487 88 m 0,49,50
 1593 88 1593 88 1647.5 167 c 128,-1,51
 1702 246 1702 246 1702 366.5 c 128,-1,52
 1702 487 1702 487 1648.5 562 c 128,-1,53
 1595 637 1595 637 1487.5 637 c 128,-1,54
 1380 637 1380 637 1325 558 c 128,-1,55
 1270 479 1270 479 1270 358 c 0,56,57
 1270 176 1270 176 1391 111 c 0,58,59
 1430 90 1430 90 1487 88 c 0,49,50
451 -4 m 1,60,-1
 1376 1470 l 1,61,-1
 1536 1470 l 1,62,-1
 608 -4 l 1,63,-1
 451 -4 l 1,60,-1
EndSplineSet
EndChar

StartChar: ampersand
Encoding: 38 38 9
Width: 1685
VWidth: 1024
GlyphClass: 2
Flags: W
LayerCount: 2
Fore
SplineSet
1061 1217 m 0,0,1
 1061 1010 1061 1010 745 842 c 1,2,-1
 1171 408 l 1,3,4
 1282 564 1282 564 1315 774 c 0,5,6
 1327 844 1327 844 1327 905 c 1,7,-1
 1499 885 l 1,8,9
 1487 543 1487 543 1290 291 c 1,10,11
 1356 223 1356 223 1411 183 c 128,-1,12
 1466 143 1466 143 1525.5 122.5 c 128,-1,13
 1585 102 1585 102 1657 88 c 1,14,-1
 1522 -12 l 1,15,16
 1465 -4 1465 -4 1436 10.5 c 128,-1,17
 1407 25 1407 25 1390.5 31 c 128,-1,18
 1374 37 1374 37 1352.5 53.5 c 128,-1,19
 1331 70 1331 70 1319 78 c 0,20,21
 1284 103 1284 103 1194 190 c 1,22,23
 1090 88 1090 88 967 29.5 c 128,-1,24
 844 -29 844 -29 668 -29 c 128,-1,25
 492 -29 492 -29 357.5 37.5 c 128,-1,26
 223 104 223 104 160 225 c 0,27,28
 119 305 119 305 119 412 c 0,29,30
 119 566 119 566 238 688 c 0,31,32
 324 778 324 778 506 872 c 1,33,-1
 463 915 l 2,34,35
 387 991 387 991 347 1058.5 c 128,-1,36
 307 1126 307 1126 307 1218 c 0,37,38
 307 1307 307 1307 356 1376 c 0,39,40
 454 1507 454 1507 676 1507 c 0,41,42
 797 1507 797 1507 889 1465 c 128,-1,43
 981 1423 981 1423 1028 1346 c 0,44,45
 1061 1293 1061 1293 1061 1217 c 0,0,1
674 119 m 0,46,47
 807 119 807 119 901 166 c 128,-1,48
 995 213 995 213 1083 299 c 1,49,50
 1077 299 1077 299 967 411 c 0,51,52
 856 525 856 525 844 537 c 2,53,-1
 608 768 l 1,54,55
 538 731 538 731 495.5 705.5 c 128,-1,56
 453 680 453 680 402.5 634 c 128,-1,57
 352 588 352 588 327.5 535.5 c 128,-1,58
 303 483 303 483 303 416 c 0,59,60
 303 310 303 310 364.5 242 c 128,-1,61
 426 174 426 174 524 141 c 0,62,63
 592 119 592 119 674 119 c 0,46,47
639 940 m 1,64,65
 885 1069 885 1069 885 1206 c 0,66,67
 885 1286 885 1286 828.5 1329 c 128,-1,68
 772 1372 772 1372 684 1372 c 128,-1,69
 596 1372 596 1372 539.5 1329 c 128,-1,70
 483 1286 483 1286 483 1206 c 0,71,72
 483 1143 483 1143 508 1096 c 0,73,74
 545 1026 545 1026 639 940 c 1,64,65
EndSplineSet
EndChar

StartChar: quotesingle
Encoding: 39 39 10
Width: 567
VWidth: 1024
GlyphClass: 2
Flags: W
LayerCount: 2
Fore
SplineSet
217 1012 m 1,0,-1
 180 1487 l 1,1,-1
 350 1487 l 1,2,-1
 350 1012 l 1,3,-1
 217 1012 l 1,0,-1
EndSplineSet
EndChar

StartChar: parenleft
Encoding: 40 40 11
Width: 641
VWidth: 1024
GlyphClass: 2
Flags: W
LayerCount: 2
Fore
SplineSet
588 1589 m 1,0,1
 322 1159 322 1159 320.5 680 c 128,-1,2
 319 201 319 201 584 -219 c 1,3,-1
 430 -219 l 1,4,5
 147 223 147 223 148 677 c 0,6,7
 151 1131 151 1131 438 1589 c 1,8,-1
 588 1589 l 1,0,1
EndSplineSet
EndChar

StartChar: parenright
Encoding: 41 41 12
Width: 641
VWidth: 1024
GlyphClass: 2
Flags: W
LayerCount: 2
Fore
SplineSet
57 -219 m 1,0,1
 319 201 319 201 319 680 c 128,-1,2
 319 1159 319 1159 53 1589 c 1,3,-1
 205 1589 l 1,4,5
 492 1130 492 1130 492 677.5 c 128,-1,6
 492 225 492 225 209 -219 c 1,7,-1
 57 -219 l 1,0,1
EndSplineSet
EndChar

StartChar: asterisk
Encoding: 42 42 13
Width: 1089
VWidth: 1024
GlyphClass: 2
Flags: W
LayerCount: 2
Fore
SplineSet
709 754 m 1,0,-1
 547 1028 l 1,1,-1
 389 762 l 1,2,-1
 262 840 l 1,3,-1
 459 1083 l 1,4,-1
 180 1163 l 1,5,-1
 201 1303 l 1,6,-1
 492 1176 l 1,7,8
 484 1227 484 1227 470 1330 c 0,9,10
 459 1433 459 1433 451 1487 c 1,11,-1
 594 1487 l 1,12,-1
 594 1180 l 1,13,-1
 836 1305 l 1,14,-1
 901 1176 l 1,15,-1
 631 1085 l 1,16,-1
 838 829 l 1,17,-1
 709 754 l 1,0,-1
EndSplineSet
EndChar

StartChar: plus
Encoding: 43 43 14
Width: 1492
VWidth: 1024
GlyphClass: 2
Flags: W
LayerCount: 2
Fore
SplineSet
662 63 m 1,0,-1
 662 496 l 1,1,-1
 203 496 l 1,2,-1
 203 639 l 1,3,-1
 664 639 l 1,4,-1
 664 1073 l 1,5,-1
 815 1073 l 1,6,-1
 815 639 l 1,7,-1
 1276 639 l 1,8,-1
 1276 496 l 1,9,-1
 815 496 l 1,10,-1
 815 63 l 1,11,-1
 662 63 l 1,0,-1
EndSplineSet
EndChar

StartChar: comma
Encoding: 44 44 15
Width: 552
VWidth: 1024
GlyphClass: 2
Flags: W
LayerCount: 2
Fore
SplineSet
80 -262 m 1,0,-1
 188 213 l 1,1,-1
 381 213 l 1,2,-1
 213 -262 l 1,3,-1
 80 -262 l 1,0,-1
EndSplineSet
EndChar

StartChar: hyphen
Encoding: 45 45 16
Width: 745
VWidth: 1024
GlyphClass: 2
Flags: W
LayerCount: 2
Fore
SplineSet
82 500 m 1,0,-1
 82 641 l 1,1,-1
 668 641 l 1,2,-1
 668 500 l 1,3,-1
 82 500 l 1,0,-1
EndSplineSet
EndChar

StartChar: period
Encoding: 46 46 17
Width: 552
VWidth: 1024
GlyphClass: 2
Flags: W
LayerCount: 2
Fore
SplineSet
335 29.5 m 128,-1,1
 301 0 301 0 253 0 c 128,-1,2
 205 0 205 0 176 30.5 c 128,-1,3
 147 61 147 61 147 108.5 c 128,-1,4
 147 156 147 156 180 186.5 c 128,-1,5
 213 217 213 217 261 217 c 128,-1,6
 309 217 309 217 339 185.5 c 128,-1,7
 369 154 369 154 369 106.5 c 128,-1,0
 369 59 369 59 335 29.5 c 128,-1,1
EndSplineSet
EndChar

StartChar: slash
Encoding: 47 47 18
Width: 733
VWidth: 1024
GlyphClass: 2
Flags: W
LayerCount: 2
Fore
SplineSet
-49 -221 m 1,0,-1
 604 1487 l 1,1,-1
 774 1487 l 1,2,-1
 119 -221 l 1,3,-1
 -49 -221 l 1,0,-1
EndSplineSet
EndChar

StartChar: zero
Encoding: 48 48 19
Width: 1247
VWidth: 1024
GlyphClass: 2
Flags: W
LayerCount: 2
Fore
SplineSet
631 123 m 0,0,1
 701 123 701 123 760 160 c 128,-1,2
 819 197 819 197 854 254 c 0,3,4
 954 418 954 418 954 748 c 0,5,6
 954 1143 954 1143 815 1274 c 0,7,8
 741 1344 741 1344 623 1343 c 0,9,10
 545 1343 545 1343 483.5 1305.5 c 128,-1,11
 422 1268 422 1268 385 1208 c 0,12,13
 287 1044 287 1044 289 727 c 0,14,15
 289 498 289 498 325.5 374 c 128,-1,16
 362 250 362 250 433 186.5 c 128,-1,17
 504 123 504 123 631 123 c 0,0,1
823 16 m 128,-1,19
 733 -25 733 -25 619.5 -25 c 128,-1,20
 506 -25 506 -25 416 16 c 128,-1,21
 326 57 326 57 268.5 125 c 128,-1,22
 211 193 211 193 173 291 c 128,-1,23
 135 389 135 389 120.5 495.5 c 128,-1,24
 106 602 106 602 106 727 c 128,-1,25
 106 852 106 852 121.5 960.5 c 128,-1,26
 137 1069 137 1069 175 1167.5 c 128,-1,27
 213 1266 213 1266 270.5 1335.5 c 128,-1,28
 328 1405 328 1405 418 1446 c 128,-1,29
 508 1487 508 1487 624.5 1487 c 128,-1,30
 741 1487 741 1487 833.5 1448 c 128,-1,31
 926 1409 926 1409 983 1341.5 c 128,-1,32
 1040 1274 1040 1274 1077 1173.5 c 128,-1,33
 1114 1073 1114 1073 1128.5 966.5 c 128,-1,34
 1143 860 1143 860 1143 732 c 128,-1,35
 1143 604 1143 604 1126.5 496.5 c 128,-1,36
 1110 389 1110 389 1071 293 c 128,-1,37
 1032 197 1032 197 972.5 127 c 128,-1,18
 913 57 913 57 823 16 c 128,-1,19
EndSplineSet
EndChar

StartChar: one
Encoding: 49 49 20
Width: 1218
VWidth: 1024
GlyphClass: 2
Flags: W
LayerCount: 2
Fore
SplineSet
565 0 m 1,0,-1
 565 1300 l 1,1,2
 461 1222 461 1222 301 1155 c 1,3,-1
 258 1290 l 1,4,5
 442 1374 442 1374 573 1470 c 1,6,-1
 741 1473 l 1,7,-1
 741 0 l 1,8,-1
 565 0 l 1,0,-1
EndSplineSet
EndChar

StartChar: two
Encoding: 50 50 21
Width: 1277
VWidth: 1024
GlyphClass: 2
Flags: W
LayerCount: 2
Fore
SplineSet
102 0 m 1,0,-1
 100 152 l 1,1,2
 141 191 141 191 306 345.5 c 128,-1,3
 471 500 471 500 639 674 c 0,4,5
 676 715 676 715 687 726 c 128,-1,6
 698 737 698 737 732 776 c 128,-1,7
 766 815 766 815 778 836 c 0,8,9
 839 928 839 928 850 961 c 0,10,11
 877 1041 877 1041 877 1098 c 0,12,13
 877 1213 877 1213 795 1276 c 128,-1,14
 713 1339 713 1339 586 1339 c 128,-1,15
 459 1339 459 1339 371 1273.5 c 128,-1,16
 283 1208 283 1208 236 1104 c 1,17,-1
 135 1204 l 1,18,19
 184 1335 184 1335 305 1409 c 128,-1,20
 426 1483 426 1483 598 1483 c 0,21,22
 872 1483 872 1483 995 1313 c 0,23,24
 1056 1227 1056 1227 1057 1104 c 0,25,26
 1057 1012 1057 1012 1014 907 c 0,27,28
 985 837 985 837 905 731 c 0,29,30
 880 698 880 698 837.5 651 c 128,-1,31
 795 604 795 604 770 580.5 c 128,-1,32
 745 557 745 557 699 512 c 128,-1,33
 653 467 653 467 616 430 c 0,34,35
 577 393 577 393 311 147 c 1,36,-1
 1061 147 l 1,37,-1
 1061 0 l 1,38,-1
 102 0 l 1,0,-1
EndSplineSet
EndChar

StartChar: three
Encoding: 51 51 22
Width: 1218
VWidth: 1024
GlyphClass: 2
Flags: W
LayerCount: 2
Fore
SplineSet
532 -25 m 0,0,1
 368 -25 368 -25 254 40 c 0,2,3
 139 107 139 107 111 229 c 1,4,-1
 197 332 l 1,5,6
 234 234 234 234 323 178.5 c 128,-1,7
 412 123 412 123 552 123 c 128,-1,8
 692 123 692 123 792.5 195.5 c 128,-1,9
 893 268 893 268 893 403 c 0,10,11
 893 688 893 688 504 688 c 0,12,13
 490 688 490 688 473 688 c 2,14,-1
 393 686 l 1,15,-1
 393 831 l 1,16,-1
 457 831 l 2,17,18
 631 831 631 831 733 889 c 0,19,20
 844 950 844 950 846 1110 c 0,21,22
 846 1225 846 1225 767 1281 c 128,-1,23
 688 1337 688 1337 557 1337 c 0,24,25
 332 1337 332 1337 225 1155 c 1,26,-1
 123 1245 l 1,27,28
 168 1356 168 1356 287 1419.5 c 128,-1,29
 406 1483 406 1483 563 1483 c 0,30,31
 690 1483 690 1483 795.5 1443 c 128,-1,32
 901 1403 901 1403 967.5 1317 c 128,-1,33
 1034 1231 1034 1231 1034 1112 c 0,34,35
 1034 965 1034 965 949 882 c 128,-1,36
 864 799 864 799 737 764 c 1,37,38
 889 735 889 735 981 644 c 128,-1,39
 1073 553 1073 553 1073 401 c 0,40,41
 1073 299 1073 299 1029 216 c 128,-1,42
 985 133 985 133 909 82 c 0,43,44
 753 -25 753 -25 532 -25 c 0,0,1
EndSplineSet
EndChar

StartChar: four
Encoding: 52 52 23
Width: 1216
VWidth: 1024
GlyphClass: 2
Flags: W
LayerCount: 2
Fore
SplineSet
743 0 m 1,0,-1
 743 360 l 1,1,-1
 25 360 l 1,2,-1
 25 487 l 1,3,-1
 707 1454 l 1,4,-1
 920 1454 l 1,5,-1
 920 496 l 1,6,-1
 1139 496 l 1,7,-1
 1139 360 l 1,8,-1
 920 360 l 1,9,-1
 920 0 l 1,10,-1
 743 0 l 1,0,-1
201 496 m 1,11,-1
 743 496 l 1,12,-1
 743 1323 l 1,13,-1
 653 1174 l 1,14,-1
 201 496 l 1,11,-1
EndSplineSet
EndChar

StartChar: five
Encoding: 53 53 24
Width: 1218
VWidth: 1024
GlyphClass: 2
Flags: W
LayerCount: 2
Fore
SplineSet
1008 180 m 0,0,1
 856 -25 856 -25 551 -25 c 0,2,3
 420 -25 420 -25 315 29 c 0,4,5
 213 82 213 82 152 176 c 1,6,-1
 233 295 l 1,7,8
 352 123 352 123 559 123 c 0,9,10
 684 123 684 123 768 178 c 128,-1,11
 852 233 852 233 889 332 c 0,12,13
 914 393 914 393 913 463 c 0,14,15
 913 569 913 569 866 643 c 128,-1,16
 819 717 819 717 737 752 c 0,17,18
 680 777 680 777 606 776.5 c 128,-1,19
 532 776 532 776 476 749 c 0,20,21
 422 721 422 721 389 674 c 1,22,-1
 209 668 l 1,23,-1
 209 1458 l 1,24,-1
 1018 1458 l 1,25,-1
 1018 1311 l 1,26,-1
 375 1311 l 1,27,-1
 360 860 l 1,28,29
 479 926 479 926 614 926 c 0,30,31
 782 926 782 926 896 850 c 128,-1,32
 1010 774 1010 774 1061 645 c 0,33,34
 1094 561 1094 561 1094 459 c 0,35,36
 1094 291 1094 291 1008 180 c 0,0,1
EndSplineSet
EndChar

StartChar: six
Encoding: 54 54 25
Width: 1277
VWidth: 1024
GlyphClass: 2
Flags: W
LayerCount: 2
Fore
SplineSet
655 -23 m 0,0,1
 549 -23 549 -23 463 7 c 128,-1,2
 377 37 377 37 319 88 c 0,3,4
 126 254 126 254 127 602 c 0,5,6
 127 840 127 840 221 1047 c 0,7,8
 260 1131 260 1131 322.5 1208.5 c 128,-1,9
 385 1286 385 1286 465 1347.5 c 128,-1,10
 545 1409 545 1409 654.5 1454 c 128,-1,11
 764 1499 764 1499 895 1520 c 1,12,-1
 932 1370 l 1,13,14
 801 1354 801 1354 692.5 1301.5 c 128,-1,15
 584 1249 584 1249 508 1171 c 0,16,17
 356 1015 356 1015 307 799 c 1,18,19
 352 885 352 885 467 932 c 128,-1,20
 582 979 582 979 680 979 c 0,21,22
 909 979 909 979 1040 835.5 c 128,-1,23
 1171 692 1171 692 1171 475 c 128,-1,24
 1171 258 1171 258 1024.5 117.5 c 128,-1,25
 878 -23 878 -23 655 -23 c 0,0,1
655 131 m 0,26,27
 819 131 819 131 909 222 c 0,28,29
 999 311 999 311 999 471 c 0,30,31
 999 588 999 588 954 678 c 0,32,33
 901 780 901 780 795 819 c 0,34,35
 734 839 734 839 659 840 c 0,36,37
 497 840 497 840 399 738.5 c 128,-1,38
 301 637 301 637 301 487.5 c 128,-1,39
 301 338 301 338 387 238 c 0,40,41
 428 189 428 189 498.5 160 c 128,-1,42
 569 131 569 131 655 131 c 0,26,27
EndSplineSet
EndChar

StartChar: seven
Encoding: 55 55 26
Width: 1224
VWidth: 1024
GlyphClass: 2
Flags: W
LayerCount: 2
Fore
SplineSet
324 0 m 1,0,-1
 918 1307 l 1,1,-1
 119 1307 l 1,2,-1
 119 1454 l 1,3,-1
 1114 1454 l 1,4,-1
 1114 1360 l 1,5,-1
 512 0 l 1,6,-1
 324 0 l 1,0,-1
EndSplineSet
EndChar

StartChar: eight
Encoding: 56 56 27
Width: 1224
VWidth: 1024
GlyphClass: 2
Flags: W
LayerCount: 2
Fore
SplineSet
612 -25 m 0,0,1
 450 -25 450 -25 329.5 36.5 c 128,-1,2
 209 98 209 98 147 205 c 0,3,4
 106 279 106 279 106 377 c 0,5,6
 106 672 106 672 430 766 c 1,7,8
 143 856 143 856 143 1118 c 0,9,10
 143 1315 143 1315 319 1417 c 0,11,12
 368 1446 368 1446 444 1466.5 c 128,-1,13
 520 1487 520 1487 612 1487 c 0,14,15
 766 1487 766 1487 878.5 1431.5 c 128,-1,16
 991 1376 991 1376 1044 1274 c 0,17,18
 1081 1204 1081 1204 1081 1118 c 0,19,20
 1081 856 1081 856 795 766 c 1,21,22
 1119 672 1119 672 1118 377 c 0,23,24
 1118 193 1118 193 967 80 c 0,25,26
 823 -25 823 -25 612 -25 c 0,0,1
612 123 m 0,27,28
 721 123 721 123 799 162 c 128,-1,29
 877 201 877 201 913 274 c 0,30,31
 938 323 938 323 938 389 c 0,32,33
 938 622 938 622 612 688 c 1,34,35
 381 643 381 643 311 500 c 0,36,37
 286 451 286 451 287 389 c 0,38,39
 287 258 287 258 377 190.5 c 128,-1,40
 467 123 467 123 612 123 c 0,27,28
612 840 m 1,41,42
 827 881 827 881 885 1001 c 0,43,44
 905 1050 905 1050 905 1112 c 0,45,46
 905 1227 905 1227 822 1287.5 c 128,-1,47
 739 1348 739 1348 612 1348 c 0,48,49
 518 1348 518 1348 447.5 1313 c 128,-1,50
 377 1278 377 1278 342 1212 c 0,51,52
 319 1167 319 1167 319 1110 c 0,53,54
 319 987 319 987 406 922 c 0,55,56
 481 865 481 865 612 840 c 1,41,42
EndSplineSet
EndChar

StartChar: nine
Encoding: 57 57 28
Width: 1277
VWidth: 1024
GlyphClass: 2
Flags: W
LayerCount: 2
Fore
SplineSet
541 -78 m 1,0,-1
 401 0 l 1,1,-1
 819 590 l 1,2,3
 807 582 807 582 788.5 569.5 c 128,-1,4
 770 557 770 557 721 542.5 c 128,-1,5
 672 528 672 528 623 528 c 0,6,7
 469 528 469 528 353.5 592.5 c 128,-1,8
 238 657 238 657 178.5 769 c 128,-1,9
 119 881 119 881 119 1020 c 0,10,11
 119 1239 119 1239 265.5 1379.5 c 128,-1,12
 412 1520 412 1520 635 1520 c 0,13,14
 766 1520 766 1520 869 1477 c 0,15,16
 974 1434 974 1434 1036 1364 c 0,17,18
 1163 1221 1163 1221 1162 1019 c 0,19,20
 1163 817 1163 817 1020 612 c 2,21,-1
 541 -78 l 1,0,-1
643 668 m 0,22,23
 813 668 813 668 902 762 c 128,-1,24
 991 856 991 856 991 1020 c 128,-1,25
 991 1184 991 1184 907 1275 c 128,-1,26
 823 1366 823 1366 653 1366 c 128,-1,27
 483 1366 483 1366 389 1273 c 128,-1,28
 295 1180 295 1180 295 1027 c 128,-1,29
 295 874 295 874 371 776 c 0,30,31
 410 725 410 725 479.5 696.5 c 128,-1,32
 549 668 549 668 643 668 c 0,22,23
EndSplineSet
EndChar

StartChar: colon
Encoding: 58 58 29
Width: 552
VWidth: 1024
GlyphClass: 2
Flags: W
LayerCount: 2
Fore
SplineSet
164 -12 m 1,0,-1
 164 205 l 1,1,-1
 385 205 l 1,2,-1
 385 -12 l 1,3,-1
 164 -12 l 1,0,-1
164 860 m 1,4,-1
 164 1077 l 1,5,-1
 385 1077 l 1,6,-1
 385 860 l 1,7,-1
 164 860 l 1,4,-1
EndSplineSet
EndChar

StartChar: semicolon
Encoding: 59 59 30
Width: 552
VWidth: 1024
GlyphClass: 2
Flags: W
LayerCount: 2
Fore
SplineSet
102 -262 m 1,0,-1
 211 213 l 1,1,-1
 403 213 l 1,2,-1
 238 -262 l 1,3,-1
 102 -262 l 1,0,-1
164 860 m 1,4,-1
 211 1077 l 1,5,-1
 385 1077 l 1,6,-1
 385 860 l 1,7,-1
 164 860 l 1,4,-1
EndSplineSet
EndChar

StartChar: less
Encoding: 60 60 31
Width: 1492
VWidth: 1024
GlyphClass: 2
Flags: W
LayerCount: 2
Fore
SplineSet
1253 49 m 1,0,-1
 225 520 l 1,1,-1
 225 610 l 1,2,-1
 1257 1094 l 1,3,-1
 1257 936 l 1,4,-1
 449 565 l 1,5,-1
 1253 205 l 1,6,-1
 1253 49 l 1,0,-1
EndSplineSet
EndChar

StartChar: equal
Encoding: 61 61 32
Width: 1492
VWidth: 1024
GlyphClass: 2
Flags: W
LayerCount: 2
Fore
SplineSet
203 291 m 1,0,-1
 203 430 l 1,1,-1
 1278 430 l 1,2,-1
 1278 291 l 1,3,-1
 203 291 l 1,0,-1
201 705 m 1,4,-1
 201 848 l 1,5,-1
 1276 848 l 1,6,-1
 1276 705 l 1,7,-1
 201 705 l 1,4,-1
EndSplineSet
EndChar

StartChar: greater
Encoding: 62 62 33
Width: 1492
VWidth: 1024
GlyphClass: 2
Flags: W
LayerCount: 2
Fore
SplineSet
221 59 m 1,0,-1
 221 217 l 1,1,-1
 1028 569 l 1,2,-1
 225 948 l 1,3,-1
 225 1104 l 1,4,-1
 1253 608 l 1,5,-1
 1253 516 l 1,6,-1
 221 59 l 1,0,-1
EndSplineSet
EndChar

StartChar: question
Encoding: 63 63 34
Width: 1056
VWidth: 1024
GlyphClass: 2
Flags: W
LayerCount: 2
Fore
SplineSet
365 377 m 1,0,1
 355 475 355 475 354.5 534.5 c 128,-1,2
 354 594 354 594 375.5 642 c 128,-1,3
 397 690 397 690 432 728 c 128,-1,4
 467 766 467 766 545 832.5 c 128,-1,5
 623 899 623 899 670 950 c 0,6,7
 748 1040 748 1040 748 1151 c 0,8,9
 748 1241 748 1241 686 1295 c 0,10,11
 625 1351 625 1351 537 1360 c 0,12,13
 508 1364 508 1364 462 1363 c 128,-1,14
 416 1362 416 1362 337 1346.5 c 128,-1,15
 258 1331 258 1331 188 1292 c 1,16,-1
 188 1446 l 1,17,18
 335 1520 335 1520 475 1520 c 0,19,20
 688 1520 688 1520 805 1421.5 c 128,-1,21
 922 1323 922 1323 922 1159 c 0,22,23
 922 1087 922 1087 897 1026 c 128,-1,24
 872 965 872 965 833.5 918.5 c 128,-1,25
 795 872 795 872 750 831.5 c 128,-1,26
 705 791 705 791 657.5 750 c 128,-1,27
 610 709 610 709 572.5 668 c 128,-1,28
 535 627 535 627 511 573.5 c 128,-1,29
 487 520 487 520 487 471 c 128,-1,30
 487 422 487 422 492 377 c 1,31,-1
 365 377 l 1,0,1
512 29.5 m 128,-1,33
 479 0 479 0 432 0 c 128,-1,34
 385 0 385 0 355.5 30.5 c 128,-1,35
 326 61 326 61 326 108.5 c 128,-1,36
 326 156 326 156 359.5 186.5 c 128,-1,37
 393 217 393 217 440 217 c 128,-1,38
 487 217 487 217 516 185.5 c 128,-1,39
 545 154 545 154 545 106.5 c 128,-1,32
 545 59 545 59 512 29.5 c 128,-1,33
EndSplineSet
EndChar

StartChar: at
Encoding: 64 64 35
Width: 1939
VWidth: 1024
GlyphClass: 2
Flags: W
LayerCount: 2
Fore
SplineSet
1345.5 -48.5 m 128,-1,1
 1188 -111 1188 -111 994.5 -111 c 128,-1,2
 801 -111 801 -111 644 -49.5 c 128,-1,3
 487 12 487 12 375.5 117.5 c 128,-1,4
 264 223 264 223 198.5 369.5 c 128,-1,5
 133 516 133 516 133 696 c 0,6,7
 133 1040 133 1040 383 1276 c 0,8,9
 635 1512 635 1512 995 1511 c 0,10,11
 1335 1511 1335 1511 1569 1314 c 0,12,13
 1802 1118 1802 1118 1802 811 c 0,14,15
 1802 573 1802 573 1651 399 c 0,16,17
 1588 325 1588 325 1502.5 277 c 128,-1,18
 1417 229 1417 229 1319 229 c 0,19,20
 1126 229 1126 229 1098 393 c 1,21,22
 992 262 992 262 834 262 c 0,23,24
 725 262 725 262 650 319 c 0,25,26
 573 376 573 376 537 467 c 0,27,28
 508 535 508 535 510 625 c 0,29,30
 510 834 510 834 661.5 999.5 c 128,-1,31
 813 1165 813 1165 1001 1165 c 0,32,33
 1081 1165 1081 1165 1142.5 1133.5 c 128,-1,34
 1204 1102 1204 1102 1237 1047 c 1,35,-1
 1253 1135 l 1,36,-1
 1405 1135 l 1,37,-1
 1346 877 l 2,38,39
 1338 844 1338 844 1280 598 c 0,40,41
 1255 494 1255 494 1255 447.5 c 128,-1,42
 1255 401 1255 401 1274.5 379.5 c 128,-1,43
 1294 358 1294 358 1339 358 c 0,44,45
 1460 358 1460 358 1553.5 496.5 c 128,-1,46
 1647 635 1647 635 1647 815 c 0,47,48
 1647 1067 1647 1067 1462.5 1228 c 128,-1,49
 1278 1389 1278 1389 989 1389 c 0,50,51
 833 1389 833 1389 706.5 1333.5 c 128,-1,52
 580 1278 580 1278 488.5 1186 c 128,-1,53
 397 1094 397 1094 342 969 c 128,-1,54
 287 844 287 844 287 692 c 0,55,56
 287 397 287 397 483.5 204.5 c 128,-1,57
 680 12 680 12 993.5 12 c 128,-1,58
 1307 12 1307 12 1522 197 c 1,59,-1
 1604 125 l 1,60,0
 1503 14 1503 14 1345.5 -48.5 c 128,-1,1
852 393 m 0,61,62
 983 393 983 393 1075 531 c 0,63,64
 1167 667 1167 667 1167 840 c 0,65,66
 1167 1033 1167 1033 1004 1032 c 0,67,68
 865 1032 865 1032 768.5 892 c 128,-1,69
 672 752 672 752 672 596 c 0,70,71
 672 504 672 504 719 448.5 c 128,-1,72
 766 393 766 393 852 393 c 0,61,62
EndSplineSet
EndChar

StartChar: A
Encoding: 65 65 36
Width: 1458
VWidth: 1024
GlyphClass: 2
Flags: W
LayerCount: 2
Fore
SplineSet
631 1491 m 1,0,-1
 821 1491 l 1,1,-1
 1442 0 l 1,2,-1
 1245 0 l 1,3,-1
 1077 406 l 1,4,-1
 365 406 l 1,5,-1
 205 0 l 1,6,-1
 12 0 l 1,7,-1
 631 1491 l 1,0,-1
778 1178 m 1,8,9
 749 1244 749 1244 725 1329 c 1,10,11
 713 1286 713 1286 672 1176 c 1,12,-1
 420 557 l 1,13,-1
 1018 557 l 1,14,-1
 778 1178 l 1,8,9
EndSplineSet
EndChar

StartChar: B
Encoding: 66 66 37
Width: 1327
VWidth: 1024
GlyphClass: 2
Flags: W
LayerCount: 2
Fore
SplineSet
178 1491 m 1,0,-1
 598 1491 l 2,1,2
 891 1491 891 1491 1031 1407 c 128,-1,3
 1171 1323 1171 1323 1171 1130 c 0,4,5
 1171 989 1171 989 1113 909 c 0,6,7
 1055 827 1055 827 930 786 c 1,8,9
 1086 755 1086 755 1163.5 666.5 c 128,-1,10
 1241 578 1241 578 1241 414 c 0,11,12
 1241 0 1241 0 668 0 c 2,13,-1
 178 0 l 1,14,-1
 178 1491 l 1,0,-1
961.5 213 m 128,-1,16
 1055 274 1055 274 1055 420.5 c 128,-1,17
 1055 567 1055 567 952 634 c 0,18,19
 852 701 852 701 614 700 c 2,20,-1
 354 700 l 1,21,-1
 354 152 l 1,22,-1
 659 152 l 2,23,15
 868 152 868 152 961.5 213 c 128,-1,16
892 904.5 m 128,-1,25
 985 965 985 965 985 1098 c 128,-1,26
 985 1231 985 1231 896 1285 c 128,-1,27
 807 1339 807 1339 598 1339 c 2,28,-1
 354 1339 l 1,29,-1
 354 844 l 1,30,-1
 582 844 l 2,31,24
 799 844 799 844 892 904.5 c 128,-1,25
EndSplineSet
EndChar

StartChar: C
Encoding: 67 67 38
Width: 1423
VWidth: 1024
GlyphClass: 2
Flags: W
LayerCount: 2
Fore
SplineSet
115 743 m 0,0,1
 115 968 115 968 203 1143.5 c 128,-1,2
 291 1319 291 1319 457 1419.5 c 128,-1,3
 623 1520 623 1520 838 1520 c 0,4,5
 994 1520 994 1520 1103 1479 c 128,-1,6
 1212 1438 1212 1438 1311 1364 c 1,7,-1
 1231 1235 l 1,8,9
 1061 1364 1061 1364 856 1364 c 0,10,11
 680 1364 680 1364 553 1282 c 128,-1,12
 426 1200 426 1200 364.5 1063 c 128,-1,13
 303 926 303 926 303 741 c 0,14,15
 303 471 303 471 434 307 c 0,16,17
 500 225 500 225 603 179 c 0,18,19
 704 133 704 133 840 133 c 0,20,21
 1106 135 1106 135 1268 274 c 1,22,-1
 1327 131 l 1,23,24
 1139 -21 1139 -21 836 -23 c 0,25,26
 668 -23 668 -23 532.5 33.5 c 128,-1,27
 397 90 397 90 305 191.5 c 128,-1,28
 213 293 213 293 164 434 c 128,-1,29
 115 575 115 575 115 743 c 0,0,1
EndSplineSet
EndChar

StartChar: D
Encoding: 68 68 39
Width: 1558
VWidth: 1024
GlyphClass: 2
Flags: W
LayerCount: 2
Fore
SplineSet
178 1491 m 1,0,-1
 500 1491 l 2,1,2
 672 1491 672 1491 813 1467.5 c 128,-1,3
 954 1444 954 1444 1074 1389.5 c 128,-1,4
 1194 1335 1194 1335 1275 1249 c 128,-1,5
 1356 1163 1356 1163 1401 1035 c 128,-1,6
 1446 907 1446 907 1446 733 c 128,-1,7
 1446 559 1446 559 1384.5 416.5 c 128,-1,8
 1323 274 1323 274 1212 184 c 0,9,10
 987 0 987 0 606 0 c 2,11,-1
 178 0 l 1,12,-1
 178 1491 l 1,0,-1
1257 737 m 0,13,14
 1257 1073 1257 1073 1061 1212 c 0,15,16
 963 1280 963 1280 831.5 1309.5 c 128,-1,17
 700 1339 700 1339 522 1339 c 2,18,-1
 354 1339 l 1,19,-1
 354 152 l 1,20,-1
 623 152 l 2,21,22
 924 152 924 152 1090.5 301 c 128,-1,23
 1257 450 1257 450 1257 737 c 0,13,14
EndSplineSet
EndChar

StartChar: E
Encoding: 69 69 40
Width: 1214
VWidth: 1024
GlyphClass: 2
Flags: W
LayerCount: 2
Fore
SplineSet
178 1491 m 1,0,-1
 1065 1491 l 1,1,-1
 1065 1339 l 1,2,-1
 354 1339 l 1,3,-1
 354 840 l 1,4,-1
 1028 840 l 1,5,-1
 1028 688 l 1,6,-1
 354 688 l 1,7,-1
 354 152 l 1,8,-1
 1118 152 l 1,9,-1
 1118 0 l 1,10,-1
 178 0 l 1,11,-1
 178 1491 l 1,0,-1
EndSplineSet
EndChar

StartChar: F
Encoding: 70 70 41
Width: 1128
VWidth: 1024
GlyphClass: 2
Flags: W
LayerCount: 2
Fore
SplineSet
178 1491 m 1,0,-1
 1040 1491 l 1,1,-1
 1040 1339 l 1,2,-1
 354 1339 l 1,3,-1
 354 836 l 1,4,-1
 1008 836 l 1,5,-1
 1008 684 l 1,6,-1
 354 684 l 1,7,-1
 354 0 l 1,8,-1
 178 0 l 1,9,-1
 178 1491 l 1,0,-1
EndSplineSet
EndChar

StartChar: G
Encoding: 71 71 42
Width: 1548
VWidth: 1024
GlyphClass: 2
Flags: W
LayerCount: 2
Fore
SplineSet
115 717 m 0,0,1
 115 955 115 955 205 1135 c 128,-1,2
 295 1315 295 1315 469 1417.5 c 128,-1,3
 643 1520 643 1520 877 1520 c 0,4,5
 1037 1520 1037 1520 1151 1478 c 0,6,7
 1266 1438 1266 1438 1356 1348 c 1,8,-1
 1282 1227 l 1,9,10
 1139 1364 1139 1364 872 1364 c 0,11,12
 694 1364 694 1364 562 1281 c 128,-1,13
 430 1198 430 1198 363.5 1055.5 c 128,-1,14
 297 913 297 913 297 731 c 0,15,16
 297 444 297 444 447.5 288.5 c 128,-1,17
 598 133 598 133 881 133 c 0,18,19
 1082 133 1082 133 1204 182 c 1,20,-1
 1204 623 l 1,21,-1
 836 623 l 1,22,-1
 836 774 l 1,23,-1
 1380 774 l 1,24,-1
 1380 82 l 1,25,26
 1155 -24 1155 -24 864 -23 c 0,27,28
 508 -23 508 -23 311.5 170 c 128,-1,29
 115 363 115 363 115 717 c 0,0,1
EndSplineSet
EndChar

StartChar: H
Encoding: 72 72 43
Width: 1527
VWidth: 1024
GlyphClass: 2
Flags: W
LayerCount: 2
Fore
SplineSet
1352 1491 m 1,0,-1
 1352 0 l 1,1,-1
 1176 0 l 1,2,-1
 1176 690 l 1,3,-1
 354 690 l 1,4,-1
 354 0 l 1,5,-1
 178 0 l 1,6,-1
 178 1491 l 5,7,-1
 354 1491 l 5,8,-1
 354 842 l 1,9,-1
 1176 842 l 1,10,-1
 1176 1491 l 1,11,-1
 1352 1491 l 1,0,-1
EndSplineSet
EndChar

StartChar: I
Encoding: 73 73 44
Width: 557
VWidth: 1024
GlyphClass: 2
Flags: W
LayerCount: 2
Fore
SplineSet
190 1491 m 1,0,-1
 367 1491 l 1,1,-1
 367 0 l 1,2,-1
 190 0 l 1,3,-1
 190 1491 l 1,0,-1
EndSplineSet
EndChar

StartChar: J
Encoding: 74 74 45
Width: 1064
VWidth: 1024
GlyphClass: 2
Flags: W
LayerCount: 2
Fore
SplineSet
336 -41 m 0,0,1
 598 -41 598 -41 598 342 c 2,2,-1
 598 1346 l 1,3,-1
 168 1346 l 1,4,-1
 168 1491 l 1,5,-1
 1053 1491 l 1,6,-1
 1053 1346 l 1,7,-1
 774 1346 l 1,8,-1
 774 344 l 2,9,10
 774 192 774 192 733 79.5 c 128,-1,11
 692 -33 692 -33 621 -94 c 0,12,13
 506 -192 506 -192 344 -193 c 0,14,15
 201 -193 201 -193 41 -117 c 1,16,-1
 94 23 l 1,17,18
 234 -41 234 -41 336 -41 c 0,0,1
EndSplineSet
EndChar

StartChar: K
Encoding: 75 75 46
Width: 1275
VWidth: 1024
GlyphClass: 2
Flags: W
LayerCount: 2
Fore
SplineSet
1014 1491 m 1,0,-1
 1231 1491 l 1,1,-1
 545 782 l 1,2,-1
 1272 0 l 1,3,-1
 1049 0 l 1,4,-1
 354 741 l 1,5,-1
 354 0 l 1,6,-1
 178 0 l 1,7,-1
 178 1491 l 1,8,-1
 354 1491 l 1,9,-1
 354 815 l 1,10,-1
 1014 1491 l 1,0,-1
EndSplineSet
EndChar

StartChar: L
Encoding: 76 76 47
Width: 1093
VWidth: 1024
GlyphClass: 2
Flags: W
LayerCount: 2
Fore
SplineSet
178 1491 m 1,0,-1
 354 1491 l 1,1,-1
 354 152 l 1,2,-1
 1069 152 l 1,3,-1
 1069 0 l 1,4,-1
 178 0 l 1,5,-1
 178 1491 l 1,0,-1
EndSplineSet
EndChar

StartChar: M
Encoding: 77 77 48
Width: 1990
VWidth: 1024
GlyphClass: 2
Flags: W
LayerCount: 2
Fore
SplineSet
1573 1491 m 1,0,-1
 1812 1491 l 1,1,-1
 1812 0 l 1,2,-1
 1640 0 l 1,3,-1
 1640 1282 l 1,4,-1
 1571 1122 l 1,5,-1
 1059 113 l 1,6,-1
 930 113 l 1,7,-1
 414 1135 l 1,8,-1
 352 1298 l 1,9,-1
 352 0 l 1,10,-1
 178 0 l 1,11,-1
 178 1491 l 1,12,-1
 422 1491 l 1,13,-1
 909 539 l 1,14,-1
 995 330 l 1,15,-1
 1083 541 l 1,16,-1
 1573 1491 l 1,0,-1
EndSplineSet
EndChar

StartChar: N
Encoding: 78 78 49
Width: 1607
VWidth: 1024
GlyphClass: 2
Flags: W
LayerCount: 2
Fore
SplineSet
1253 1491 m 1,0,-1
 1430 1491 l 1,1,-1
 1430 0 l 1,2,-1
 1217 0 l 1,3,-1
 428 1139 l 1,4,-1
 354 1266 l 1,5,-1
 354 0 l 1,6,-1
 178 0 l 1,7,-1
 178 1491 l 1,8,-1
 389 1491 l 1,9,-1
 1176 350 l 1,10,-1
 1253 221 l 1,11,-1
 1253 1491 l 1,0,-1
EndSplineSet
EndChar

StartChar: O
Encoding: 79 79 50
Width: 1699
VWidth: 1024
GlyphClass: 2
Flags: W
LayerCount: 2
Fore
SplineSet
115 745.5 m 128,-1,1
 115 868 115 868 143.5 981 c 128,-1,2
 172 1094 172 1094 233.5 1192 c 128,-1,3
 295 1290 295 1290 381 1363 c 128,-1,4
 467 1436 467 1436 588 1478 c 128,-1,5
 709 1520 709 1520 850 1520 c 128,-1,6
 991 1520 991 1520 1112 1478 c 128,-1,7
 1233 1436 1233 1436 1319 1363 c 128,-1,8
 1405 1290 1405 1290 1466.5 1192 c 128,-1,9
 1528 1094 1528 1094 1556.5 981 c 128,-1,10
 1585 868 1585 868 1585 745.5 c 128,-1,11
 1585 623 1585 623 1556.5 510 c 128,-1,12
 1528 397 1528 397 1466.5 300 c 128,-1,13
 1405 203 1405 203 1319 130 c 128,-1,14
 1233 57 1233 57 1112 16 c 128,-1,15
 991 -25 991 -25 850 -25 c 128,-1,16
 709 -25 709 -25 588 16 c 128,-1,17
 467 57 467 57 381 130 c 128,-1,18
 295 203 295 203 233.5 300 c 128,-1,19
 172 397 172 397 143.5 510 c 128,-1,0
 115 623 115 623 115 745.5 c 128,-1,1
1397 746.5 m 128,-1,21
 1397 895 1397 895 1352 1015 c 128,-1,22
 1307 1135 1307 1135 1230 1208.5 c 128,-1,23
 1153 1282 1153 1282 1055.5 1323 c 128,-1,24
 958 1364 958 1364 849.5 1364 c 128,-1,25
 741 1364 741 1364 644 1323 c 128,-1,26
 547 1282 547 1282 470 1208.5 c 128,-1,27
 393 1135 393 1135 348 1015 c 128,-1,28
 303 895 303 895 303 746.5 c 128,-1,29
 303 598 303 598 348 479 c 128,-1,30
 393 360 393 360 470 284.5 c 128,-1,31
 547 209 547 209 644 170 c 128,-1,32
 741 131 741 131 849.5 131 c 128,-1,33
 958 131 958 131 1055.5 170 c 128,-1,34
 1153 209 1153 209 1230 284.5 c 128,-1,35
 1307 360 1307 360 1352 479 c 128,-1,20
 1397 598 1397 598 1397 746.5 c 128,-1,21
EndSplineSet
EndChar

StartChar: P
Encoding: 80 80 51
Width: 1267
VWidth: 1024
GlyphClass: 2
Flags: W
LayerCount: 2
Fore
SplineSet
178 1491 m 1,0,-1
 578 1491 l 2,1,2
 906 1491 906 1491 1053 1382.5 c 128,-1,3
 1200 1274 1200 1274 1200 1051 c 0,4,5
 1200 602 1200 602 602 602 c 2,6,-1
 354 602 l 1,7,-1
 354 0 l 1,8,-1
 178 0 l 1,9,-1
 178 1491 l 1,0,-1
623 754 m 2,10,11
 1012 754 1012 754 1012 1049 c 0,12,13
 1012 1196 1012 1196 916 1268 c 0,14,15
 823 1340 823 1340 602 1339 c 2,16,-1
 354 1339 l 1,17,-1
 354 754 l 1,18,-1
 623 754 l 2,10,11
EndSplineSet
EndChar

StartChar: Q
Encoding: 81 81 52
Width: 1687
VWidth: 1024
GlyphClass: 2
Flags: W
LayerCount: 2
Fore
SplineSet
115 754 m 0,0,1
 115 1100 115 1100 313.5 1310 c 128,-1,2
 512 1520 512 1520 850 1520 c 128,-1,3
 1188 1520 1188 1520 1380.5 1311 c 128,-1,4
 1573 1102 1573 1102 1573 754 c 0,5,6
 1573 484 1573 484 1450 293 c 128,-1,7
 1327 102 1327 102 1118 20 c 1,8,9
 1200 -152 1200 -152 1372 -311 c 1,10,-1
 1257 -432 l 1,11,12
 1044 -217 1044 -217 950 -12 c 1,13,14
 901 -20 901 -20 842 -23 c 0,15,16
 670 -23 670 -23 532.5 33.5 c 128,-1,17
 395 90 395 90 304 191.5 c 128,-1,18
 213 293 213 293 164 436.5 c 128,-1,19
 115 580 115 580 115 754 c 0,0,1
1380 754 m 0,20,21
 1380 1135 1380 1135 1141 1286 c 0,22,23
 1018 1364 1018 1364 844 1365 c 128,-1,24
 670 1366 670 1366 546 1286 c 128,-1,25
 422 1206 422 1206 360.5 1069 c 128,-1,26
 299 932 299 932 299 754 c 0,27,28
 299 482 299 482 438 307 c 0,29,30
 506 221 506 221 609.5 174 c 128,-1,31
 713 127 713 127 844 127 c 128,-1,32
 975 127 975 127 1079 173 c 0,33,34
 1183 217 1183 217 1249 303 c 0,35,36
 1380 475 1380 475 1380 754 c 0,20,21
EndSplineSet
EndChar

StartChar: R
Encoding: 82 82 53
Width: 1351
VWidth: 1024
GlyphClass: 2
Flags: W
LayerCount: 2
Fore
SplineSet
178 1491 m 1,0,-1
 543 1491 l 2,1,2
 811 1491 811 1491 940 1447 c 128,-1,3
 1069 1403 1069 1403 1126 1327 c 0,4,5
 1196 1237 1196 1237 1196 1093.5 c 128,-1,6
 1196 950 1196 950 1108 860 c 128,-1,7
 1020 770 1020 770 879 733 c 1,8,9
 977 700 977 700 1028 614 c 0,10,11
 1067 551 1067 551 1114 434 c 0,12,13
 1114 430 1114 430 1115 428 c 0,14,15
 1114 426 1114 426 1118 420 c 2,16,-1
 1286 0 l 1,17,-1
 1094 0 l 1,18,-1
 938 430 l 2,19,20
 920 479 920 479 903 512 c 0,21,22
 862 594 862 594 809 627 c 0,23,24
 741 668 741 668 631 668 c 2,25,-1
 354 668 l 1,26,-1
 354 0 l 1,27,-1
 178 0 l 1,28,-1
 178 1491 l 1,0,-1
979 956.5 m 128,-1,30
 1010 1010 1010 1010 1010 1077 c 0,31,32
 1010 1202 1010 1202 940 1264 c 1,33,34
 852 1340 852 1340 639 1339 c 2,35,-1
 354 1339 l 1,36,-1
 354 819 l 1,37,-1
 627 819 l 2,38,39
 787 819 787 819 893 874 c 0,40,29
 948 903 948 903 979 956.5 c 128,-1,30
EndSplineSet
EndChar

StartChar: S
Encoding: 83 83 54
Width: 1257
VWidth: 1024
GlyphClass: 2
Flags: W
LayerCount: 2
Fore
SplineSet
143 1118 m 0,0,1
 143 1306 143 1306 284.5 1413 c 128,-1,2
 426 1520 426 1520 651 1520 c 0,3,4
 909 1520 909 1520 1110 1393 c 1,5,-1
 1057 1247 l 1,6,7
 969 1300 969 1300 867.5 1333 c 128,-1,8
 766 1366 766 1366 672 1366 c 0,9,10
 340 1366 340 1366 332 1147 c 0,11,12
 332 1139 332 1139 332 1112 c 128,-1,13
 332 1085 332 1085 343 1048.5 c 128,-1,14
 354 1012 354 1012 392 973 c 128,-1,15
 430 934 430 934 502.5 902 c 128,-1,16
 575 870 575 870 704.5 832.5 c 128,-1,17
 834 795 834 795 928 750 c 128,-1,18
 1022 705 1022 705 1072 649.5 c 128,-1,19
 1122 594 1122 594 1142.5 536.5 c 128,-1,20
 1163 479 1163 479 1163 397 c 128,-1,21
 1163 315 1163 315 1133.5 239.5 c 128,-1,22
 1104 164 1104 164 1046.5 104.5 c 128,-1,23
 989 45 989 45 896 11 c 128,-1,24
 803 -23 803 -23 673 -23 c 128,-1,25
 543 -23 543 -23 397.5 17 c 128,-1,26
 252 57 252 57 150 127 c 1,27,-1
 178 295 l 1,28,29
 276 217 276 217 412.5 172 c 128,-1,30
 549 127 549 127 664 127 c 0,31,32
 820 127 820 127 897.5 200.5 c 128,-1,33
 975 274 975 274 975 410 c 0,34,35
 975 453 975 453 962.5 482.5 c 128,-1,36
 950 512 950 512 909 549 c 0,37,38
 835 615 835 615 579.5 687.5 c 128,-1,39
 324 760 324 760 229 870 c 0,40,41
 180 927 180 927 161.5 985.5 c 128,-1,42
 143 1044 143 1044 143 1118 c 0,0,1
EndSplineSet
EndChar

StartChar: T
Encoding: 84 84 55
Width: 1187
VWidth: 1024
GlyphClass: 2
Flags: W
LayerCount: 2
Fore
SplineSet
25 1491 m 1,0,-1
 1163 1491 l 1,1,-1
 1163 1339 l 1,2,-1
 680 1339 l 1,3,-1
 680 0 l 1,4,-1
 504 0 l 1,5,-1
 504 1339 l 1,6,-1
 25 1339 l 1,7,-1
 25 1491 l 1,0,-1
EndSplineSet
EndChar

StartChar: U
Encoding: 85 85 56
Width: 1507
VWidth: 1024
GlyphClass: 2
Flags: W
LayerCount: 2
Fore
SplineSet
1165 1491 m 1,0,-1
 1339 1491 l 1,1,-1
 1339 565 l 1,2,3
 1337 286 1337 286 1190 132 c 0,4,5
 1040 -23 1040 -23 766 -23 c 0,6,7
 168 -25 168 -25 168 553 c 2,8,-1
 168 1491 l 1,9,-1
 344 1491 l 1,10,-1
 344 559 l 2,11,12
 344 127 344 127 766 127 c 0,13,14
 959 127 959 127 1062 239.5 c 128,-1,15
 1165 352 1165 352 1165 553 c 2,16,-1
 1165 1491 l 1,0,-1
EndSplineSet
EndChar

StartChar: V
Encoding: 86 86 57
Width: 1368
VWidth: 1024
GlyphClass: 2
Flags: W
LayerCount: 2
Fore
SplineSet
1167 1491 m 1,0,-1
 1356 1491 l 1,1,-1
 786 0 l 1,2,-1
 594 0 l 1,3,-1
 12 1491 l 1,4,-1
 205 1491 l 1,5,-1
 641 332 l 1,6,-1
 688 188 l 1,7,-1
 737 332 l 1,8,-1
 1167 1491 l 1,0,-1
EndSplineSet
EndChar

StartChar: W
Encoding: 87 87 58
Width: 2144
VWidth: 1024
GlyphClass: 2
Flags: W
LayerCount: 2
Fore
SplineSet
1942 1491 m 1,0,-1
 2126 1491 l 1,1,-1
 1694 0 l 1,2,-1
 1477 0 l 1,3,-1
 1073 1278 l 1,4,-1
 670 0 l 1,5,-1
 451 0 l 1,6,-1
 18 1491 l 1,7,-1
 209 1491 l 1,8,-1
 526 356 l 1,9,-1
 565 193 l 1,10,-1
 616 356 l 1,11,-1
 987 1491 l 1,12,-1
 1171 1491 l 1,13,-1
 1540 352 l 1,14,-1
 1587 195 l 1,15,-1
 1630 356 l 1,16,-1
 1942 1491 l 1,0,-1
EndSplineSet
EndChar

StartChar: X
Encoding: 88 88 59
Width: 1335
VWidth: 1024
GlyphClass: 2
Flags: W
LayerCount: 2
Fore
SplineSet
1106 1491 m 1,0,-1
 1307 1491 l 1,1,-1
 782 760 l 1,2,-1
 1315 0 l 1,3,-1
 1110 0 l 1,4,-1
 664 639 l 1,5,-1
 221 0 l 1,6,-1
 12 0 l 1,7,-1
 561 758 l 1,8,-1
 51 1491 l 1,9,-1
 264 1491 l 1,10,-1
 678 874 l 1,11,-1
 1106 1491 l 1,0,-1
EndSplineSet
EndChar

StartChar: Y
Encoding: 89 89 60
Width: 1286
VWidth: 1024
GlyphClass: 2
Flags: W
LayerCount: 2
Fore
SplineSet
1085 1491 m 1,0,-1
 1282 1491 l 1,1,-1
 725 598 l 1,2,-1
 725 0 l 1,3,-1
 549 0 l 1,4,-1
 549 596 l 1,5,-1
 4 1491 l 1,6,-1
 201 1491 l 1,7,-1
 641 745 l 1,8,-1
 1085 1491 l 1,0,-1
EndSplineSet
EndChar

StartChar: Z
Encoding: 90 90 61
Width: 1251
VWidth: 1024
GlyphClass: 2
Flags: W
LayerCount: 2
Fore
SplineSet
127 1491 m 1,0,-1
 1182 1491 l 1,1,-1
 1182 1401 l 1,2,-1
 328 152 l 1,3,-1
 1174 152 l 1,4,-1
 1174 0 l 1,5,-1
 94 0 l 1,6,-1
 94 94 l 1,7,-1
 944 1339 l 1,8,-1
 127 1339 l 1,9,-1
 127 1491 l 1,0,-1
EndSplineSet
EndChar

StartChar: bracketleft
Encoding: 91 91 62
Width: 643
VWidth: 1024
GlyphClass: 2
Flags: W
LayerCount: 2
Fore
SplineSet
197 -266 m 1,0,-1
 197 1487 l 1,1,-1
 561 1487 l 1,2,-1
 561 1360 l 1,3,-1
 362 1360 l 1,4,-1
 362 -139 l 1,5,-1
 561 -139 l 1,6,-1
 561 -266 l 1,7,-1
 197 -266 l 1,0,-1
EndSplineSet
EndChar

StartChar: backslash
Encoding: 92 92 63
Width: 722
VWidth: 1024
GlyphClass: 2
Flags: W
LayerCount: 2
Fore
SplineSet
774 -221 m 1,0,-1
 608 -221 l 1,1,-1
 -49 1487 l 1,2,-1
 123 1487 l 1,3,-1
 774 -221 l 1,0,-1
EndSplineSet
EndChar

StartChar: bracketright
Encoding: 93 93 64
Width: 643
VWidth: 1024
GlyphClass: 2
Flags: W
LayerCount: 2
Fore
SplineSet
90 -266 m 1,0,-1
 90 -139 l 1,1,-1
 285 -139 l 1,2,-1
 285 1360 l 1,3,-1
 90 1360 l 1,4,-1
 80 1487 l 1,5,-1
 453 1487 l 1,6,-1
 453 -266 l 1,7,-1
 90 -266 l 1,0,-1
EndSplineSet
EndChar

StartChar: asciicircum
Encoding: 94 94 65
Width: 1490
VWidth: 1024
GlyphClass: 2
Flags: W
LayerCount: 2
Fore
SplineSet
188 563 m 1,0,-1
 680 1466 l 1,1,-1
 784 1466 l 1,2,-1
 1286 563 l 1,3,-1
 1126 563 l 1,4,-1
 731 1290 l 1,5,-1
 348 563 l 1,6,-1
 188 563 l 1,0,-1
EndSplineSet
EndChar

StartChar: underscore
Encoding: 95 95 66
Width: 1021
VWidth: 1024
GlyphClass: 2
Flags: W
LayerCount: 2
Fore
SplineSet
-4 -279 m 1,0,-1
 -4 -147 l 1,1,-1
 1022 -147 l 1,2,-1
 1022 -279 l 1,3,-1
 -4 -279 l 1,0,-1
EndSplineSet
EndChar

StartChar: grave
Encoding: 96 96 67
Width: 606
VWidth: 1024
GlyphClass: 2
Flags: W
LayerCount: 2
Fore
SplineSet
340 1200 m 1,0,-1
 0 1528 l 1,1,-1
 221 1528 l 1,2,-1
 473 1200 l 1,3,-1
 340 1200 l 1,0,-1
EndSplineSet
EndChar

StartChar: a
Encoding: 97 97 68
Width: 1232
VWidth: 1024
GlyphClass: 2
Flags: W
LayerCount: 2
Fore
SplineSet
92 449 m 0,0,1
 92 732 92 732 255 902.5 c 128,-1,2
 418 1073 418 1073 682 1073 c 0,3,4
 784 1073 784 1073 885.5 1048.5 c 128,-1,5
 987 1024 987 1024 1049 985 c 1,6,-1
 1049 293 l 2,7,8
 1049 225 1049 225 1083.5 184 c 128,-1,9
 1118 143 1118 143 1176 143 c 1,10,-1
 1141 -4 l 1,11,12
 1051 -4 1051 -4 986.5 44 c 128,-1,13
 922 92 922 92 903 170 c 1,14,15
 850 84 850 84 744.5 30.5 c 128,-1,16
 639 -23 639 -23 518 -23 c 0,17,18
 325 -23 325 -23 208.5 106.5 c 128,-1,19
 92 236 92 236 92 449 c 0,0,1
881 893 m 1,20,21
 811 930 811 930 680 930 c 0,22,23
 496 930 496 930 381 800 c 128,-1,24
 266 670 266 670 266 459 c 0,25,26
 266 307 266 307 342 213 c 128,-1,27
 418 119 418 119 545 119 c 0,28,29
 695 119 695 119 788 217 c 128,-1,30
 881 315 881 315 881 463 c 2,31,-1
 881 893 l 1,20,21
EndSplineSet
EndChar

StartChar: b
Encoding: 98 98 69
Width: 1239
VWidth: 1024
GlyphClass: 2
Flags: W
LayerCount: 2
Fore
SplineSet
156 1532 m 1,0,-1
 324 1561 l 1,1,-1
 324 872 l 1,2,3
 410 970 410 970 514 1019.5 c 128,-1,4
 618 1069 618 1069 712.5 1069 c 128,-1,5
 807 1069 807 1069 884 1034 c 128,-1,6
 961 999 961 999 1019 935.5 c 128,-1,7
 1077 872 1077 872 1112 774 c 128,-1,8
 1147 676 1147 676 1147 557 c 0,9,10
 1147 299 1147 299 1006.5 138 c 128,-1,11
 866 -23 866 -23 627 -23 c 0,12,13
 447 -23 447 -23 250 39 c 0,14,15
 205 53 205 53 180 63 c 2,16,-1
 156 74 l 1,17,-1
 156 1532 l 1,0,-1
973 563 m 0,18,19
 973 739 973 739 898 832.5 c 128,-1,20
 823 926 823 926 702 926 c 0,21,22
 608 926 608 926 509 868.5 c 128,-1,23
 410 811 410 811 324 702 c 1,24,-1
 324 160 l 1,25,26
 471 119 471 119 631 119 c 0,27,28
 746 119 746 119 823 182 c 1,29,30
 973 301 973 301 973 563 c 0,18,19
EndSplineSet
EndChar

StartChar: c
Encoding: 99 99 70
Width: 1042
VWidth: 1024
GlyphClass: 2
Flags: W
LayerCount: 2
Fore
SplineSet
92 514 m 128,-1,1
 92 643 92 643 140 751.5 c 128,-1,2
 188 860 188 860 268 929.5 c 128,-1,3
 348 999 348 999 448.5 1037 c 128,-1,4
 549 1075 549 1075 655 1075 c 0,5,6
 868 1075 868 1075 1008 942 c 1,7,-1
 946 819 l 1,8,9
 831 930 831 930 672 928 c 0,10,11
 566 928 566 928 475.5 882 c 128,-1,12
 385 836 385 836 325.5 741.5 c 128,-1,13
 266 647 266 647 266 520 c 0,14,15
 266 422 266 422 299 344 c 128,-1,16
 332 266 332 266 389 217 c 0,17,18
 508 123 508 123 668 123 c 0,19,20
 754 123 754 123 836 153.5 c 128,-1,21
 918 184 918 184 979 244 c 1,22,-1
 1036 115 l 1,23,24
 864 -24 864 -24 649 -25 c 0,25,26
 538 -25 538 -25 439 10 c 128,-1,27
 340 45 340 45 262 111.5 c 128,-1,28
 184 178 184 178 138 281.5 c 128,-1,0
 92 385 92 385 92 514 c 128,-1,1
EndSplineSet
EndChar

StartChar: d
Encoding: 100 100 71
Width: 1255
VWidth: 1024
GlyphClass: 2
Flags: W
LayerCount: 2
Fore
SplineSet
928 1542 m 1,0,-1
 1098 1563 l 1,1,-1
 1098 399 l 2,2,3
 1098 241 1098 241 1120.5 157.5 c 128,-1,4
 1143 74 1143 74 1188 10 c 1,5,-1
 1020 -12 l 1,6,7
 989 25 989 25 967 78 c 0,8,9
 947 131 947 131 942 180 c 1,10,11
 897 86 897 86 798 32 c 0,12,13
 697 -22 697 -22 573 -23 c 0,14,15
 356 -23 356 -23 224 123.5 c 128,-1,16
 92 270 92 270 92 512 c 0,17,18
 92 672 92 672 146.5 798 c 128,-1,19
 201 924 201 924 311.5 998.5 c 128,-1,20
 422 1073 422 1073 573 1073 c 0,21,22
 675 1073 675 1073 759.5 1042.5 c 128,-1,23
 844 1012 844 1012 928 938 c 1,24,-1
 928 1542 l 1,0,-1
930 762 m 1,25,26
 873 838 873 838 782.5 884 c 128,-1,27
 692 930 692 930 598 930 c 0,28,29
 432 930 432 930 349 816 c 128,-1,30
 266 702 266 702 266 521 c 128,-1,31
 266 340 266 340 357 229 c 0,32,33
 450 118 450 118 594 119 c 0,34,35
 684 119 684 119 749.5 151.5 c 128,-1,36
 815 184 815 184 852 242 c 0,37,38
 930 357 930 357 930 547 c 2,39,-1
 930 762 l 1,25,26
EndSplineSet
EndChar

StartChar: e
Encoding: 101 101 72
Width: 1095
VWidth: 1024
GlyphClass: 2
Flags: W
LayerCount: 2
Fore
SplineSet
92 528 m 0,0,1
 92 637 92 637 128 735.5 c 128,-1,2
 164 834 164 834 231.5 908.5 c 128,-1,3
 299 983 299 983 400.5 1028 c 128,-1,4
 502 1073 502 1073 625 1073 c 0,5,6
 789 1073 789 1073 888 987 c 128,-1,7
 987 901 987 901 987 770 c 0,8,9
 987 696 987 696 952.5 638 c 128,-1,10
 918 580 918 580 858.5 540 c 128,-1,11
 799 500 799 500 706.5 469 c 128,-1,12
 614 438 614 438 518 417.5 c 128,-1,13
 422 397 422 397 291 381 c 1,14,15
 322 266 322 266 420 192.5 c 128,-1,16
 518 119 518 119 627.5 119 c 128,-1,17
 737 119 737 119 827.5 158 c 128,-1,18
 918 197 918 197 971 258 c 1,19,-1
 1057 150 l 1,20,21
 979 70 979 70 867 24 c 0,22,23
 757 -22 757 -22 635 -23 c 0,24,25
 397 -23 397 -23 244.5 127.5 c 128,-1,26
 92 278 92 278 92 528 c 0,0,1
819 774 m 0,27,28
 819 844 819 844 768 887 c 128,-1,29
 717 930 717 930 627 930 c 0,30,31
 494 930 494 930 387 836 c 0,32,33
 338 791 338 791 307 717 c 128,-1,34
 276 643 276 643 276 553 c 0,35,36
 274 528 274 528 279 502 c 1,37,38
 603 545 603 545 721 618 c 0,39,40
 819 680 819 680 819 774 c 0,27,28
EndSplineSet
EndChar

StartChar: f
Encoding: 102 102 73
Width: 714
VWidth: 1024
GlyphClass: 2
Flags: W
LayerCount: 2
Fore
SplineSet
258 1198 m 2,0,1
 258 1393 258 1393 329 1481 c 0,2,3
 398 1569 398 1569 553 1569 c 0,4,5
 639 1569 639 1569 737 1536 c 1,6,-1
 713 1425 l 1,7,8
 641 1441 641 1441 598 1442 c 0,9,10
 508 1442 508 1442 467 1390 c 0,11,12
 426 1336 426 1336 426 1221 c 2,13,-1
 426 1051 l 1,14,-1
 680 1051 l 1,15,-1
 680 942 l 1,16,-1
 426 942 l 1,17,-1
 426 -12 l 2,18,19
 426 -213 426 -213 348 -325.5 c 128,-1,20
 270 -438 270 -438 94 -459 c 1,21,-1
 72 -336 l 1,22,23
 162 -313 162 -313 210 -236.5 c 128,-1,24
 258 -160 258 -160 258 -35 c 2,25,-1
 258 942 l 1,26,-1
 53 942 l 1,27,-1
 53 1051 l 1,28,-1
 258 1051 l 1,29,-1
 258 1198 l 2,0,1
EndSplineSet
EndChar

StartChar: g
Encoding: 103 103 74
Width: 1169
VWidth: 1024
GlyphClass: 2
Flags: W
LayerCount: 2
Fore
SplineSet
92 449 m 0,0,1
 92 732 92 732 255 902.5 c 128,-1,2
 418 1073 418 1073 682 1073 c 0,3,4
 784 1073 784 1073 885.5 1048.5 c 128,-1,5
 987 1024 987 1024 1049 985 c 1,6,-1
 1049 -25 l 2,7,8
 1049 -242 1049 -242 907.5 -374 c 128,-1,9
 766 -506 766 -506 537 -506 c 0,10,11
 365 -504 365 -504 193 -442 c 1,12,-1
 213 -287 l 1,13,14
 283 -322 283 -322 369 -343.5 c 128,-1,15
 455 -365 455 -365 524 -365 c 0,16,17
 684 -365 684 -365 782.5 -276.5 c 128,-1,18
 881 -188 881 -188 881 -45 c 2,19,-1
 881 135 l 1,20,21
 824 61 824 61 725.5 19 c 128,-1,22
 627 -23 627 -23 518 -23 c 0,23,24
 325 -23 325 -23 208.5 106.5 c 128,-1,25
 92 236 92 236 92 449 c 0,0,1
881 893 m 1,26,27
 811 930 811 930 680 930 c 0,28,29
 496 930 496 930 381 800 c 128,-1,30
 266 670 266 670 266 459 c 0,31,32
 266 307 266 307 342 213 c 128,-1,33
 418 119 418 119 545 119 c 0,34,35
 695 119 695 119 788 217 c 128,-1,36
 881 315 881 315 881 463 c 2,37,-1
 881 893 l 1,26,27
EndSplineSet
EndChar

StartChar: h
Encoding: 104 104 75
Width: 1251
VWidth: 1024
GlyphClass: 2
Flags: W
LayerCount: 2
Fore
SplineSet
156 1542 m 1,0,-1
 324 1563 l 1,1,-1
 324 897 l 1,2,3
 377 977 377 977 481.5 1025 c 128,-1,4
 586 1073 586 1073 702 1073 c 0,5,6
 882 1073 882 1073 969.5 955.5 c 128,-1,7
 1057 838 1057 838 1057 590 c 0,8,9
 1057 586 1057 586 1057 578 c 2,10,-1
 1055 328 l 2,11,12
 1055 314 1055 314 1055 256 c 0,13,14
 1053 201 1053 201 1061 172 c 0,15,16
 1073 119 1073 119 1135 119 c 0,17,18
 1151 119 1151 119 1174 123 c 1,19,-1
 1157 -20 l 1,20,21
 1118 -24 1118 -24 1085 -25 c 0,22,23
 983 -25 983 -25 940 29 c 0,24,25
 885 99 885 99 885 279 c 0,26,27
 885 285 885 285 885 291 c 2,28,-1
 889 575 l 1,29,30
 889 761 889 761 836.5 845.5 c 128,-1,31
 784 930 784 930 662.5 930 c 128,-1,32
 541 930 541 930 438 838 c 0,33,34
 387 793 387 793 355.5 717 c 128,-1,35
 324 641 324 641 324 545 c 2,36,-1
 324 0 l 1,37,-1
 156 0 l 1,38,-1
 156 1542 l 1,0,-1
EndSplineSet
EndChar

StartChar: i
Encoding: 105 105 76
Width: 616
VWidth: 1024
GlyphClass: 2
Flags: W
LayerCount: 2
Fore
SplineSet
639 27 m 1,0,1
 528 -16 528 -16 434 -16 c 0,2,3
 368 -16 368 -16 309 6.5 c 128,-1,4
 250 29 250 29 211 96.5 c 128,-1,5
 172 164 172 164 172 268 c 2,6,-1
 172 1051 l 1,7,-1
 340 1051 l 1,8,-1
 340 274 l 2,9,10
 340 163 340 163 397 129 c 0,11,12
 422 113 422 113 473 114 c 128,-1,13
 524 115 524 115 616 147 c 1,14,-1
 639 27 l 1,0,1
147 1377 m 128,-1,16
 147 1425 147 1425 180 1452 c 128,-1,17
 213 1479 213 1479 258 1479 c 128,-1,18
 303 1479 303 1479 336 1452 c 128,-1,19
 369 1425 369 1425 369 1376 c 128,-1,20
 369 1327 369 1327 336 1300.5 c 128,-1,21
 303 1274 303 1274 258 1274 c 128,-1,22
 213 1274 213 1274 180 1301.5 c 128,-1,15
 147 1329 147 1329 147 1377 c 128,-1,16
EndSplineSet
EndChar

StartChar: j
Encoding: 106 106 77
Width: 550
VWidth: 1024
GlyphClass: 2
Flags: W
LayerCount: 2
Fore
SplineSet
-147 -315 m 1,0,1
 -69 -340 -69 -340 -23 -340 c 128,-1,2
 23 -340 23 -340 64.5 -325.5 c 128,-1,3
 106 -311 106 -311 139 -272 c 128,-1,4
 172 -233 172 -233 193 -157 c 0,5,6
 213 -82 213 -82 213 29 c 2,7,-1
 213 1051 l 1,8,-1
 381 1051 l 1,9,-1
 381 37 l 2,10,11
 381 -98 381 -98 352 -201 c 0,12,13
 299 -389 299 -389 154 -446 c 0,14,15
 88 -475 88 -475 9 -475 c 128,-1,16
 -70 -475 -70 -475 -166 -446 c 1,17,-1
 -147 -315 l 1,0,1
188 1377 m 128,-1,19
 188 1425 188 1425 221 1452 c 128,-1,20
 254 1479 254 1479 299 1479 c 128,-1,21
 344 1479 344 1479 376 1452 c 128,-1,22
 408 1425 408 1425 408 1376 c 128,-1,23
 408 1327 408 1327 375 1300.5 c 128,-1,24
 342 1274 342 1274 297 1274 c 128,-1,25
 252 1274 252 1274 220 1301.5 c 128,-1,18
 188 1329 188 1329 188 1377 c 128,-1,19
EndSplineSet
EndChar

StartChar: k
Encoding: 107 107 78
Width: 1132
VWidth: 1024
GlyphClass: 2
Flags: W
LayerCount: 2
Fore
SplineSet
156 1532 m 1,0,-1
 324 1563 l 1,1,-1
 324 299 l 1,2,-1
 852 1051 l 1,3,-1
 1004 999 l 1,4,-1
 711 594 l 1,5,-1
 913 276 l 2,6,7
 1032 90 1032 90 1180 90 c 0,8,9
 1180 90 l 2,10,-1
 1090 -37 l 1,11,12
 1004 -21 1004 -21 922 36.5 c 128,-1,13
 840 94 840 94 782 193 c 2,14,-1
 616 469 l 1,15,-1
 303 29 l 1,16,17
 268 -16 268 -16 223 -16 c 0,18,19
 198 -16 198 -16 177 2 c 128,-1,20
 156 20 156 20 156 61 c 2,21,-1
 156 1532 l 1,0,-1
EndSplineSet
EndChar

StartChar: l
Encoding: 108 108 79
Width: 702
VWidth: 1024
GlyphClass: 2
Flags: W
LayerCount: 2
Fore
SplineSet
737 37 m 1,0,1
 614 -16 614 -16 496 -16 c 0,2,3
 416 -16 416 -16 343 10.5 c 128,-1,4
 270 37 270 37 221 115 c 128,-1,5
 172 193 172 193 172 307 c 2,6,-1
 172 1532 l 1,7,-1
 340 1563 l 1,8,-1
 340 299 l 2,9,10
 340 221 340 221 373 176 c 128,-1,11
 406 131 406 131 459 119 c 0,12,13
 488 111 488 111 520 111 c 0,14,15
 606 111 606 111 713 156 c 1,16,-1
 737 37 l 1,0,1
EndSplineSet
EndChar

StartChar: m
Encoding: 109 109 80
Width: 2011
VWidth: 1024
GlyphClass: 2
Flags: W
LayerCount: 2
Fore
SplineSet
86 997 m 1,0,-1
 254 1051 l 1,1,2
 324 947 324 947 336 872 c 1,3,4
 381 962 381 962 491.5 1017.5 c 128,-1,5
 602 1073 602 1073 729 1073 c 0,6,7
 981 1073 981 1073 1053 840 c 1,8,-1
 1065 862 l 1,9,10
 1108 956 1108 956 1219.5 1014.5 c 128,-1,11
 1331 1073 1331 1073 1462 1073 c 0,12,13
 1642 1073 1642 1073 1729.5 955.5 c 128,-1,14
 1817 838 1817 838 1817 590 c 0,15,16
 1817 586 1817 586 1817 578 c 2,17,-1
 1815 328 l 2,18,19
 1815 314 1815 314 1815 256 c 0,20,21
 1815 201 1815 201 1823 172 c 0,22,23
 1835 119 1835 119 1894 119 c 0,24,25
 1910 119 1910 119 1933 123 c 1,26,-1
 1917 -20 l 1,27,28
 1876 -24 1876 -24 1843 -25 c 0,29,30
 1741 -25 1741 -25 1700 29 c 0,31,32
 1647 99 1647 99 1647 279 c 0,33,34
 1647 285 1647 285 1647 291 c 2,35,-1
 1647 575 l 1,36,37
 1647 761 1647 761 1595.5 845.5 c 128,-1,38
 1544 930 1544 930 1423.5 930 c 128,-1,39
 1303 930 1303 930 1196 838 c 0,40,41
 1145 793 1145 793 1114 717 c 0,42,43
 1083 639 1083 639 1083 545 c 2,44,-1
 1081 0 l 1,45,-1
 913 0 l 1,46,-1
 913 575 l 2,47,48
 913 761 913 761 862 845.5 c 128,-1,49
 811 930 811 930 692 930 c 128,-1,50
 573 930 573 930 473 846 c 0,51,52
 424 805 424 805 390 736.5 c 128,-1,53
 356 668 356 668 352 578 c 1,54,-1
 352 0 l 1,55,-1
 184 0 l 1,56,-1
 184 717 l 2,57,58
 184 772 184 772 168 826.5 c 128,-1,59
 152 881 152 881 135.5 912.5 c 128,-1,60
 119 944 119 944 86 997 c 1,0,-1
EndSplineSet
EndChar

StartChar: n
Encoding: 110 110 81
Width: 1277
VWidth: 1024
GlyphClass: 2
Flags: W
LayerCount: 2
Fore
SplineSet
86 997 m 1,0,-1
 254 1051 l 1,1,2
 324 947 324 947 336 872 c 1,3,4
 381 962 381 962 491.5 1017.5 c 128,-1,5
 602 1073 602 1073 729 1073 c 0,6,7
 909 1073 909 1073 996 955.5 c 128,-1,8
 1083 838 1083 838 1083 590 c 0,9,10
 1083 586 1083 586 1083 578 c 2,11,-1
 1081 328 l 2,12,13
 1081 314 1081 314 1081 256 c 0,14,15
 1081 201 1081 201 1090 172 c 0,16,17
 1102 119 1102 119 1161 119 c 0,18,19
 1177 119 1177 119 1200 123 c 1,20,-1
 1184 -20 l 1,21,22
 1143 -24 1143 -24 1110 -25 c 0,23,24
 1008 -25 1008 -25 967 29 c 0,25,26
 914 99 914 99 913 279 c 0,27,28
 913 285 913 285 913 291 c 2,29,-1
 913 575 l 1,30,31
 913 761 913 761 862 845.5 c 128,-1,32
 811 930 811 930 692 930 c 128,-1,33
 573 930 573 930 473 846 c 0,34,35
 424 805 424 805 390 736.5 c 128,-1,36
 356 668 356 668 352 578 c 1,37,-1
 352 0 l 1,38,-1
 184 0 l 1,39,-1
 184 717 l 2,40,41
 184 772 184 772 168 826.5 c 128,-1,42
 152 881 152 881 135.5 912.5 c 128,-1,43
 119 944 119 944 86 997 c 1,0,-1
EndSplineSet
EndChar

StartChar: o
Encoding: 111 111 82
Width: 1259
VWidth: 1024
GlyphClass: 2
Flags: W
LayerCount: 2
Fore
SplineSet
243.5 128 m 128,-1,1
 94 279 94 279 94 524.5 c 128,-1,2
 94 770 94 770 243.5 921.5 c 128,-1,3
 393 1073 393 1073 635 1073 c 128,-1,4
 877 1073 877 1073 1023 922.5 c 128,-1,5
 1169 772 1169 772 1169 525.5 c 128,-1,6
 1169 279 1169 279 1023 128 c 128,-1,7
 877 -23 877 -23 635 -23 c 128,-1,0
 393 -23 393 -23 243.5 128 c 128,-1,1
897 229.5 m 128,-1,9
 995 340 995 340 995 523.5 c 128,-1,10
 995 707 995 707 897 818.5 c 128,-1,11
 799 930 799 930 635 930 c 128,-1,12
 471 930 471 930 369.5 817.5 c 128,-1,13
 268 705 268 705 268 522.5 c 128,-1,14
 268 340 268 340 369.5 229.5 c 128,-1,15
 471 119 471 119 635 119 c 128,-1,8
 799 119 799 119 897 229.5 c 128,-1,9
EndSplineSet
EndChar

StartChar: p
Encoding: 112 112 83
Width: 1282
VWidth: 1024
GlyphClass: 2
Flags: W
LayerCount: 2
Fore
SplineSet
324 860 m 1,0,1
 379 958 379 958 486.5 1015.5 c 128,-1,2
 594 1073 594 1073 721 1073 c 0,3,4
 942 1073 942 1073 1065 932 c 128,-1,5
 1188 791 1188 791 1188 532.5 c 128,-1,6
 1188 274 1188 274 1062 125.5 c 128,-1,7
 936 -23 936 -23 711 -23 c 0,8,9
 600 -23 600 -23 500.5 9 c 128,-1,10
 401 41 401 41 344 98 c 1,11,-1
 344 -451 l 1,12,-1
 176 -467 l 1,13,-1
 176 735 l 2,14,15
 176 870 176 870 84 971 c 1,16,-1
 225 1051 l 1,17,18
 312 987 312 987 324 860 c 1,0,1
929 228.5 m 128,-1,20
 1016 338 1016 338 1016 529.5 c 128,-1,21
 1016 721 1016 721 936 825.5 c 128,-1,22
 856 930 856 930 713 930 c 0,23,24
 545 930 545 930 444.5 801 c 128,-1,25
 344 672 344 672 344 444 c 2,26,-1
 344 274 l 1,27,28
 397 200 397 200 489.5 159.5 c 128,-1,29
 582 119 582 119 686 119 c 0,30,19
 842 119 842 119 929 228.5 c 128,-1,20
EndSplineSet
EndChar

StartChar: q
Encoding: 113 113 84
Width: 1269
VWidth: 1024
GlyphClass: 2
Flags: W
LayerCount: 2
Fore
SplineSet
225 128 m 128,-1,1
 94 279 94 279 94 520.5 c 128,-1,2
 94 762 94 762 229.5 917.5 c 128,-1,3
 365 1073 365 1073 598 1073 c 0,4,5
 733 1073 733 1073 808 1032 c 0,6,7
 881 991 881 991 930 909 c 1,8,-1
 946 1051 l 1,9,-1
 1118 1051 l 1,10,11
 1098 926 1098 926 1098 831 c 2,12,-1
 1098 -365 l 1,13,-1
 1356 -225 l 1,14,-1
 1430 -352 l 1,15,16
 1172 -491 1172 -491 1049 -553 c 1,17,-1
 930 -436 l 1,18,-1
 930 131 l 1,19,20
 803 -23 803 -23 579.5 -23 c 128,-1,0
 356 -23 356 -23 225 128 c 128,-1,1
930 557 m 2,21,22
 930 729 930 729 847 829.5 c 128,-1,23
 764 930 764 930 599 930 c 128,-1,24
 434 930 434 930 351 817.5 c 128,-1,25
 268 705 268 705 268 522.5 c 128,-1,26
 268 340 268 340 353 229.5 c 128,-1,27
 438 119 438 119 602 119 c 0,28,29
 700 119 700 119 794.5 177.5 c 128,-1,30
 889 236 889 236 930 309 c 1,31,-1
 930 557 l 2,21,22
EndSplineSet
EndChar

StartChar: r
Encoding: 114 114 85
Width: 811
VWidth: 1024
GlyphClass: 2
Flags: W
LayerCount: 2
Fore
SplineSet
92 997 m 1,0,-1
 262 1051 l 1,1,2
 332 942 332 942 342 874 c 1,3,4
 387 960 387 960 466 1016.5 c 128,-1,5
 545 1073 545 1073 634 1073 c 128,-1,6
 723 1073 723 1073 797 1053 c 1,7,-1
 782 905 l 1,8,9
 712 930 712 930 635 930 c 0,10,11
 516 930 516 930 436 842 c 128,-1,12
 356 754 356 754 356 582 c 2,13,-1
 356 0 l 1,14,-1
 188 0 l 1,15,-1
 188 717 l 2,16,17
 188 772 188 772 172 826.5 c 128,-1,18
 156 881 156 881 140.5 912.5 c 128,-1,19
 125 944 125 944 92 997 c 1,0,-1
EndSplineSet
EndChar

StartChar: s
Encoding: 115 115 86
Width: 917
VWidth: 1024
GlyphClass: 2
Flags: W
LayerCount: 2
Fore
SplineSet
115 786 m 0,0,1
 115 919 115 919 209 996 c 128,-1,2
 303 1073 303 1073 469 1073 c 128,-1,3
 635 1073 635 1073 795 991 c 1,4,-1
 750 852 l 1,5,6
 607 930 607 930 471 930 c 0,7,8
 381 930 381 930 330 894 c 128,-1,9
 279 858 279 858 279 795 c 0,10,11
 279 721 279 721 389 666 c 0,12,13
 438 641 438 641 498.5 615.5 c 128,-1,14
 559 590 559 590 617.5 559 c 128,-1,15
 676 528 676 528 725 491.5 c 128,-1,16
 774 455 774 455 802.5 403.5 c 128,-1,17
 831 352 831 352 831 291 c 0,18,19
 831 150 831 150 733 63.5 c 128,-1,20
 635 -23 635 -23 475 -23 c 0,21,22
 282 -21 282 -21 111 74 c 1,23,-1
 162 217 l 1,24,25
 219 172 219 172 302 145.5 c 128,-1,26
 385 119 385 119 469 119 c 128,-1,27
 553 119 553 119 610.5 156 c 128,-1,28
 668 193 668 193 668 266 c 0,29,30
 668 309 668 309 637 345 c 128,-1,31
 606 381 606 381 557 407.5 c 128,-1,32
 508 434 508 434 448.5 458.5 c 128,-1,33
 389 483 389 483 329.5 514 c 128,-1,34
 270 545 270 545 221 579.5 c 128,-1,35
 172 614 172 614 143.5 667 c 128,-1,36
 115 720 115 720 115 786 c 0,0,1
EndSplineSet
EndChar

StartChar: t
Encoding: 116 116 87
Width: 839
VWidth: 1024
GlyphClass: 2
Flags: W
LayerCount: 2
Fore
SplineSet
238 1329 m 1,0,-1
 401 1376 l 1,1,-1
 401 1051 l 1,2,-1
 745 1051 l 1,3,-1
 745 942 l 1,4,-1
 401 942 l 1,5,-1
 401 305 l 2,6,7
 401 209 401 209 446.5 166 c 128,-1,8
 492 123 492 123 594 123 c 0,9,10
 629 123 629 123 691.5 135 c 128,-1,11
 754 147 754 147 791 162 c 1,12,-1
 811 37 l 1,13,14
 762 21 762 21 689 6.5 c 128,-1,15
 616 -8 616 -8 573 -8 c 0,16,17
 395 -8 395 -8 314 66.5 c 128,-1,18
 233 141 233 141 233 307 c 2,19,-1
 233 942 l 1,20,-1
 25 942 l 1,21,-1
 25 1051 l 1,22,-1
 238 1051 l 1,23,-1
 238 1329 l 1,0,-1
EndSplineSet
EndChar

StartChar: u
Encoding: 117 117 88
Width: 1226
VWidth: 1024
GlyphClass: 2
Flags: W
LayerCount: 2
Fore
SplineSet
870 1051 m 1,0,-1
 1038 1051 l 1,1,-1
 1038 309 l 2,2,3
 1036 200 1036 200 1073 162 c 0,4,5
 1098 133 1098 133 1143 133 c 0,6,7
 1163 135 1163 135 1184 139 c 1,8,-1
 1167 -4 l 1,9,10
 1130 -12 1130 -12 1098 -10 c 0,11,12
 1028 -10 1028 -10 977 23 c 1,13,14
 905 72 905 72 897 168 c 1,15,16
 778 -22 778 -22 535 -23 c 0,17,18
 375 -23 375 -23 264 66 c 0,19,20
 207 111 207 111 177 186.5 c 128,-1,21
 147 262 147 262 147 356 c 0,22,23
 147 364 147 364 147 373 c 2,24,-1
 156 596 l 2,25,26
 156 629 156 629 156 672 c 0,27,28
 156 797 156 797 137.5 890 c 128,-1,29
 119 983 119 983 102 1012 c 2,30,-1
 94 1024 l 1,31,-1
 262 1051 l 1,32,33
 270 1045 270 1045 285 1004 c 0,34,35
 324 881 324 881 324 676 c 0,36,37
 324 643 324 643 324 610 c 2,38,-1
 317 373 l 2,39,40
 317 367 317 367 317 362 c 0,41,42
 317 233 317 233 385 176 c 0,43,44
 455 119 455 119 561 119 c 0,45,46
 692 119 692 119 781 205 c 128,-1,47
 870 291 870 291 870 438 c 2,48,-1
 870 1051 l 1,0,-1
EndSplineSet
EndChar

StartChar: v
Encoding: 118 118 89
Width: 1087
VWidth: 1024
GlyphClass: 2
Flags: W
LayerCount: 2
Fore
SplineSet
889 1051 m 1,0,-1
 1071 1051 l 1,1,-1
 627 0 l 1,2,-1
 455 0 l 1,3,-1
 16 1051 l 1,4,-1
 203 1051 l 1,5,-1
 492 344 l 2,6,7
 517 287 517 287 549 168 c 1,8,9
 598 324 598 324 606 344 c 2,10,-1
 889 1051 l 1,0,-1
EndSplineSet
EndChar

StartChar: w
Encoding: 119 119 90
Width: 1728
VWidth: 1024
GlyphClass: 2
Flags: W
LayerCount: 2
Fore
SplineSet
1528 1051 m 1,0,-1
 1702 1051 l 1,1,-1
 1325 0 l 1,2,-1
 1161 0 l 1,3,-1
 872 852 l 1,4,-1
 565 0 l 1,5,-1
 401 0 l 1,6,-1
 27 1051 l 1,7,-1
 207 1051 l 1,8,-1
 463 291 l 2,9,10
 475 254 475 254 492 190 c 1,11,12
 494 196 494 196 505 231 c 128,-1,13
 516 266 516 266 524 283 c 1,14,-1
 795 1051 l 1,15,-1
 965 1051 l 1,16,-1
 1219 293 l 2,17,18
 1223 277 1223 277 1233 243 c 0,19,20
 1245 209 1245 209 1249 193 c 1,21,22
 1257 209 1257 209 1267.5 246 c 128,-1,23
 1278 283 1278 283 1282 295 c 1,24,-1
 1528 1051 l 1,0,-1
EndSplineSet
EndChar

StartChar: x
Encoding: 120 120 91
Width: 1112
VWidth: 1024
GlyphClass: 2
Flags: W
LayerCount: 2
Fore
SplineSet
868 1051 m 1,0,-1
 1051 1051 l 1,1,-1
 664 530 l 1,2,-1
 1065 0 l 1,3,-1
 858 0 l 1,4,-1
 555 418 l 1,5,-1
 244 0 l 1,6,-1
 49 0 l 1,7,-1
 459 526 l 1,8,-1
 70 1051 l 1,9,-1
 276 1051 l 1,10,-1
 571 641 l 1,11,-1
 868 1051 l 1,0,-1
EndSplineSet
EndChar

StartChar: y
Encoding: 121 121 92
Width: 1214
VWidth: 1024
GlyphClass: 2
Flags: W
LayerCount: 2
Fore
SplineSet
883 1051 m 1,0,-1
 1051 1051 l 1,1,-1
 1051 -25 l 2,2,3
 1051 -242 1051 -242 910.5 -374 c 128,-1,4
 770 -506 770 -506 541 -506 c 0,5,6
 369 -504 369 -504 197 -442 c 1,7,-1
 215 -287 l 1,8,9
 285 -322 285 -322 371 -343 c 0,10,11
 455 -365 455 -365 524 -365 c 0,12,13
 684 -365 684 -365 783.5 -276.5 c 128,-1,14
 883 -188 883 -188 883 -45 c 2,15,-1
 883 131 l 1,16,17
 764 -23 764 -23 547 -23 c 0,18,19
 387 -23 387 -23 276 66 c 0,20,21
 219 111 219 111 189.5 186.5 c 128,-1,22
 160 262 160 262 160 356 c 0,23,24
 160 364 160 364 160 373 c 2,25,-1
 168 596 l 2,26,27
 168 629 168 629 168 672 c 0,28,29
 168 797 168 797 149.5 890 c 128,-1,30
 131 983 131 983 115 1012 c 2,31,-1
 106 1024 l 1,32,-1
 274 1051 l 1,33,34
 282 1045 282 1045 297 1004 c 0,35,36
 336 881 336 881 336 676 c 0,37,38
 336 643 336 643 336 610 c 2,39,-1
 330 373 l 2,40,41
 330 367 330 367 330 362 c 0,42,43
 330 233 330 233 397 176 c 0,44,45
 467 119 467 119 573 119 c 0,46,47
 704 119 704 119 793.5 205 c 128,-1,48
 883 291 883 291 883 438 c 2,49,-1
 883 1051 l 1,0,-1
EndSplineSet
EndChar

StartChar: z
Encoding: 122 122 93
Width: 1001
VWidth: 1024
GlyphClass: 2
Flags: W
LayerCount: 2
Fore
SplineSet
109 1051 m 1,0,-1
 926 1051 l 1,1,-1
 926 963 l 1,2,-1
 311 137 l 1,3,-1
 942 137 l 1,4,-1
 942 0 l 1,5,-1
 82 0 l 1,6,-1
 82 90 l 1,7,-1
 696 913 l 1,8,-1
 109 913 l 1,9,-1
 109 1051 l 1,0,-1
EndSplineSet
EndChar

StartChar: braceleft
Encoding: 123 123 94
Width: 641
VWidth: 1024
GlyphClass: 2
Flags: W
LayerCount: 2
Fore
SplineSet
250 958 m 2,0,-1
 250 1247 l 2,1,2
 250 1509 250 1509 580 1524 c 1,3,-1
 580 1395 l 1,4,5
 478 1395 478 1395 446 1340.5 c 128,-1,6
 414 1286 414 1286 414 1149 c 1,7,-1
 414 905 l 2,8,9
 414 823 414 823 402.5 784 c 128,-1,10
 391 745 391 745 373 725 c 0,11,12
 328 676 328 676 238 631 c 1,13,14
 299 600 299 600 336 572.5 c 128,-1,15
 373 545 373 545 389.5 509 c 128,-1,16
 406 473 406 473 410 441.5 c 128,-1,17
 414 410 414 410 414 352 c 2,18,-1
 414 111 l 1,19,20
 414 -28 414 -28 445.5 -81.5 c 128,-1,21
 477 -135 477 -135 580 -135 c 1,22,-1
 580 -266 l 1,23,24
 433 -260 433 -260 341.5 -197.5 c 128,-1,25
 250 -135 250 -135 250 12 c 2,26,-1
 250 301 l 2,27,28
 250 399 250 399 237 443 c 0,29,30
 222 487 222 487 205 510 c 0,31,32
 166 559 166 559 90 567 c 1,33,-1
 90 567 l 1,34,-1
 88 565 l 1,35,-1
 88 692 l 1,36,-1
 90 692 l 1,37,-1
 90 692 l 1,38,39
 203 704 203 704 233 803 c 0,40,41
 250 860 250 860 250 958 c 2,0,-1
EndSplineSet
EndChar

StartChar: bar
Encoding: 124 124 95
Width: 512
VWidth: 1024
GlyphClass: 2
Flags: W
LayerCount: 2
Fore
SplineSet
172 -504 m 1,0,-1
 172 1581 l 1,1,-1
 332 1581 l 1,2,-1
 332 -504 l 1,3,-1
 172 -504 l 1,0,-1
EndSplineSet
EndChar

StartChar: braceright
Encoding: 125 125 96
Width: 641
VWidth: 1024
GlyphClass: 2
Flags: W
LayerCount: 2
Fore
SplineSet
88 1524 m 1,0,1
 418 1510 418 1510 418 1247 c 2,2,-1
 418 958 l 2,3,4
 418 860 418 860 431 815 c 0,5,6
 446 770 446 770 463 748 c 0,7,8
 502 701 502 701 578 692 c 1,9,-1
 578 692 l 1,10,-1
 580 692 l 1,11,-1
 580 565 l 1,12,-1
 578 567 l 1,13,-1
 578 567 l 1,14,15
 465 555 465 555 434 455 c 0,16,17
 418 402 418 402 418 301 c 2,18,-1
 418 12 l 2,19,20
 418 -133 418 -133 328 -195.5 c 128,-1,21
 238 -258 238 -258 88 -266 c 1,22,-1
 88 -135 l 1,23,24
 190 -135 190 -135 222 -82 c 128,-1,25
 254 -29 254 -29 254 111 c 1,26,-1
 254 352 l 2,27,28
 254 434 254 434 265 473 c 128,-1,29
 276 512 276 512 295 535 c 0,30,31
 340 584 340 584 430 629 c 1,32,33
 369 660 369 660 332 687.5 c 128,-1,34
 295 715 295 715 278.5 750.5 c 128,-1,35
 262 786 262 786 258 817 c 128,-1,36
 254 848 254 848 254 905 c 2,37,-1
 254 1149 l 1,38,39
 254 1288 254 1288 222 1341.5 c 128,-1,40
 190 1395 190 1395 88 1395 c 1,41,-1
 88 1524 l 1,0,1
EndSplineSet
EndChar

StartChar: asciitilde
Encoding: 126 126 97
Width: 1492
VWidth: 1024
GlyphClass: 2
Flags: W
LayerCount: 2
Fore
SplineSet
311 393 m 1,0,-1
 193 451 l 1,1,2
 211 537 211 537 261 602.5 c 128,-1,3
 311 668 311 668 385 700 c 0,4,5
 436 723 436 723 500.5 722 c 128,-1,6
 565 721 565 721 674 680 c 0,7,8
 711 664 711 664 794 625 c 128,-1,9
 877 586 877 586 915.5 571.5 c 128,-1,10
 954 557 954 557 979 557 c 0,11,12
 1049 557 1049 557 1095 612 c 0,13,14
 1143 667 1143 667 1159 741 c 1,15,-1
 1286 700 l 1,16,17
 1237 503 1237 503 1090 440 c 0,18,19
 1041 420 1041 420 983.5 420 c 128,-1,20
 926 420 926 420 829 463 c 0,21,22
 806 475 806 475 725 512 c 0,23,24
 575 584 575 584 501.5 585 c 128,-1,25
 428 586 428 586 378.5 528.5 c 128,-1,26
 329 471 329 471 311 393 c 1,0,-1
EndSplineSet
EndChar

StartChar: exclamdown
Encoding: 161 161 99
Width: 753
VWidth: 1024
GlyphClass: 2
Flags: W
LayerCount: 2
Fore
SplineSet
311 1102 m 1,0,-1
 401 1102 l 1,1,-1
 451 -6 l 1,2,-1
 260 -6 l 1,3,-1
 311 1102 l 1,0,-1
276.5 1458 m 128,-1,5
 307 1491 307 1491 356.5 1491 c 128,-1,6
 406 1491 406 1491 441.5 1460.5 c 128,-1,7
 477 1430 477 1430 477 1379.5 c 128,-1,8
 477 1329 477 1329 446.5 1295.5 c 128,-1,9
 416 1262 416 1262 365.5 1262 c 128,-1,10
 315 1262 315 1262 280.5 1293.5 c 128,-1,11
 246 1325 246 1325 246 1375 c 128,-1,4
 246 1425 246 1425 276.5 1458 c 128,-1,5
EndSplineSet
EndChar

StartChar: cent
Encoding: 162 162 100
Width: 1216
VWidth: 1024
GlyphClass: 2
Flags: W
LayerCount: 2
Fore
SplineSet
565 926 m 1,0,1
 426 903 426 903 350 793.5 c 128,-1,2
 274 684 274 684 274 518 c 128,-1,3
 274 352 274 352 353 249 c 0,4,5
 430 146 430 146 565 125 c 1,6,-1
 565 926 l 1,0,1
565 -242 m 1,7,-1
 565 -20 l 1,8,9
 358 0 358 0 227 147.5 c 128,-1,10
 96 295 96 295 96 522.5 c 128,-1,11
 96 750 96 750 222 902 c 0,12,13
 348 1053 348 1053 565 1073 c 1,14,-1
 565 1311 l 1,15,-1
 682 1311 l 1,16,-1
 682 1073 l 1,17,18
 889 1057 889 1057 983 934 c 1,19,-1
 905 819 l 1,20,21
 829 913 829 913 682 930 c 1,22,-1
 682 123 l 1,23,24
 829 139 829 139 963 229 c 1,25,-1
 999 90 l 1,26,27
 845 -4 845 -4 682 -20 c 1,28,-1
 682 -242 l 1,29,-1
 565 -242 l 1,7,-1
EndSplineSet
EndChar

StartChar: sterling
Encoding: 163 163 101
Width: 1216
VWidth: 1024
GlyphClass: 2
Flags: W
LayerCount: 2
Fore
SplineSet
119 0 m 1,0,-1
 117 141 l 1,1,2
 258 225 258 225 291 340 c 0,3,4
 303 389 303 389 303 451 c 2,5,-1
 303 707 l 1,6,-1
 117 707 l 1,7,-1
 117 852 l 1,8,-1
 303 852 l 1,9,10
 301 872 301 872 301 881 c 0,11,12
 301 996 301 996 312.5 1082.5 c 128,-1,13
 324 1169 324 1169 354 1247 c 0,14,15
 385 1327 385 1327 436 1376 c 0,16,17
 542 1482 542 1482 756.5 1482.5 c 128,-1,18
 971 1483 971 1483 1087 1389 c 1,19,-1
 1034 1266 l 1,20,21
 917 1338 917 1338 759.5 1338.5 c 128,-1,22
 602 1339 602 1339 538.5 1241 c 128,-1,23
 475 1143 475 1143 475 971 c 1,24,-1
 477 852 l 1,25,-1
 817 852 l 1,26,-1
 817 707 l 1,27,-1
 479 707 l 1,28,-1
 479 655 l 2,29,30
 479 546 479 546 477 482 c 128,-1,31
 475 418 475 418 461 336 c 0,32,33
 438 193 438 193 379 143 c 1,34,-1
 1106 143 l 1,35,-1
 1106 0 l 1,36,-1
 119 0 l 1,0,-1
EndSplineSet
EndChar

StartChar: currency
Encoding: 164 164 102
Width: 1267
VWidth: 1024
GlyphClass: 2
Flags: W
LayerCount: 2
Fore
SplineSet
578 360 m 128,-1,1
 707 360 707 360 796 450.5 c 128,-1,2
 885 541 885 541 885 670 c 128,-1,3
 885 799 885 799 799 893 c 128,-1,4
 713 987 713 987 584 987 c 128,-1,5
 455 987 455 987 362.5 895 c 128,-1,6
 270 803 270 803 270 674 c 128,-1,7
 270 545 270 545 359.5 452.5 c 128,-1,0
 449 360 449 360 578 360 c 128,-1,1
879 938 m 1,8,9
 981 825 981 825 980 676.5 c 128,-1,10
 979 528 979 528 885 418 c 1,11,-1
 1057 252 l 1,12,-1
 1018 215 l 1,13,-1
 848 381 l 1,14,15
 735 283 735 283 587 282 c 0,16,17
 439 283 439 283 328 373 c 1,18,-1
 160 201 l 1,19,-1
 123 238 l 1,20,-1
 287 408 l 1,21,22
 178 523 178 523 179 670 c 128,-1,23
 180 817 180 817 274 930 c 1,24,-1
 109 1090 l 1,25,-1
 147 1130 l 1,26,-1
 315 971 l 1,27,28
 432 1073 432 1073 578.5 1073 c 128,-1,29
 725 1073 725 1073 838 979 c 1,30,-1
 999 1147 l 1,31,-1
 1040 1106 l 1,32,-1
 879 938 l 1,8,9
EndSplineSet
EndChar

StartChar: yen
Encoding: 165 165 103
Width: 1296
VWidth: 1024
GlyphClass: 2
Flags: W
LayerCount: 2
Fore
SplineSet
1085 1491 m 1,0,-1
 1282 1491 l 1,1,-1
 811 733 l 1,2,-1
 1126 733 l 1,3,-1
 1126 588 l 1,4,-1
 725 588 l 1,5,-1
 725 434 l 1,6,-1
 1128 434 l 1,7,-1
 1128 291 l 1,8,-1
 725 291 l 1,9,-1
 725 0 l 1,10,-1
 549 0 l 1,11,-1
 549 291 l 1,12,-1
 152 291 l 1,13,-1
 152 434 l 1,14,-1
 549 434 l 1,15,-1
 549 588 l 1,16,-1
 143 588 l 1,17,-1
 143 733 l 1,18,-1
 467 733 l 1,19,-1
 4 1491 l 1,20,-1
 201 1491 l 1,21,-1
 641 745 l 1,22,-1
 1085 1491 l 1,0,-1
EndSplineSet
EndChar

StartChar: brokenbar
Encoding: 166 166 104
Width: 512
VWidth: 1024
GlyphClass: 2
Flags: W
LayerCount: 2
Fore
SplineSet
172 -504 m 1,0,-1
 172 401 l 1,1,-1
 332 401 l 1,2,-1
 332 -504 l 1,3,-1
 172 -504 l 1,0,-1
172 692 m 1,4,-1
 172 1581 l 1,5,-1
 332 1581 l 1,6,-1
 332 692 l 1,7,-1
 172 692 l 1,4,-1
EndSplineSet
EndChar

StartChar: section
Encoding: 167 167 105
Width: 1122
VWidth: 1024
GlyphClass: 2
Flags: W
LayerCount: 2
Fore
SplineSet
494 -49 m 0,0,1
 347 -49 347 -49 217 4 c 1,2,-1
 215 156 l 1,3,4
 360 90 360 90 487 90 c 0,5,6
 567 90 567 90 627.5 114.5 c 128,-1,7
 688 139 688 139 717 186 c 0,8,9
 733 215 733 215 733 246 c 0,10,11
 733 307 733 307 695 337 c 128,-1,12
 657 367 657 367 615 385 c 128,-1,13
 573 403 573 403 516 428 c 2,14,-1
 430 465 l 2,15,16
 348 500 348 500 290.5 545 c 128,-1,17
 233 590 233 590 207 655 c 0,18,19
 189 696 189 696 188 745 c 0,20,21
 188 901 188 901 383 999 c 1,22,23
 307 1044 307 1044 266 1099.5 c 128,-1,24
 225 1155 225 1155 225 1237 c 0,25,26
 225 1393 225 1393 346 1464 c 0,27,28
 459 1527 459 1527 618 1528 c 0,29,30
 704 1528 704 1528 776 1509 c 0,31,32
 805 1501 805 1501 852 1487 c 1,33,-1
 854 1335 l 1,34,35
 739 1388 739 1388 623 1389 c 0,36,37
 402 1389 402 1389 401 1249 c 0,38,39
 401 1192 401 1192 432 1160 c 128,-1,40
 463 1128 463 1128 506 1104.5 c 128,-1,41
 549 1081 549 1081 650.5 1036 c 128,-1,42
 752 991 752 991 812 950 c 128,-1,43
 872 909 872 909 903 858 c 128,-1,44
 934 807 934 807 934 758 c 0,45,46
 934 660 934 660 868 590 c 0,47,48
 819 537 819 537 741 492 c 1,49,50
 790 467 790 467 825 440.5 c 128,-1,51
 860 414 860 414 884.5 366.5 c 128,-1,52
 909 319 909 319 909 258 c 0,53,54
 909 119 909 119 782 31 c 0,55,56
 668 -49 668 -49 494 -49 c 0,0,1
606 561 m 1,57,58
 708 627 708 627 737 684 c 0,59,60
 749 709 749 709 749.5 742.5 c 128,-1,61
 750 776 750 776 733.5 803.5 c 128,-1,62
 717 831 717 831 687 849.5 c 128,-1,63
 657 868 657 868 628.5 881.5 c 128,-1,64
 600 895 600 895 562 909.5 c 128,-1,65
 524 924 524 924 508 934 c 1,66,67
 447 901 447 901 409 860 c 128,-1,68
 371 819 371 819 371 756.5 c 128,-1,69
 371 694 371 694 413 660.5 c 128,-1,70
 455 627 455 627 500 606.5 c 128,-1,71
 545 586 545 586 606 561 c 1,57,58
EndSplineSet
EndChar

StartChar: dieresis
Encoding: 168 168 106
Width: 759
VWidth: 1024
GlyphClass: 2
Flags: W
LayerCount: 2
Fore
SplineSet
123 1212 m 1,0,-1
 123 1378 l 1,1,-1
 291 1378 l 1,2,-1
 291 1212 l 1,3,-1
 123 1212 l 1,0,-1
463 1212 m 1,4,-1
 463 1378 l 1,5,-1
 631 1378 l 1,6,-1
 631 1212 l 1,7,-1
 463 1212 l 1,4,-1
EndSplineSet
EndChar

StartChar: copyright
Encoding: 169 169 107
Width: 1871
VWidth: 1024
GlyphClass: 2
Flags: W
LayerCount: 2
Fore
SplineSet
1278 348 m 1,0,1
 1147 256 1147 256 972 255 c 128,-1,2
 797 254 797 254 679 338 c 128,-1,3
 561 422 561 422 508 555 c 0,4,5
 471 643 471 643 471 745 c 0,6,7
 471 913 471 913 552 1030 c 128,-1,8
 633 1147 633 1147 768 1200 c 0,9,10
 860 1237 860 1237 975 1237 c 0,11,12
 1151 1237 1151 1237 1274 1130 c 1,13,-1
 1243 1008 l 1,14,15
 1130 1106 1130 1106 967 1106 c 0,16,17
 848 1106 848 1106 768 1046.5 c 128,-1,18
 688 987 688 987 651 889 c 0,19,20
 626 823 626 823 627 750 c 0,21,22
 627 627 627 627 683 543 c 128,-1,23
 739 459 739 459 836 418 c 0,24,25
 908 389 908 389 995 389 c 0,26,27
 1138 389 1138 389 1239 471 c 1,28,-1
 1278 348 l 1,0,1
1515.5 196.5 m 128,-1,30
 1274 -33 1274 -33 933 -33 c 128,-1,31
 592 -33 592 -33 348 197 c 0,32,33
 196 340 196 340 135 539 c 0,34,35
 106 639 106 639 106 743 c 0,36,37
 106 1058 106 1058 349 1289 c 128,-1,38
 592 1520 592 1520 931 1520 c 128,-1,39
 1270 1520 1270 1520 1516 1288 c 0,40,41
 1670 1145 1670 1145 1729 946 c 0,42,43
 1758 844 1758 844 1757 741 c 0,44,29
 1757 426 1757 426 1515.5 196.5 c 128,-1,30
655 137 m 128,-1,46
 782 86 782 86 933.5 86 c 128,-1,47
 1085 86 1085 86 1211 138 c 128,-1,48
 1337 190 1337 190 1428.5 275 c 128,-1,49
 1520 360 1520 360 1574 479 c 128,-1,50
 1628 598 1628 598 1628 741 c 0,51,52
 1628 1020 1628 1020 1427 1208 c 0,53,54
 1337 1294 1337 1294 1209 1346.5 c 128,-1,55
 1081 1399 1081 1399 930.5 1399 c 128,-1,56
 780 1399 780 1399 654 1347.5 c 128,-1,57
 528 1296 528 1296 436 1211 c 128,-1,58
 344 1126 344 1126 290 1007.5 c 128,-1,59
 236 889 236 889 236 743.5 c 128,-1,60
 236 598 236 598 290 480 c 128,-1,61
 344 362 344 362 436 275 c 128,-1,45
 528 188 528 188 655 137 c 128,-1,46
EndSplineSet
EndChar

StartChar: ordfeminine
Encoding: 170 170 108
Width: 761
VWidth: 1024
GlyphClass: 2
Flags: W
LayerCount: 2
Fore
SplineSet
324 786 m 0,0,1
 238 786 238 786 176.5 819 c 128,-1,2
 115 852 115 852 86 911 c 0,3,4
 66 950 66 950 67 999.5 c 128,-1,5
 68 1049 68 1049 89.5 1089.5 c 128,-1,6
 111 1130 111 1130 147 1155 c 0,7,8
 217 1206 217 1206 315 1221 c 0,9,10
 352 1225 352 1225 432 1230 c 0,11,12
 512 1237 512 1237 549 1241 c 1,13,-1
 549 1249 l 2,14,15
 549 1335 549 1335 515 1368 c 128,-1,16
 481 1401 481 1401 397 1401 c 0,17,18
 247 1401 247 1401 182 1307 c 1,19,-1
 115 1382 l 1,20,21
 193 1511 193 1511 403 1511 c 0,22,23
 534 1511 534 1511 609 1450 c 128,-1,24
 684 1389 684 1389 684 1266 c 2,25,-1
 684 936 l 2,26,27
 684 891 684 891 690 805 c 1,28,-1
 557 805 l 1,29,-1
 549 881 l 1,30,31
 471 786 471 786 324 786 c 0,0,1
346 893 m 0,32,33
 442 893 442 893 493.5 952.5 c 128,-1,34
 545 1012 545 1012 549 1110 c 1,35,-1
 549 1137 l 1,36,37
 522 1133 522 1133 470 1128.5 c 128,-1,38
 418 1124 418 1124 377 1119 c 128,-1,39
 336 1114 336 1114 295 1104 c 128,-1,40
 254 1094 254 1094 230.5 1067 c 128,-1,41
 207 1040 207 1040 207 999 c 0,42,43
 207 893 207 893 346 893 c 0,32,33
EndSplineSet
EndChar

StartChar: guillemotleft
Encoding: 171 171 109
Width: 1183
VWidth: 1024
GlyphClass: 2
Flags: W
LayerCount: 2
Fore
SplineSet
528 176 m 1,0,-1
 252 553 l 1,1,-1
 532 936 l 1,2,-1
 696 936 l 1,3,-1
 426 553 l 1,4,-1
 688 176 l 1,5,-1
 528 176 l 1,0,-1
905 176 m 1,6,-1
 631 553 l 1,7,-1
 911 936 l 1,8,-1
 1073 936 l 1,9,-1
 805 553 l 1,10,-1
 1067 176 l 1,11,-1
 905 176 l 1,6,-1
EndSplineSet
EndChar

StartChar: logicalnot
Encoding: 172 172 110
Width: 1492
VWidth: 1024
GlyphClass: 2
Flags: W
LayerCount: 2
Fore
SplineSet
1124 244 m 1,0,-1
 1124 676 l 1,1,-1
 205 676 l 1,2,-1
 205 817 l 1,3,-1
 1278 817 l 1,4,-1
 1278 244 l 1,5,-1
 1124 244 l 1,0,-1
EndSplineSet
EndChar

StartChar: registered
Encoding: 174 174 111
Width: 1871
VWidth: 1024
GlyphClass: 2
Flags: W
LayerCount: 2
Fore
SplineSet
610 279 m 1,0,-1
 610 1221 l 1,1,-1
 891 1221 l 2,2,3
 1114 1221 1114 1221 1222.5 1153 c 128,-1,4
 1331 1085 1331 1085 1331 963.5 c 128,-1,5
 1331 842 1331 842 1257.5 777.5 c 128,-1,6
 1184 713 1184 713 1061 696 c 1,7,8
 1118 639 1118 639 1159 582 c 0,9,10
 1233 476 1233 476 1352 279 c 1,11,-1
 1180 279 l 1,12,-1
 1053 496 l 2,13,14
 971 635 971 635 903 680 c 1,15,-1
 762 680 l 1,16,-1
 762 279 l 1,17,-1
 610 279 l 1,0,-1
1515.5 196.5 m 128,-1,19
 1274 -33 1274 -33 933 -33 c 128,-1,20
 592 -33 592 -33 348 197 c 0,21,22
 196 340 196 340 135 539 c 0,23,24
 106 639 106 639 106 743 c 0,25,26
 106 1058 106 1058 349 1289 c 128,-1,27
 592 1520 592 1520 931 1520 c 128,-1,28
 1270 1520 1270 1520 1516 1288 c 0,29,30
 1670 1145 1670 1145 1729 946 c 0,31,32
 1758 844 1758 844 1757 741 c 0,33,18
 1757 426 1757 426 1515.5 196.5 c 128,-1,19
934 86 m 0,34,35
 1227 86 1227 86 1427.5 274.5 c 128,-1,36
 1628 463 1628 463 1628 741.5 c 128,-1,37
 1628 1020 1628 1020 1427 1208 c 0,38,39
 1337 1294 1337 1294 1209 1346.5 c 128,-1,40
 1081 1399 1081 1399 930.5 1399 c 128,-1,41
 780 1399 780 1399 654 1347.5 c 128,-1,42
 528 1296 528 1296 436 1210 c 128,-1,43
 344 1124 344 1124 290 1006.5 c 128,-1,44
 236 889 236 889 236 743.5 c 128,-1,45
 236 598 236 598 290 480 c 128,-1,46
 344 362 344 362 436 275 c 128,-1,47
 528 188 528 188 655 137 c 128,-1,48
 782 86 782 86 934 86 c 0,34,35
762 803 m 1,49,-1
 889 803 l 2,50,51
 1016 803 1016 803 1049 811 c 0,52,53
 1121 829 1121 829 1143 854 c 0,54,55
 1174 891 1174 891 1174 945 c 128,-1,56
 1174 999 1174 999 1145 1040 c 0,57,58
 1127 1067 1127 1067 1079.5 1081.5 c 128,-1,59
 1032 1096 1032 1096 981 1097 c 128,-1,60
 930 1098 930 1098 887 1098 c 2,61,-1
 760 1098 l 1,62,-1
 762 803 l 1,49,-1
EndSplineSet
EndChar

StartChar: macron
Encoding: 175 175 112
Width: 745
VWidth: 1024
GlyphClass: 2
Flags: W
LayerCount: 2
Fore
SplineSet
82 1212 m 1,0,-1
 82 1348 l 1,1,-1
 668 1348 l 1,2,-1
 668 1212 l 1,3,-1
 82 1212 l 1,0,-1
EndSplineSet
EndChar

StartChar: degree
Encoding: 176 176 113
Width: 864
VWidth: 1024
GlyphClass: 2
Flags: W
LayerCount: 2
Fore
SplineSet
259 1073 m 0,0,1
 293 1030 293 1030 338 1012.5 c 128,-1,2
 383 995 383 995 435 995 c 128,-1,3
 487 995 487 995 536.5 1026 c 128,-1,4
 586 1057 586 1057 604.5 1098 c 128,-1,5
 623 1139 623 1139 623 1180 c 0,6,7
 623 1241 623 1241 588 1283 c 128,-1,8
 553 1325 553 1325 508 1342.5 c 128,-1,9
 463 1360 463 1360 424 1360 c 0,10,11
 358 1360 358 1360 312 1329 c 128,-1,12
 266 1298 266 1298 245.5 1257.5 c 128,-1,13
 225 1217 225 1217 225 1180 c 0,14,15
 225 1118 225 1118 259 1073 c 0,0,1
424 877 m 0,16,17
 320 877 320 877 241 928 c 128,-1,18
 162 979 162 979 123 1061 c 0,19,20
 98 1114 98 1114 98 1178 c 0,21,22
 98 1278 98 1278 155.5 1349.5 c 128,-1,23
 213 1421 213 1421 299 1454 c 1,24,25
 360 1479 360 1479 424 1479 c 0,26,27
 530 1479 530 1479 608 1427.5 c 128,-1,28
 686 1376 686 1376 725 1294 c 0,29,30
 750 1241 750 1241 750 1178 c 0,31,32
 750 1078 750 1078 692.5 1006 c 128,-1,33
 635 934 635 934 549 899 c 0,34,35
 492 877 492 877 424 877 c 0,16,17
EndSplineSet
EndChar

StartChar: plusminus
Encoding: 177 177 114
Width: 1492
VWidth: 1024
GlyphClass: 2
Flags: W
LayerCount: 2
Fore
SplineSet
664 229 m 1,0,-1
 664 610 l 1,1,-1
 205 610 l 1,2,-1
 193 750 l 1,3,-1
 659 750 l 1,4,-1
 659 1135 l 1,5,-1
 813 1135 l 1,6,-1
 813 750 l 1,7,-1
 1274 750 l 1,8,-1
 1274 610 l 1,9,-1
 817 610 l 1,10,-1
 817 229 l 1,11,-1
 664 229 l 1,0,-1
205 0 m 1,12,-1
 205 141 l 1,13,-1
 1278 141 l 1,14,-1
 1278 0 l 1,15,-1
 205 0 l 1,12,-1
EndSplineSet
EndChar

StartChar: uni00B2
Encoding: 178 178 115
Width: 1218
VWidth: 1024
GlyphClass: 2
Flags: W
LayerCount: 2
Fore
SplineSet
291 618 m 1,0,-1
 291 733 l 1,1,2
 512 938 512 938 581.5 1014 c 128,-1,3
 651 1090 651 1090 684 1143 c 128,-1,4
 717 1196 717 1196 717 1245 c 128,-1,5
 717 1294 717 1294 678 1325 c 128,-1,6
 639 1356 639 1356 573 1356 c 0,7,8
 446 1356 446 1356 385 1221 c 1,9,-1
 299 1300 l 1,10,11
 334 1380 334 1380 406.5 1427.5 c 128,-1,12
 479 1475 479 1475 574 1475 c 0,13,14
 667 1475 667 1475 733 1438 c 0,15,16
 848 1372 848 1372 850 1233 c 0,17,18
 850 1172 850 1172 821.5 1112.5 c 128,-1,19
 793 1053 793 1053 758 1012 c 128,-1,20
 723 971 723 971 699.5 946.5 c 128,-1,21
 676 922 676 922 661.5 905.5 c 128,-1,22
 647 889 647 889 614.5 860 c 128,-1,23
 582 831 582 831 571.5 822 c 128,-1,24
 561 813 561 813 521 779 c 0,25,26
 479 745 479 745 475 739 c 1,27,-1
 848 739 l 1,28,-1
 848 618 l 1,29,-1
 291 618 l 1,0,-1
EndSplineSet
EndChar

StartChar: uni00B3
Encoding: 179 179 116
Width: 1218
VWidth: 1024
GlyphClass: 2
Flags: W
LayerCount: 2
Fore
SplineSet
446 995 m 1,0,-1
 416 993 l 1,1,-1
 389 993 l 1,2,-1
 389 1114 l 1,3,-1
 438 1114 l 2,4,5
 639 1114 639 1114 641 1239 c 0,6,7
 639 1354 639 1354 496 1354 c 0,8,9
 398 1354 398 1354 299 1274 c 1,10,-1
 242 1372 l 1,11,12
 287 1417 287 1417 354.5 1446 c 128,-1,13
 422 1475 422 1475 505 1475 c 128,-1,14
 588 1475 588 1475 654.5 1439 c 128,-1,15
 721 1403 721 1403 754 1341 c 0,16,17
 779 1294 779 1294 778 1241 c 0,18,19
 778 1114 778 1114 668 1057 c 1,20,21
 799 1000 799 1000 799 854 c 0,22,23
 799 764 799 764 745.5 703.5 c 128,-1,24
 692 643 692 643 622.5 621.5 c 128,-1,25
 553 600 553 600 492 600 c 0,26,27
 340 602 340 602 242 700 c 1,28,-1
 303 799 l 1,29,30
 389 717 389 717 487 717 c 0,31,32
 565 717 565 717 616.5 754 c 128,-1,33
 668 791 668 791 668 851 c 128,-1,34
 668 911 668 911 635 943 c 128,-1,35
 602 975 602 975 557 985 c 128,-1,36
 512 995 512 995 446 995 c 1,0,-1
EndSplineSet
EndChar

StartChar: acute
Encoding: 180 180 117
Width: 620
VWidth: 1024
GlyphClass: 2
Flags: W
LayerCount: 2
Fore
SplineSet
180 1200 m 1,0,-1
 410 1528 l 1,1,-1
 627 1528 l 1,2,-1
 311 1200 l 1,3,-1
 180 1200 l 1,0,-1
EndSplineSet
EndChar

StartChar: paragraph
Encoding: 182 182 118
Width: 1243
VWidth: 1024
GlyphClass: 2
Flags: W
LayerCount: 2
Fore
SplineSet
453 -152 m 1,0,-1
 453 805 l 1,1,2
 338 805 338 805 257 863.5 c 128,-1,3
 176 922 176 922 137 1014 c 0,4,5
 108 1080 108 1080 109.5 1158.5 c 128,-1,6
 111 1237 111 1237 139 1295 c 0,7,8
 168 1351 168 1351 217 1389 c 0,9,10
 348 1487 348 1487 639 1487 c 2,11,-1
 1032 1487 l 1,12,-1
 1032 1360 l 1,13,-1
 944 1360 l 1,14,-1
 944 -152 l 1,15,-1
 811 -152 l 1,16,-1
 811 1360 l 1,17,-1
 598 1360 l 1,18,-1
 598 -152 l 1,19,-1
 453 -152 l 1,0,-1
EndSplineSet
EndChar

StartChar: periodcentered
Encoding: 183 183 119
Width: 454
VWidth: 1024
GlyphClass: 2
Flags: W
LayerCount: 2
Fore
SplineSet
78 524 m 1,0,-1
 78 741 l 1,1,-1
 299 741 l 1,2,-1
 299 524 l 1,3,-1
 78 524 l 1,0,-1
EndSplineSet
EndChar

StartChar: cedilla
Encoding: 184 184 120
Width: 540
VWidth: 1024
GlyphClass: 2
Flags: W
LayerCount: 2
Fore
SplineSet
479 -246 m 0,0,1
 479 -369 479 -369 324 -397 c 0,2,3
 283 -405 283 -405 223.5 -405.5 c 128,-1,4
 164 -406 164 -406 53 -383 c 1,5,-1
 61 -295 l 1,6,7
 163 -320 163 -320 217 -319 c 0,8,9
 334 -319 334 -319 333 -245.5 c 128,-1,10
 332 -172 332 -172 221 -172 c 0,11,12
 217 -172 217 -172 184 -176 c 2,13,-1
 152 -176 l 1,14,-1
 184 16 l 1,15,-1
 283 16 l 1,16,-1
 266 -92 l 1,17,-1
 274 -92 l 1,18,19
 479 -103 479 -103 479 -246 c 0,0,1
EndSplineSet
EndChar

StartChar: uni00B9
Encoding: 185 185 121
Width: 1218
VWidth: 1024
GlyphClass: 2
Flags: W
LayerCount: 2
Fore
SplineSet
401 1032 m 1,0,-1
 401 1196 l 1,1,-1
 401 1303 l 1,2,3
 327 1266 327 1266 246 1233 c 1,4,-1
 246 1364 l 1,5,6
 324 1389 324 1389 418 1446 c 1,7,-1
 524 1462 l 1,8,-1
 524 737 l 1,9,-1
 651 737 l 1,10,-1
 651 618 l 1,11,-1
 276 618 l 1,12,-1
 276 741 l 1,13,-1
 401 741 l 1,14,-1
 401 1032 l 1,0,-1
EndSplineSet
EndChar

StartChar: ordmasculine
Encoding: 186 186 122
Width: 843
VWidth: 1024
GlyphClass: 2
Flags: W
LayerCount: 2
Fore
SplineSet
426 786 m 0,0,1
 254 786 254 786 153.5 882.5 c 128,-1,2
 53 979 53 979 53 1151 c 0,3,4
 53 1274 53 1274 110.5 1358 c 128,-1,5
 168 1442 168 1442 266 1483 c 0,6,7
 340 1512 340 1512 426 1511 c 0,8,9
 557 1511 557 1511 645 1452 c 128,-1,10
 733 1393 733 1393 770 1290 c 0,11,12
 795 1220 795 1220 793 1147 c 0,13,14
 793 1024 793 1024 736 939 c 0,15,16
 680 856 680 856 584 815 c 0,17,18
 516 786 516 786 426 786 c 0,0,1
256 965.5 m 128,-1,20
 315 897 315 897 423.5 897 c 128,-1,21
 532 897 532 897 591.5 966.5 c 128,-1,22
 651 1036 651 1036 651 1149 c 128,-1,23
 651 1262 651 1262 591.5 1331.5 c 128,-1,24
 532 1401 532 1401 423.5 1401 c 128,-1,25
 315 1401 315 1401 256 1331.5 c 128,-1,26
 197 1262 197 1262 197 1148 c 128,-1,19
 197 1034 197 1034 256 965.5 c 128,-1,20
EndSplineSet
EndChar

StartChar: guillemotright
Encoding: 187 187 123
Width: 1183
VWidth: 1024
GlyphClass: 2
Flags: W
LayerCount: 2
Fore
SplineSet
168 176 m 1,0,-1
 440 555 l 1,1,-1
 176 936 l 1,2,-1
 338 936 l 1,3,-1
 614 555 l 1,4,-1
 332 176 l 1,5,-1
 168 176 l 1,0,-1
578 176 m 1,6,-1
 844 555 l 1,7,-1
 584 936 l 1,8,-1
 743 936 l 1,9,-1
 1020 555 l 1,10,-1
 737 176 l 1,11,-1
 578 176 l 1,6,-1
EndSplineSet
EndChar

StartChar: AE
Encoding: 198 198 134
Width: 2076
VWidth: 1024
GlyphClass: 2
Flags: W
LayerCount: 2
Fore
SplineSet
4 0 m 1,0,-1
 856 1491 l 1,1,-1
 1923 1491 l 1,2,-1
 1923 1339 l 1,3,-1
 1188 1339 l 1,4,-1
 1225 840 l 1,5,-1
 1880 840 l 1,6,-1
 1880 688 l 1,7,-1
 1245 688 l 1,8,-1
 1286 152 l 1,9,-1
 1946 152 l 1,10,-1
 1946 0 l 1,11,-1
 1130 0 l 1,12,-1
 1098 408 l 1,13,-1
 438 408 l 1,14,-1
 205 0 l 1,15,-1
 4 0 l 1,0,-1
518 559 m 1,16,-1
 1079 559 l 1,17,-1
 1018 1339 l 1,18,-1
 967 1339 l 1,19,-1
 518 559 l 1,16,-1
EndSplineSet
EndChar

StartChar: Eth
Encoding: 208 208 144
Width: 1583
VWidth: 1024
GlyphClass: 2
Flags: W
LayerCount: 2
Fore
SplineSet
373 152 m 1,0,-1
 641 152 l 2,1,2
 874 152 874 152 1027 242 c 128,-1,3
 1180 332 1180 332 1239 502 c 0,4,5
 1278 611 1278 611 1278 737 c 0,6,7
 1278 983 1278 983 1173.5 1122.5 c 128,-1,8
 1069 1262 1069 1262 860 1309 c 0,9,10
 721 1340 721 1340 541 1339 c 2,11,-1
 373 1339 l 1,12,-1
 373 815 l 1,13,-1
 586 815 l 1,14,-1
 586 674 l 1,15,-1
 373 674 l 1,16,-1
 373 152 l 1,0,-1
197 0 m 1,17,-1
 197 674 l 1,18,-1
 0 674 l 1,19,-1
 0 815 l 1,20,-1
 197 815 l 1,21,-1
 197 1491 l 1,22,-1
 520 1491 l 2,23,24
 692 1491 692 1491 833.5 1467.5 c 128,-1,25
 975 1444 975 1444 1093.5 1389.5 c 128,-1,26
 1212 1335 1212 1335 1293 1249 c 128,-1,27
 1374 1163 1374 1163 1419 1035 c 128,-1,28
 1464 907 1464 907 1464 741 c 0,29,30
 1464 471 1464 471 1334 299 c 128,-1,31
 1204 127 1204 127 979 53 c 0,32,33
 823 0 823 0 625 0 c 2,34,-1
 197 0 l 1,17,-1
EndSplineSet
EndChar

StartChar: multiply
Encoding: 215 215 151
Width: 1492
VWidth: 1024
GlyphClass: 2
Flags: W
LayerCount: 2
Fore
SplineSet
434 158 m 1,0,-1
 330 262 l 1,1,-1
 633 567 l 1,2,-1
 330 872 l 1,3,-1
 434 977 l 1,4,-1
 739 672 l 1,5,-1
 1042 977 l 1,6,-1
 1149 870 l 1,7,-1
 844 567 l 1,8,-1
 1149 264 l 1,9,-1
 1042 158 l 1,10,-1
 739 461 l 1,11,-1
 434 158 l 1,0,-1
EndSplineSet
EndChar

StartChar: Oslash
Encoding: 216 216 152
Width: 1701
VWidth: 1024
GlyphClass: 2
Flags: W
LayerCount: 2
Fore
SplineSet
233 1192 m 0,0,1
 362 1401 362 1401 588 1477 c 0,2,3
 709 1518 709 1518 844 1519 c 128,-1,4
 979 1520 979 1520 1090 1485 c 1,5,-1
 1024 1335 l 1,6,7
 942 1364 942 1364 841.5 1364 c 128,-1,8
 741 1364 741 1364 644 1323 c 128,-1,9
 547 1282 547 1282 470 1208.5 c 128,-1,10
 393 1135 393 1135 348 1015 c 128,-1,11
 303 895 303 895 303 746.5 c 128,-1,12
 303 598 303 598 348 479 c 128,-1,13
 393 360 393 360 471 285 c 0,14,15
 508 248 508 248 553 217 c 1,16,-1
 487 59 l 1,17,18
 335 139 335 139 233 301 c 0,19,20
 114 491 114 491 114 745 c 128,-1,21
 114 999 114 999 233 1192 c 0,0,1
1397 746.5 m 128,-1,23
 1397 895 1397 895 1352 1015 c 128,-1,24
 1307 1135 1307 1135 1229 1208 c 0,25,26
 1190 1245 1190 1245 1147 1274 c 1,27,-1
 1212 1434 l 1,28,29
 1364 1352 1364 1352 1466 1192 c 0,30,31
 1585 999 1585 999 1585 745.5 c 128,-1,32
 1585 492 1585 492 1466 301 c 0,33,34
 1335 92 1335 92 1112 16 c 0,35,36
 991 -25 991 -25 856 -25 c 128,-1,37
 721 -25 721 -25 610 8 c 1,38,-1
 672 160 l 1,39,40
 756 131 756 131 857 131 c 128,-1,41
 958 131 958 131 1055.5 170 c 128,-1,42
 1153 209 1153 209 1230 284.5 c 128,-1,43
 1307 360 1307 360 1352 479 c 128,-1,22
 1397 598 1397 598 1397 746.5 c 128,-1,23
672 160 m 1,44,45
 606 183 606 183 553 217 c 1,46,-1
 1024 1335 l 1,47,48
 1090 1315 1090 1315 1147 1274 c 1,49,-1
 672 160 l 1,44,45
1212 1434 m 1,50,51
 1155 1465 1155 1465 1090 1485 c 1,52,-1
 1163 1663 l 1,53,-1
 1292 1618 l 1,54,-1
 1212 1434 l 1,50,51
487 59 m 1,55,56
 544 28 544 28 610 8 c 1,57,-1
 532 -168 l 1,58,-1
 410 -123 l 1,59,-1
 487 59 l 1,55,56
EndSplineSet
EndChar

StartChar: Thorn
Encoding: 222 222 158
Width: 1304
VWidth: 1024
GlyphClass: 2
Flags: W
LayerCount: 2
Fore
SplineSet
209 0 m 1,0,-1
 209 1491 l 1,1,-1
 385 1491 l 1,2,-1
 385 1343 l 1,3,-1
 557 1343 l 2,4,5
 674 1343 674 1343 767 1332 c 128,-1,6
 860 1321 860 1321 949 1291.5 c 128,-1,7
 1038 1262 1038 1262 1097.5 1212.5 c 128,-1,8
 1157 1163 1157 1163 1193 1083.5 c 128,-1,9
 1229 1004 1229 1004 1229 897 c 0,10,11
 1229 676 1229 676 1042 559 c 0,12,13
 872 455 872 455 610 455 c 2,14,-1
 385 455 l 1,15,-1
 385 0 l 1,16,-1
 209 0 l 1,0,-1
385 606 m 1,17,-1
 651 606 l 2,18,19
 925 606 925 606 1012 766 c 0,20,21
 1041 819 1041 819 1040 893 c 0,22,23
 1040 1034 1040 1034 958 1106 c 0,24,25
 860 1192 860 1192 602 1192 c 2,26,-1
 385 1192 l 1,27,-1
 385 606 l 1,17,-1
EndSplineSet
EndChar

StartChar: germandbls
Encoding: 223 223 159
Width: 1286
VWidth: 1024
GlyphClass: 2
Flags: W
LayerCount: 2
Fore
SplineSet
348 334 m 1,0,-1
 348 0 l 1,1,-1
 180 0 l 1,2,-1
 178 1098 l 2,3,4
 178 1258 178 1258 244 1362 c 0,5,6
 359 1548 359 1548 618 1548 c 0,7,8
 759 1548 759 1548 861 1495 c 128,-1,9
 963 1442 963 1442 1008 1348 c 0,10,11
 1037 1289 1037 1289 1036 1221 c 0,12,13
 1036 1102 1036 1102 926 991 c 1,14,15
 840 901 840 901 737 858 c 0,16,17
 710 846 710 846 709.5 836.5 c 128,-1,18
 709 827 709 827 739 817 c 0,19,20
 1052 725 1052 725 1159 526 c 0,21,22
 1200 450 1200 450 1200 348 c 0,23,24
 1200 219 1200 219 1132.5 132 c 128,-1,25
 1065 45 1065 45 956 4 c 0,26,27
 884 -25 884 -25 811 -25 c 0,28,29
 614 -25 614 -25 483 141 c 1,30,-1
 549 250 l 1,31,32
 668 111 668 111 807 111 c 0,33,34
 901 111 901 111 955.5 172 c 128,-1,35
 1010 233 1010 233 1010 330 c 0,36,37
 1010 469 1010 469 879 584 c 0,38,39
 805 650 805 650 635 745 c 0,40,41
 592 770 592 770 586 774 c 1,42,-1
 602 913 l 1,43,44
 766 987 766 987 823 1122 c 0,45,46
 843 1167 843 1167 844 1221 c 0,47,48
 844 1315 844 1315 781 1365 c 0,49,50
 721 1415 721 1415 618 1415 c 0,51,52
 479 1415 479 1415 411.5 1318 c 128,-1,53
 344 1221 344 1221 344 1063 c 2,54,-1
 346 729 l 1,55,-1
 348 334 l 1,0,-1
EndSplineSet
EndChar

StartChar: ae
Encoding: 230 230 166
Width: 1849
VWidth: 1024
GlyphClass: 2
Flags: W
LayerCount: 2
Fore
SplineSet
965 500 m 1,0,-1
 963 475 l 1,1,2
 963 307 963 307 1038.5 213 c 128,-1,3
 1114 119 1114 119 1272 119 c 0,4,5
 1385 119 1385 119 1473 168 c 128,-1,6
 1561 217 1561 217 1614 299 c 1,7,-1
 1704 211 l 1,8,9
 1569 -22 1569 -22 1262 -23 c 0,10,11
 1119 -23 1119 -23 1014 48 c 128,-1,12
 909 119 909 119 872 236 c 1,13,14
 741 -22 741 -22 451 -23 c 0,15,16
 283 -23 283 -23 182.5 60 c 128,-1,17
 82 143 82 143 82 289 c 0,18,19
 82 359 82 359 104.5 412 c 128,-1,20
 127 465 127 465 158.5 498.5 c 128,-1,21
 190 532 190 532 251.5 557 c 128,-1,22
 313 582 313 582 359.5 594 c 128,-1,23
 406 606 406 606 506 612 c 128,-1,24
 606 618 606 618 696 618 c 2,25,-1
 791 618 l 1,26,-1
 791 643 l 2,27,28
 791 778 791 778 733.5 854 c 128,-1,29
 676 930 676 930 557 930 c 128,-1,30
 438 930 438 930 365 894 c 0,31,32
 291 860 291 860 244 782 c 1,33,-1
 152 877 l 1,34,35
 258 1074 258 1074 563 1073 c 0,36,37
 690 1073 690 1073 777 1007.5 c 128,-1,38
 864 942 864 942 897 825 c 1,39,40
 942 931 942 931 1048.5 1002 c 128,-1,41
 1155 1073 1155 1073 1282 1073 c 0,42,43
 1503 1073 1503 1073 1620 929.5 c 128,-1,44
 1737 786 1737 786 1737 537 c 2,45,-1
 1737 500 l 1,46,-1
 965 500 l 1,0,-1
475 119 m 0,47,48
 637 119 637 119 714 221.5 c 128,-1,49
 791 324 791 324 791 500 c 1,50,-1
 643 498 l 2,51,52
 455 494 455 494 375 460 c 128,-1,53
 295 426 295 426 270 373 c 0,54,55
 256 340 256 340 256 297 c 0,56,57
 256 119 256 119 475 119 c 0,47,48
967 621 m 1,58,-1
 1571 621 l 1,59,60
 1542 930 1542 930 1280 930 c 0,61,62
 1139 930 1139 930 1058 840 c 128,-1,63
 977 750 977 750 967 621 c 1,58,-1
EndSplineSet
EndChar

StartChar: eth
Encoding: 240 240 176
Width: 1218
VWidth: 1024
GlyphClass: 2
Flags: W
LayerCount: 2
Fore
SplineSet
594 -25 m 0,0,1
 420 -25 420 -25 299 54 c 0,2,3
 178 131 178 131 125 266 c 0,4,5
 90 352 90 352 90 457 c 0,6,7
 90 617 90 617 164 726.5 c 128,-1,8
 238 836 238 836 365 885 c 0,9,10
 451 918 451 918 557 918 c 0,11,12
 827 918 827 918 940 741 c 1,13,-1
 940 750 l 1,14,15
 940 918 940 918 903 1051 c 1,16,-1
 635 1051 l 1,17,-1
 635 1192 l 1,18,-1
 846 1192 l 1,19,20
 762 1344 762 1344 588 1440 c 1,21,-1
 668 1526 l 1,22,23
 897 1438 897 1438 1016 1192 c 1,24,-1
 1219 1192 l 1,25,-1
 1219 1051 l 1,26,-1
 1069 1051 l 1,27,28
 1118 879 1118 879 1118 688 c 0,29,30
 1118 438 1118 438 1044.5 267 c 128,-1,31
 971 96 971 96 817 23 c 0,32,33
 717 -25 717 -25 594 -25 c 0,0,1
586 121 m 0,34,35
 752 121 752 121 839 232.5 c 128,-1,36
 926 344 926 344 926 524 c 2,37,-1
 926 549 l 1,38,39
 891 651 891 651 802 712.5 c 128,-1,40
 713 774 713 774 586 774 c 0,41,42
 434 774 434 774 352 689 c 0,43,44
 270 602 270 602 270 451 c 0,45,46
 270 340 270 340 321.5 261 c 128,-1,47
 373 182 373 182 457 145 c 0,48,49
 514 121 514 121 586 121 c 0,34,35
EndSplineSet
EndChar

StartChar: divide
Encoding: 247 247 183
Width: 1492
VWidth: 1024
GlyphClass: 2
Flags: W
LayerCount: 2
Fore
SplineSet
635 20 m 1,0,-1
 635 238 l 1,1,-1
 856 238 l 1,2,-1
 856 20 l 1,3,-1
 635 20 l 1,0,-1
203 496 m 1,4,-1
 203 639 l 1,5,-1
 1276 639 l 1,6,-1
 1276 496 l 1,7,-1
 203 496 l 1,4,-1
635 893 m 1,8,-1
 635 1110 l 1,9,-1
 856 1110 l 1,10,-1
 856 893 l 1,11,-1
 635 893 l 1,8,-1
EndSplineSet
EndChar

StartChar: oslash
Encoding: 248 248 184
Width: 1267
VWidth: 1024
GlyphClass: 2
Flags: W
LayerCount: 2
Fore
SplineSet
244 127 m 0,0,1
 94 279 94 279 94 524.5 c 128,-1,2
 94 770 94 770 243.5 921.5 c 128,-1,3
 393 1073 393 1073 635 1073 c 0,4,5
 721 1073 721 1073 799 1053 c 1,6,-1
 739 915 l 1,7,8
 688 929 688 929 635 930 c 0,9,10
 471 930 471 930 369.5 817.5 c 128,-1,11
 268 705 268 705 268 522 c 0,12,13
 266 340 266 340 369 229 c 0,14,15
 396 200 396 200 428 178 c 1,16,-1
 369 37 l 1,17,18
 299 72 299 72 244 127 c 0,0,1
897 229.5 m 128,-1,20
 995 340 995 340 995 523.5 c 128,-1,21
 995 707 995 707 897 817 c 0,22,23
 868 848 868 848 840 868 c 1,24,-1
 901 1016 l 1,25,26
 971 979 971 979 1024 922 c 0,27,28
 1171 770 1171 770 1170 524.5 c 128,-1,29
 1169 279 1169 279 1023 128 c 128,-1,30
 877 -23 877 -23 637 -23 c 0,31,32
 547 -23 547 -23 467 -2 c 1,33,-1
 524 133 l 1,34,35
 575 119 575 119 637 119 c 0,36,19
 799 119 799 119 897 229.5 c 128,-1,20
739 915 m 1,37,38
 794 901 794 901 840 868 c 1,39,-1
 524 133 l 1,40,41
 471 149 471 149 428 178 c 1,42,-1
 739 915 l 1,37,38
799 1053 m 1,43,-1
 905 1307 l 1,44,-1
 1012 1274 l 1,45,-1
 901 1016 l 1,46,47
 852 1041 852 1041 799 1053 c 1,43,-1
369 37 m 1,48,49
 416 12 416 12 467 -2 c 1,50,-1
 354 -266 l 1,51,-1
 254 -233 l 1,52,-1
 369 37 l 1,48,49
EndSplineSet
EndChar

StartChar: thorn
Encoding: 254 254 190
Width: 1267
VWidth: 1024
GlyphClass: 2
Flags: W
LayerCount: 2
Fore
SplineSet
162 -438 m 1,0,-1
 162 1491 l 1,1,-1
 332 1491 l 1,2,-1
 332 903 l 1,3,4
 459 1077 459 1077 684 1077 c 0,5,6
 864 1077 864 1077 978 987 c 128,-1,7
 1092 897 1092 897 1137 745 c 0,8,9
 1168 647 1168 647 1167 541 c 0,10,11
 1167 357 1167 357 1094.5 222.5 c 128,-1,12
 1022 88 1022 88 895 23 c 0,13,14
 805 -24 805 -24 684 -25 c 0,15,16
 463 -25 463 -25 332 139 c 1,17,-1
 332 -438 l 1,18,-1
 162 -438 l 1,0,-1
518 141 m 0,19,20
 579 112 579 112 661 111.5 c 128,-1,21
 743 111 743 111 808 144 c 0,22,23
 873 180 873 180 909 238 c 0,24,25
 987 353 987 353 987 535 c 128,-1,26
 987 717 987 717 908 827.5 c 128,-1,27
 829 938 829 938 666 938 c 0,28,29
 576 938 576 938 510 905 c 128,-1,30
 444 872 444 872 406 813 c 0,31,32
 332 696 332 696 332 506 c 0,33,34
 332 375 332 375 380 280.5 c 128,-1,35
 428 186 428 186 518 141 c 0,19,20
EndSplineSet
EndChar

StartChar: dotlessi
Encoding: 305 305 215
Width: 514
VWidth: 1024
GlyphClass: 2
Flags: W
LayerCount: 2
Fore
SplineSet
614 31 m 1,0,1
 524 -6 524 -6 455.5 -5 c 128,-1,2
 387 -4 387 -4 340 10.5 c 128,-1,3
 293 25 293 25 254 57.5 c 128,-1,4
 215 90 215 90 193.5 148.5 c 128,-1,5
 172 207 172 207 172 285 c 2,6,-1
 172 1051 l 1,7,-1
 340 1051 l 1,8,-1
 340 291 l 2,9,10
 340 193 340 193 374 157 c 128,-1,11
 408 121 408 121 469 121 c 0,12,13
 530 119 530 119 594 143 c 1,14,-1
 614 31 l 1,0,1
EndSplineSet
EndChar

StartChar: kgreenlandic
Encoding: 312 312 221
Width: 1107
VWidth: 1024
GlyphClass: 2
Flags: W
LayerCount: 2
Fore
SplineSet
182 0 m 1,0,-1
 182 1051 l 1,1,-1
 352 1051 l 1,2,-1
 352 569 l 1,3,-1
 827 1051 l 1,4,-1
 1059 1051 l 1,5,-1
 516 524 l 1,6,7
 614 434 614 434 806.5 262 c 128,-1,8
 999 90 999 90 1098 0 c 1,9,-1
 872 0 l 1,10,-1
 352 483 l 1,11,-1
 352 0 l 1,12,-1
 182 0 l 1,0,-1
EndSplineSet
EndChar

StartChar: Lslash
Encoding: 321 321 224
Width: 1146
VWidth: 1024
GlyphClass: 2
Flags: W
LayerCount: 2
Fore
SplineSet
207 0 m 1,0,-1
 207 618 l 1,1,-1
 16 500 l 1,2,-1
 16 641 l 1,3,-1
 207 760 l 1,4,-1
 207 1491 l 1,5,-1
 383 1491 l 1,6,-1
 383 868 l 1,7,-1
 676 1053 l 1,8,-1
 676 911 l 1,9,-1
 383 729 l 1,10,-1
 383 152 l 1,11,-1
 1098 152 l 1,12,-1
 1098 0 l 1,13,-1
 207 0 l 1,0,-1
EndSplineSet
EndChar

StartChar: lslash
Encoding: 322 322 225
Width: 514
VWidth: 1024
GlyphClass: 2
Flags: W
LayerCount: 2
Fore
SplineSet
172 0 m 1,0,-1
 172 705 l 1,1,-1
 0 602 l 1,2,-1
 0 743 l 1,3,-1
 172 846 l 1,4,-1
 172 1528 l 1,5,-1
 340 1528 l 1,6,-1
 340 946 l 1,7,-1
 516 1053 l 1,8,-1
 516 911 l 1,9,-1
 340 807 l 1,10,-1
 340 0 l 1,11,-1
 172 0 l 1,0,-1
EndSplineSet
EndChar

StartChar: OE
Encoding: 338 338 228
Width: 2148
VWidth: 1024
GlyphClass: 2
Flags: W
LayerCount: 2
Fore
SplineSet
1180 106 m 1,0,1
 1035 -25 1035 -25 852.5 -25 c 128,-1,2
 670 -25 670 -25 529.5 32.5 c 128,-1,3
 389 90 389 90 299 193 c 0,4,5
 117 402 117 402 117 756 c 128,-1,6
 117 1110 117 1110 317 1315 c 0,7,8
 516 1520 516 1520 856 1520 c 0,9,10
 1032 1520 1032 1520 1180 1413 c 1,11,-1
 1180 1491 l 1,12,-1
 2001 1491 l 1,13,-1
 2001 1339 l 1,14,-1
 1356 1339 l 1,15,-1
 1356 840 l 1,16,-1
 1962 840 l 1,17,-1
 1962 688 l 1,18,-1
 1356 688 l 1,19,-1
 1356 152 l 1,20,-1
 2032 152 l 1,21,-1
 2032 0 l 1,22,-1
 1180 0 l 1,23,-1
 1180 106 l 1,0,1
848 127 m 0,24,25
 1041 127 1041 127 1180 270 c 1,26,-1
 1180 1249 l 1,27,28
 1045 1368 1045 1368 850 1368 c 0,29,30
 715 1368 715 1368 609.5 1321 c 128,-1,31
 504 1274 504 1274 438 1192 c 0,32,33
 305 1024 305 1024 305 740.5 c 128,-1,34
 305 457 305 457 448.5 292 c 128,-1,35
 592 127 592 127 848 127 c 0,24,25
EndSplineSet
EndChar

StartChar: oe
Encoding: 339 339 229
Width: 2017
VWidth: 1024
GlyphClass: 2
Flags: W
LayerCount: 2
Fore
SplineSet
625 -29 m 0,0,1
 437 -29 437 -29 310.5 62.5 c 128,-1,2
 184 154 184 154 131 307 c 0,3,4
 94 409 94 409 94 520 c 0,5,6
 94 708 94 708 178 839.5 c 128,-1,7
 262 971 262 971 406 1034 c 0,8,9
 506 1077 506 1077 635 1077 c 0,10,11
 926 1077 926 1077 1053 840 c 1,12,13
 1168 1078 1168 1078 1450 1077 c 0,14,15
 1679 1077 1679 1077 1796 931.5 c 128,-1,16
 1913 786 1913 786 1913 537 c 2,17,-1
 1913 483 l 1,18,-1
 1139 481 l 1,19,-1
 1139 461 l 1,20,21
 1143 342 1143 342 1190 259 c 128,-1,22
 1237 176 1237 176 1321 139 c 0,23,24
 1380 110 1380 110 1454 111 c 0,25,26
 1565 111 1565 111 1651 164 c 128,-1,27
 1737 217 1737 217 1790 299 c 1,28,-1
 1880 211 l 1,29,30
 1819 96 1819 96 1708 33.5 c 128,-1,31
 1597 -29 1597 -29 1445.5 -29 c 128,-1,32
 1294 -29 1294 -29 1194 34.5 c 128,-1,33
 1094 98 1094 98 1047 213 c 1,34,35
 1000 94 1000 94 892.5 32.5 c 128,-1,36
 785 -29 785 -29 625 -29 c 0,0,1
635 111 m 0,37,38
 799 111 799 111 883 225.5 c 128,-1,39
 967 340 967 340 967 526.5 c 128,-1,40
 967 713 967 713 883 825.5 c 128,-1,41
 799 938 799 938 627 938 c 0,42,43
 496 938 496 938 413 866.5 c 128,-1,44
 330 795 330 795 295 680 c 0,45,46
 270 602 270 602 270 520 c 0,47,48
 270 385 270 385 324 288 c 0,49,50
 377 189 377 189 473 143 c 0,51,52
 541 111 541 111 635 111 c 0,37,38
1139 623 m 1,53,-1
 1737 623 l 1,54,55
 1737 770 1737 770 1665 854 c 128,-1,56
 1593 938 1593 938 1458 938 c 0,57,58
 1352 938 1352 938 1278 885 c 0,59,60
 1155 791 1155 791 1139 623 c 1,53,-1
EndSplineSet
EndChar

StartChar: florin
Encoding: 402 402 246
Width: 1218
VWidth: 1024
GlyphClass: 2
Flags: W
LayerCount: 2
Fore
SplineSet
180 -340 m 0,0,1
 131 -340 131 -340 74 -324 c 1,2,-1
 86 -182 l 1,3,4
 127 -198 127 -198 168 -199 c 0,5,6
 250 -199 250 -199 291 -129 c 0,7,8
 324 -74 324 -74 347.5 24.5 c 128,-1,9
 371 123 371 123 396.5 258 c 128,-1,10
 422 393 422 393 452 562 c 0,11,12
 484 733 484 733 500 823 c 1,13,-1
 340 823 l 1,14,-1
 350 967 l 1,15,-1
 524 967 l 1,16,-1
 547 1120 l 1,17,18
 567 1276 567 1276 644 1373 c 128,-1,19
 721 1470 721 1470 885 1470 c 0,20,21
 955 1470 955 1470 1032 1450 c 1,22,-1
 1024 1303 l 1,23,24
 967 1326 967 1326 913 1325 c 0,25,26
 829 1325 829 1325 789.5 1285 c 128,-1,27
 750 1245 750 1245 735 1167 c 2,28,-1
 698 967 l 1,29,-1
 903 967 l 1,30,-1
 893 823 l 1,31,-1
 676 823 l 1,32,-1
 545 123 l 2,33,34
 508 -72 508 -72 459 -165 c 128,-1,35
 410 -258 410 -258 338 -303 c 1,36,37
 276 -340 276 -340 180 -340 c 0,0,1
EndSplineSet
EndChar

StartChar: uni0237
Encoding: 567 567 275
Width: 514
VWidth: 1024
GlyphClass: 2
Flags: W
LayerCount: 2
Fore
SplineSet
143 -418 m 0,0,1
 92 -441 92 -441 23 -439 c 0,2,3
 -45 -438 -45 -438 -102 -426 c 1,4,-1
 -104 -279 l 1,5,6
 -43 -291 -43 -291 -18 -291 c 0,7,8
 97 -291 97 -291 141 -197 c 1,9,10
 180 -111 180 -111 180 33 c 2,11,-1
 180 1051 l 1,12,-1
 348 1051 l 1,13,-1
 348 74 l 2,14,15
 348 -328 348 -328 143 -418 c 0,0,1
EndSplineSet
EndChar

StartChar: circumflex
Encoding: 710 710 276
Width: 714
VWidth: 1024
GlyphClass: 2
Flags: W
LayerCount: 2
Fore
SplineSet
37 1198 m 1,0,-1
 270 1530 l 1,1,-1
 430 1530 l 1,2,-1
 664 1198 l 1,3,-1
 528 1198 l 1,4,-1
 348 1419 l 1,5,-1
 164 1198 l 1,6,-1
 37 1198 l 1,0,-1
EndSplineSet
EndChar

StartChar: caron
Encoding: 711 711 277
Width: 714
VWidth: 1024
GlyphClass: 2
Flags: W
LayerCount: 2
Fore
SplineSet
274 1198 m 1,0,-1
 29 1528 l 1,1,-1
 180 1528 l 1,2,-1
 348 1309 l 1,3,-1
 520 1528 l 1,4,-1
 678 1528 l 1,5,-1
 434 1198 l 1,6,-1
 274 1198 l 1,0,-1
EndSplineSet
EndChar

StartChar: breve
Encoding: 728 728 278
Width: 643
VWidth: 1024
GlyphClass: 2
Flags: W
LayerCount: 2
Fore
SplineSet
324 1247 m 0,0,1
 54 1247 54 1247 33 1489 c 1,2,-1
 123 1489 l 1,3,4
 135 1423 135 1423 185.5 1389.5 c 128,-1,5
 236 1356 236 1356 316.5 1356 c 128,-1,6
 397 1356 397 1356 452.5 1390.5 c 128,-1,7
 508 1425 508 1425 522 1489 c 1,8,-1
 610 1489 l 1,9,10
 600 1370 600 1370 525.5 1308.5 c 128,-1,11
 451 1247 451 1247 324 1247 c 0,0,1
EndSplineSet
EndChar

StartChar: dotaccent
Encoding: 729 729 279
Width: 536
VWidth: 1024
GlyphClass: 2
Flags: W
LayerCount: 2
Fore
SplineSet
188 1276 m 1,0,-1
 188 1442 l 1,1,-1
 352 1442 l 1,2,-1
 352 1276 l 1,3,-1
 188 1276 l 1,0,-1
EndSplineSet
EndChar

StartChar: ring
Encoding: 730 730 280
Width: 618
VWidth: 1024
GlyphClass: 2
Flags: W
LayerCount: 2
Fore
SplineSet
307 1176 m 0,0,1
 237 1176 237 1176 185 1208.5 c 128,-1,2
 133 1241 133 1241 109 1294 c 0,3,4
 93 1327 93 1327 92 1372 c 0,5,6
 92 1438 92 1438 129 1485 c 0,7,8
 195 1567 195 1567 307 1567 c 0,9,10
 377 1567 377 1567 429 1534 c 128,-1,11
 481 1501 481 1501 506 1448 c 0,12,13
 522 1415 522 1415 522 1372 c 0,14,15
 522 1306 522 1306 484 1259 c 128,-1,16
 446 1212 446 1212 398 1194 c 128,-1,17
 350 1176 350 1176 307 1176 c 0,0,1
224.5 1294.5 m 128,-1,19
 256 1266 256 1266 304 1266 c 128,-1,20
 352 1266 352 1266 386 1296.5 c 128,-1,21
 420 1327 420 1327 420 1373 c 128,-1,22
 420 1419 420 1419 387 1449 c 128,-1,23
 354 1479 354 1479 307 1479 c 128,-1,24
 260 1479 260 1479 226.5 1448 c 128,-1,25
 193 1417 193 1417 193 1370 c 128,-1,18
 193 1323 193 1323 224.5 1294.5 c 128,-1,19
EndSplineSet
EndChar

StartChar: ogonek
Encoding: 731 731 281
Width: 520
VWidth: 1024
GlyphClass: 2
Flags: W
LayerCount: 2
Fore
SplineSet
272 -399 m 0,0,1
 118 -399 118 -399 66 -303 c 0,2,3
 50 -270 50 -270 49 -229 c 0,4,5
 49 -159 49 -159 112.5 -96 c 128,-1,6
 176 -33 176 -33 270 12 c 1,7,-1
 401 0 l 1,8,9
 295 -66 295 -66 260 -96 c 0,10,11
 194 -157 194 -157 193.5 -199.5 c 128,-1,12
 193 -242 193 -242 223.5 -264.5 c 128,-1,13
 254 -287 254 -287 295 -287 c 0,14,15
 373 -287 373 -287 455 -256 c 1,16,-1
 455 -369 l 1,17,18
 385 -397 385 -397 272 -399 c 0,0,1
EndSplineSet
EndChar

StartChar: tilde
Encoding: 732 732 282
Width: 677
VWidth: 1024
GlyphClass: 2
Flags: W
LayerCount: 2
Fore
SplineSet
14 1233 m 1,0,1
 22 1327 22 1327 74.5 1386.5 c 128,-1,2
 127 1446 127 1446 217 1446 c 0,3,4
 274 1446 274 1446 358 1411 c 0,5,6
 401 1393 401 1393 423.5 1384.5 c 128,-1,7
 446 1376 446 1376 479 1376 c 128,-1,8
 512 1376 512 1376 535 1402 c 0,9,10
 558 1430 558 1430 563 1470 c 1,11,-1
 674 1470 l 1,12,13
 662 1376 662 1376 612 1313 c 0,14,15
 565 1250 565 1250 475 1249 c 0,16,17
 426 1249 426 1249 344 1284 c 128,-1,18
 262 1319 262 1319 215 1319 c 0,19,20
 135 1319 135 1319 123 1233 c 1,21,-1
 14 1233 l 1,0,1
EndSplineSet
EndChar

StartChar: hungarumlaut
Encoding: 733 733 283
Width: 991
VWidth: 1024
GlyphClass: 2
Flags: W
LayerCount: 2
Fore
SplineSet
166 1202 m 1,0,-1
 389 1524 l 1,1,-1
 569 1524 l 1,2,-1
 287 1202 l 1,3,-1
 166 1202 l 1,0,-1
438 1202 m 1,4,-1
 664 1524 l 1,5,-1
 844 1524 l 1,6,-1
 561 1202 l 1,7,-1
 438 1202 l 1,4,-1
EndSplineSet
EndChar

StartChar: uni0307
Encoding: 775 775 284
Width: 536
VWidth: 1024
GlyphClass: 2
Flags: W
LayerCount: 2
Fore
SplineSet
188 1276 m 1,0,-1
 188 1442 l 1,1,-1
 352 1442 l 1,2,-1
 352 1276 l 1,3,-1
 188 1276 l 1,0,-1
EndSplineSet
EndChar

StartChar: dblgravecmb
Encoding: 783 783 285
Width: 991
VWidth: 1024
GlyphClass: 2
Flags: W
LayerCount: 2
Fore
SplineSet
449 1202 m 1,0,-1
 166 1524 l 1,1,-1
 346 1524 l 1,2,-1
 571 1202 l 1,3,-1
 449 1202 l 1,0,-1
725 1202 m 1,4,-1
 442 1524 l 1,5,-1
 623 1524 l 1,6,-1
 844 1202 l 1,7,-1
 725 1202 l 1,4,-1
EndSplineSet
EndChar

StartChar: uni0311
Encoding: 785 785 286
Width: 643
VWidth: 1024
GlyphClass: 2
Flags: W
LayerCount: 2
Fore
SplineSet
33 1247 m 1,0,1
 53 1489 53 1489 324 1489 c 0,2,3
 451 1489 451 1489 525.5 1426.5 c 128,-1,4
 600 1364 600 1364 610 1247 c 1,5,-1
 522 1247 l 1,6,7
 506 1310 506 1310 451.5 1345 c 128,-1,8
 397 1380 397 1380 316.5 1380 c 128,-1,9
 236 1380 236 1380 184 1347 c 0,10,11
 135 1313 135 1313 123 1247 c 1,12,-1
 33 1247 l 1,0,1
EndSplineSet
EndChar

StartChar: commaaccentcomb
Encoding: 806 806 287
Width: 552
VWidth: 1024
GlyphClass: 2
Flags: W
LayerCount: 2
Fore
SplineSet
80 -639 m 1,0,-1
 188 -166 l 1,1,-1
 381 -166 l 1,2,-1
 213 -639 l 1,3,-1
 80 -639 l 1,0,-1
EndSplineSet
EndChar

StartChar: Delta
Encoding: 916 916 288
Width: 1345
VWidth: 1024
GlyphClass: 2
Flags: W
LayerCount: 2
Fore
SplineSet
41 0 m 1,0,-1
 41 82 l 1,1,-1
 573 1462 l 1,2,-1
 762 1462 l 1,3,-1
 1294 82 l 1,4,-1
 1294 0 l 1,5,-1
 41 0 l 1,0,-1
274 166 m 1,6,-1
 1057 166 l 1,7,-1
 696 1139 l 1,8,-1
 664 1247 l 1,9,-1
 631 1139 l 1,10,-1
 274 166 l 1,6,-1
EndSplineSet
EndChar

StartChar: uni03A9
Encoding: 937 937 289
Width: 1640
VWidth: 1024
GlyphClass: 2
Flags: W
LayerCount: 2
Fore
SplineSet
106 0 m 1,0,-1
 94 141 l 1,1,-1
 446 139 l 1,2,3
 213 311 213 311 141 592 c 0,4,5
 116 686 116 686 117 795 c 0,6,7
 117 1106 117 1106 319 1296 c 0,8,9
 411 1382 411 1382 541.5 1432.5 c 128,-1,10
 672 1483 672 1483 829.5 1483 c 128,-1,11
 987 1483 987 1483 1115 1429.5 c 128,-1,12
 1243 1376 1243 1376 1331 1284 c 0,13,14
 1515 1089 1515 1089 1516 791 c 0,15,16
 1516 590 1516 590 1413 408 c 1,17,18
 1327 254 1327 254 1184 139 c 1,19,-1
 1520 141 l 1,20,-1
 1509 0 l 1,21,-1
 975 0 l 1,22,-1
 971 123 l 1,23,24
 1225 293 1225 293 1307 573 c 0,25,26
 1336 667 1336 667 1335 772 c 0,27,28
 1335 960 1335 960 1258.5 1094.5 c 128,-1,29
 1182 1229 1182 1229 1047 1294 c 0,30,31
 953 1339 953 1339 823 1339 c 0,32,33
 641 1339 641 1339 517 1248 c 128,-1,34
 393 1157 393 1157 338 1006 c 0,35,36
 299 906 299 906 299 778 c 0,37,38
 299 471 299 471 512 246 c 0,39,40
 582 172 582 172 657 123 c 1,41,-1
 659 0 l 1,42,-1
 106 0 l 1,0,-1
EndSplineSet
EndChar

StartChar: uni03BC
Encoding: 956 956 290
Width: 1245
VWidth: 1024
GlyphClass: 2
Flags: W
LayerCount: 2
Fore
SplineSet
160 -207 m 1,0,-1
 160 1051 l 1,1,-1
 330 1051 l 1,2,-1
 330 410 l 2,3,4
 330 263 330 263 392.5 187 c 128,-1,5
 455 111 455 111 592 111 c 0,6,7
 703 111 703 111 775.5 168 c 128,-1,8
 848 225 848 225 879 317 c 0,9,10
 899 380 899 380 899 446 c 2,11,-1
 899 1051 l 1,12,-1
 1069 1051 l 1,13,-1
 1069 252 l 2,14,15
 1069 98 1069 98 1077 0 c 1,16,-1
 901 0 l 1,17,-1
 899 139 l 1,18,19
 780 -25 780 -25 553 -25 c 0,20,21
 422 -25 422 -25 330 33 c 1,22,-1
 330 -207 l 1,23,-1
 160 -207 l 1,0,-1
EndSplineSet
EndChar

StartChar: pi
Encoding: 960 960 291
Width: 1318
VWidth: 1024
GlyphClass: 2
Flags: W
LayerCount: 2
Fore
SplineSet
1227 6 m 1,0,1
 1145 -8 1145 -8 1083.5 -8 c 128,-1,2
 1022 -8 1022 -8 978 12.5 c 128,-1,3
 934 33 934 33 911.5 73 c 128,-1,4
 889 113 889 113 880.5 163 c 128,-1,5
 872 213 872 213 872 287 c 2,6,-1
 872 930 l 1,7,-1
 492 930 l 1,8,9
 476 713 476 713 467.5 622.5 c 128,-1,10
 459 532 459 532 436.5 370.5 c 128,-1,11
 414 209 414 209 383 90 c 1,12,13
 365 33 365 33 348 0 c 1,14,-1
 176 0 l 1,15,16
 217 74 217 74 242 176 c 0,17,18
 303 455 303 455 319 930 c 1,19,20
 143 926 143 926 35 866 c 1,21,-1
 16 999 l 1,22,23
 69 1040 69 1040 155.5 1052.5 c 128,-1,24
 242 1065 242 1065 377 1065 c 2,25,-1
 1243 1065 l 1,26,-1
 1243 930 l 1,27,-1
 1034 930 l 1,28,-1
 1034 295 l 2,29,30
 1034 223 1034 223 1054.5 187.5 c 128,-1,31
 1075 152 1075 152 1135 152 c 0,32,33
 1174 152 1174 152 1217 164 c 1,34,-1
 1214 133 l 2,35,36
 1214 123 1214 123 1214.5 84 c 128,-1,37
 1215 45 1215 45 1227 6 c 1,0,1
EndSplineSet
EndChar

StartChar: endash
Encoding: 8211 8211 292
Width: 1110
VWidth: 1024
GlyphClass: 2
Flags: W
LayerCount: 2
Fore
SplineSet
-6 500 m 1,0,-1
 -6 641 l 1,1,-1
 1110 641 l 1,2,-1
 1110 500 l 1,3,-1
 -6 500 l 1,0,-1
EndSplineSet
EndChar

StartChar: emdash
Encoding: 8212 8212 293
Width: 2222
VWidth: 1024
GlyphClass: 2
Flags: W
LayerCount: 2
Fore
SplineSet
-4 500 m 1,0,-1
 -4 641 l 1,1,-1
 2212 641 l 1,2,-1
 2212 500 l 1,3,-1
 -4 500 l 1,0,-1
EndSplineSet
EndChar

StartChar: quoteleft
Encoding: 8216 8216 294
Width: 565
VWidth: 1024
GlyphClass: 2
Flags: W
LayerCount: 2
Fore
SplineSet
133 1049 m 1,0,-1
 291 1499 l 1,1,-1
 426 1499 l 1,2,-1
 319 1049 l 1,3,-1
 133 1049 l 1,0,-1
EndSplineSet
EndChar

StartChar: quoteright
Encoding: 8217 8217 295
Width: 565
VWidth: 1024
GlyphClass: 2
Flags: W
LayerCount: 2
Fore
SplineSet
143 1049 m 1,0,-1
 250 1499 l 1,1,-1
 436 1499 l 1,2,-1
 279 1049 l 1,3,-1
 143 1049 l 1,0,-1
EndSplineSet
EndChar

StartChar: quotesinglbase
Encoding: 8218 8218 296
Width: 565
VWidth: 1024
GlyphClass: 2
Flags: W
LayerCount: 2
Fore
SplineSet
127 -244 m 1,0,-1
 238 205 l 1,1,-1
 422 205 l 1,2,-1
 264 -244 l 1,3,-1
 127 -244 l 1,0,-1
EndSplineSet
EndChar

StartChar: quotedblleft
Encoding: 8220 8220 297
Width: 1048
VWidth: 1024
GlyphClass: 2
Flags: W
LayerCount: 2
Fore
SplineSet
184 1049 m 1,0,-1
 340 1499 l 1,1,-1
 477 1499 l 1,2,-1
 369 1049 l 1,3,-1
 184 1049 l 1,0,-1
541 1049 m 1,4,-1
 698 1499 l 1,5,-1
 836 1499 l 1,6,-1
 729 1049 l 1,7,-1
 541 1049 l 1,4,-1
EndSplineSet
EndChar

StartChar: quotedblright
Encoding: 8221 8221 298
Width: 1048
VWidth: 1024
GlyphClass: 2
Flags: W
LayerCount: 2
Fore
SplineSet
213 1049 m 1,0,-1
 319 1499 l 1,1,-1
 506 1499 l 1,2,-1
 348 1049 l 1,3,-1
 213 1049 l 1,0,-1
547 1049 m 1,4,-1
 655 1499 l 1,5,-1
 840 1499 l 1,6,-1
 684 1049 l 1,7,-1
 547 1049 l 1,4,-1
EndSplineSet
EndChar

StartChar: quotedblbase
Encoding: 8222 8222 299
Width: 1048
VWidth: 1024
GlyphClass: 2
Flags: W
LayerCount: 2
Fore
SplineSet
182 -244 m 1,0,-1
 291 205 l 1,1,-1
 475 205 l 1,2,-1
 319 -244 l 1,3,-1
 182 -244 l 1,0,-1
549 -244 m 1,4,-1
 655 205 l 1,5,-1
 844 205 l 1,6,-1
 686 -244 l 1,7,-1
 549 -244 l 1,4,-1
EndSplineSet
EndChar

StartChar: dagger
Encoding: 8224 8224 300
Width: 1046
VWidth: 1024
GlyphClass: 2
Flags: W
LayerCount: 2
Fore
SplineSet
442 115 m 1,0,-1
 442 956 l 1,1,-1
 111 956 l 1,2,-1
 111 1092 l 1,3,-1
 442 1092 l 1,4,-1
 442 1487 l 1,5,-1
 590 1487 l 1,6,-1
 590 1092 l 1,7,-1
 942 1092 l 1,8,-1
 942 956 l 1,9,-1
 573 956 l 1,10,-1
 573 115 l 1,11,-1
 442 115 l 1,0,-1
EndSplineSet
EndChar

StartChar: daggerdbl
Encoding: 8225 8225 301
Width: 1046
VWidth: 1024
GlyphClass: 2
Flags: W
LayerCount: 2
Fore
SplineSet
430 115 m 1,0,-1
 453 446 l 1,1,-1
 100 446 l 1,2,-1
 100 575 l 1,3,-1
 453 575 l 1,4,-1
 453 1008 l 1,5,-1
 106 1008 l 1,6,-1
 106 1143 l 1,7,-1
 459 1143 l 1,8,-1
 432 1487 l 1,9,-1
 606 1487 l 1,10,-1
 586 1143 l 1,11,-1
 938 1143 l 1,12,-1
 938 1008 l 1,13,-1
 578 1008 l 1,14,-1
 578 575 l 1,15,-1
 930 575 l 1,16,-1
 930 446 l 1,17,-1
 578 446 l 1,18,-1
 606 115 l 1,19,-1
 430 115 l 1,0,-1
EndSplineSet
EndChar

StartChar: bullet
Encoding: 8226 8226 302
Width: 1011
VWidth: 1024
GlyphClass: 2
Flags: W
LayerCount: 2
Fore
SplineSet
504 393 m 0,0,1
 391 393 391 393 309 449 c 0,2,3
 229 504 229 504 188 590 c 0,4,5
 159 647 159 647 160 711 c 0,6,7
 160 817 160 817 222.5 894 c 128,-1,8
 285 971 285 971 377 1008 c 0,9,10
 438 1033 438 1033 510 1034 c 0,11,12
 621 1034 621 1034 703.5 980 c 128,-1,13
 786 926 786 926 825 840 c 0,14,15
 852 783 852 783 852 717 c 0,16,17
 852 586 852 586 749.5 489.5 c 128,-1,18
 647 393 647 393 504 393 c 0,0,1
EndSplineSet
EndChar

StartChar: ellipsis
Encoding: 8230 8230 303
Width: 1658
VWidth: 1024
GlyphClass: 2
Flags: W
LayerCount: 2
Fore
SplineSet
164 -12 m 1,0,-1
 164 205 l 1,1,-1
 385 205 l 1,2,-1
 385 -12 l 1,3,-1
 164 -12 l 1,0,-1
717 -12 m 1,4,-1
 717 205 l 1,5,-1
 938 205 l 1,6,-1
 938 -12 l 1,7,-1
 717 -12 l 1,4,-1
1270 -12 m 1,8,-1
 1270 205 l 1,9,-1
 1491 205 l 1,10,-1
 1491 -12 l 1,11,-1
 1270 -12 l 1,8,-1
EndSplineSet
EndChar

StartChar: perthousand
Encoding: 8240 8240 304
Width: 2443
VWidth: 1024
GlyphClass: 2
Flags: W
LayerCount: 2
Fore
SplineSet
420 758 m 0,0,1
 256 758 256 758 165 855 c 0,2,3
 74 954 74 954 74 1122 c 0,4,5
 74 1245 74 1245 127 1330 c 128,-1,6
 180 1415 180 1415 274 1454 c 0,7,8
 340 1483 340 1483 422 1483 c 0,9,10
 590 1483 590 1483 678 1386.5 c 128,-1,11
 766 1290 766 1290 766 1118 c 0,12,13
 766 995 766 995 712.5 909 c 128,-1,14
 659 823 659 823 565 784 c 0,15,16
 504 758 504 758 420 758 c 0,0,1
1200 -29 m 0,17,18
 1036 -29 1036 -29 946 69.5 c 128,-1,19
 856 168 856 168 856 336 c 0,20,21
 856 459 856 459 908.5 545 c 128,-1,22
 961 631 961 631 1055 670 c 0,23,24
 1121 697 1121 697 1204 696 c 0,25,26
 1370 696 1370 696 1459 600 c 128,-1,27
 1548 504 1548 504 1548 332 c 0,28,29
 1548 209 1548 209 1495 125 c 128,-1,30
 1442 41 1442 41 1348 0 c 0,31,32
 1282 -29 1282 -29 1200 -29 c 0,17,18
2007 -29 m 0,33,34
 1843 -29 1843 -29 1753 69.5 c 128,-1,35
 1663 168 1663 168 1663 336 c 0,36,37
 1663 459 1663 459 1715 545 c 128,-1,38
 1767 631 1767 631 1862 670 c 0,39,40
 1928 697 1928 697 2011 696 c 0,41,42
 2179 696 2179 696 2267 600 c 128,-1,43
 2355 504 2355 504 2355 332 c 0,44,45
 2355 209 2355 209 2301 124 c 0,46,47
 2249 39 2249 39 2154 0 c 0,48,49
 2089 -29 2089 -29 2007 -29 c 0,33,34
274.5 942 m 128,-1,51
 324 872 324 872 422 872 c 128,-1,52
 520 872 520 872 569 942 c 128,-1,53
 618 1012 618 1012 618 1120.5 c 128,-1,54
 618 1229 618 1229 569 1298.5 c 128,-1,55
 520 1368 520 1368 422 1368 c 128,-1,56
 324 1368 324 1368 274.5 1298.5 c 128,-1,57
 225 1229 225 1229 225 1120.5 c 128,-1,50
 225 1012 225 1012 274.5 942 c 128,-1,51
250 -20 m 1,58,-1
 1212 1470 l 1,59,-1
 1364 1470 l 1,60,-1
 408 -20 l 1,61,-1
 250 -20 l 1,58,-1
1054 156.5 m 128,-1,63
 1104 88 1104 88 1201 88 c 128,-1,64
 1298 88 1298 88 1349.5 157.5 c 128,-1,65
 1401 227 1401 227 1401 336.5 c 128,-1,66
 1401 446 1401 446 1352 514 c 128,-1,67
 1303 582 1303 582 1204.5 582 c 128,-1,68
 1106 582 1106 582 1055 513 c 128,-1,69
 1004 444 1004 444 1004 334.5 c 128,-1,62
 1004 225 1004 225 1054 156.5 c 128,-1,63
1860.5 156.5 m 128,-1,71
 1911 88 1911 88 2008 88 c 128,-1,72
 2105 88 2105 88 2156.5 157.5 c 128,-1,73
 2208 227 2208 227 2208 335.5 c 128,-1,74
 2208 444 2208 444 2157.5 513 c 128,-1,75
 2107 582 2107 582 2010 582 c 128,-1,76
 1913 582 1913 582 1861.5 513 c 128,-1,77
 1810 444 1810 444 1810 334.5 c 128,-1,70
 1810 225 1810 225 1860.5 156.5 c 128,-1,71
EndSplineSet
EndChar

StartChar: guilsinglleft
Encoding: 8249 8249 305
Width: 657
VWidth: 1024
GlyphClass: 2
Flags: W
LayerCount: 2
Fore
SplineSet
383 176 m 1,0,-1
 106 553 l 1,1,-1
 389 936 l 1,2,-1
 551 936 l 1,3,-1
 283 553 l 1,4,-1
 543 176 l 1,5,-1
 383 176 l 1,0,-1
EndSplineSet
EndChar

StartChar: guilsinglright
Encoding: 8250 8250 306
Width: 657
VWidth: 1024
GlyphClass: 2
Flags: W
LayerCount: 2
Fore
SplineSet
106 176 m 1,0,-1
 373 555 l 1,1,-1
 115 936 l 1,2,-1
 272 936 l 1,3,-1
 549 555 l 1,4,-1
 266 176 l 1,5,-1
 106 176 l 1,0,-1
EndSplineSet
EndChar

StartChar: fraction
Encoding: 8260 8260 307
Width: 376
VWidth: 1024
GlyphClass: 2
Flags: W
LayerCount: 2
Fore
SplineSet
-344 0 m 1,0,-1
 582 1470 l 1,1,-1
 733 1470 l 1,2,-1
 -190 0 l 1,3,-1
 -344 0 l 1,0,-1
EndSplineSet
EndChar

StartChar: uni2074
Encoding: 8308 8308 308
Width: 917
VWidth: 1024
GlyphClass: 2
Flags: W
LayerCount: 2
Fore
SplineSet
365 631 m 1,0,-1
 365 823 l 1,1,-1
 -23 823 l 1,2,-1
 -23 915 l 1,3,-1
 352 1446 l 1,4,-1
 489 1446 l 1,5,-1
 489 932 l 1,6,-1
 602 932 l 1,7,-1
 610 823 l 1,8,-1
 487 823 l 1,9,-1
 487 631 l 1,10,-1
 365 631 l 1,0,-1
119 932 m 1,11,-1
 365 932 l 1,12,-1
 365 1274 l 1,13,-1
 119 932 l 1,11,-1
EndSplineSet
EndChar

StartChar: Euro
Encoding: 8364 8364 309
Width: 1218
VWidth: 1024
GlyphClass: 2
Flags: W
LayerCount: 2
Fore
SplineSet
770 -20 m 0,0,1
 641 -20 641 -20 540.5 20.5 c 128,-1,2
 440 61 440 61 375 135 c 0,3,4
 246 282 246 282 217 528 c 1,5,-1
 80 528 l 1,6,-1
 100 670 l 1,7,-1
 205 670 l 1,8,9
 201 699 201 699 201 727.5 c 128,-1,10
 201 756 201 756 205 803 c 1,11,-1
 78 803 l 1,12,-1
 98 944 l 1,13,-1
 223 944 l 1,14,15
 256 1124 256 1124 347 1254 c 128,-1,16
 438 1384 438 1384 582 1442 c 0,17,18
 680 1483 680 1483 803 1483 c 0,19,20
 1008 1483 1008 1483 1133 1362 c 1,21,-1
 1096 1167 l 1,22,23
 985 1335 985 1335 795 1335 c 0,24,25
 709 1335 709 1335 639 1302.5 c 128,-1,26
 569 1270 569 1270 524 1212 c 0,27,28
 438 1106 438 1106 406 944 c 1,29,-1
 1012 944 l 1,30,-1
 991 803 l 1,31,-1
 385 803 l 1,32,33
 385 795 385 795 385 791 c 2,34,-1
 385 778 l 2,35,36
 385 770 385 770 385 757.5 c 128,-1,37
 385 745 385 745 385 719 c 2,38,-1
 387 670 l 1,39,-1
 975 670 l 1,40,-1
 956 528 l 1,41,-1
 401 528 l 1,42,43
 458 127 458 127 786 127 c 0,44,45
 880 127 880 127 954 162 c 128,-1,46
 1028 197 1028 197 1110 258 c 1,47,-1
 1110 78 l 1,48,49
 967 -20 967 -20 770 -20 c 0,0,1
EndSplineSet
EndChar

StartChar: trademark
Encoding: 8482 8482 310
Width: 1912
VWidth: 1024
GlyphClass: 2
Flags: W
LayerCount: 2
Fore
SplineSet
840 702 m 1,0,-1
 840 1487 l 1,1,-1
 1032 1487 l 1,2,-1
 1274 922 l 1,3,-1
 1532 1487 l 1,4,-1
 1716 1487 l 1,5,-1
 1716 702 l 1,6,-1
 1589 702 l 1,7,-1
 1589 1311 l 1,8,-1
 1311 702 l 1,9,-1
 1229 702 l 1,10,-1
 963 1311 l 1,11,-1
 963 702 l 1,12,-1
 840 702 l 1,0,-1
332 702 m 1,13,-1
 332 1382 l 1,14,-1
 72 1382 l 1,15,-1
 72 1487 l 1,16,-1
 725 1487 l 1,17,-1
 725 1382 l 1,18,-1
 459 1382 l 1,19,-1
 459 702 l 1,20,-1
 332 702 l 1,13,-1
EndSplineSet
EndChar

StartChar: partialdiff
Encoding: 8706 8706 311
Width: 1193
VWidth: 1024
GlyphClass: 2
Flags: W
LayerCount: 2
Fore
SplineSet
924 856 m 1,0,-1
 926 934 l 1,1,2
 926 1102 926 1102 874.5 1222.5 c 128,-1,3
 823 1343 823 1343 723 1399 c 0,4,5
 655 1434 655 1434 578 1434 c 0,6,7
 443 1434 443 1434 299 1335 c 1,8,-1
 287 1477 l 1,9,10
 426 1569 426 1569 602 1569 c 0,11,12
 962 1569 962 1569 1065 1184 c 0,13,14
 1100 1053 1100 1053 1100 872 c 0,15,16
 1102 512 1102 512 954 258 c 0,17,18
 852 82 852 82 688 12 c 0,19,20
 604 -25 604 -25 504 -25 c 0,21,22
 350 -25 350 -25 251 49 c 128,-1,23
 152 123 152 123 111 250 c 0,24,25
 86 336 86 336 86 430 c 0,26,27
 86 623 86 623 172 766 c 128,-1,28
 258 909 258 909 399 979 c 0,29,30
 493 1024 493 1024 600 1026 c 0,31,32
 793 1026 793 1026 924 856 c 1,0,-1
508 115 m 0,33,34
 664 115 664 115 772.5 274.5 c 128,-1,35
 881 434 881 434 905 672 c 1,36,37
 852 819 852 819 721 872 c 0,38,39
 680 888 680 888 623 889 c 0,40,41
 469 889 469 889 363.5 751.5 c 128,-1,42
 258 614 258 614 258 426 c 0,43,44
 258 320 258 320 295 246 c 128,-1,45
 332 172 332 172 403 135 c 0,46,47
 451 115 451 115 508 115 c 0,33,34
EndSplineSet
EndChar

StartChar: product
Encoding: 8719 8719 312
Width: 1605
VWidth: 1024
GlyphClass: 2
Flags: W
LayerCount: 2
Fore
SplineSet
258 -336 m 1,0,-1
 258 1309 l 1,1,-1
 129 1309 l 1,2,-1
 113 1458 l 1,3,-1
 1491 1458 l 1,4,-1
 1475 1309 l 1,5,-1
 1360 1309 l 1,6,-1
 1360 -336 l 1,7,-1
 1176 -336 l 1,8,-1
 1176 1309 l 1,9,-1
 436 1309 l 1,10,-1
 436 -336 l 1,11,-1
 258 -336 l 1,0,-1
EndSplineSet
EndChar

StartChar: summation
Encoding: 8721 8721 313
Width: 1294
VWidth: 1024
GlyphClass: 2
Flags: W
LayerCount: 2
Fore
SplineSet
57 -336 m 1,0,-1
 57 -246 l 1,1,-1
 713 565 l 1,2,-1
 82 1360 l 1,3,-1
 82 1458 l 1,4,-1
 1204 1458 l 1,5,-1
 1204 1311 l 1,6,-1
 332 1311 l 1,7,-1
 920 573 l 1,8,-1
 301 -184 l 1,9,-1
 1249 -184 l 1,10,-1
 1249 -336 l 1,11,-1
 57 -336 l 1,0,-1
EndSplineSet
EndChar

StartChar: minus
Encoding: 8722 8722 314
Width: 1492
VWidth: 1024
GlyphClass: 2
Flags: W
LayerCount: 2
Fore
SplineSet
203 508 m 1,0,-1
 203 647 l 1,1,-1
 1278 647 l 1,2,-1
 1278 508 l 1,3,-1
 203 508 l 1,0,-1
EndSplineSet
EndChar

StartChar: radical
Encoding: 8730 8730 315
Width: 1345
VWidth: 1024
GlyphClass: 2
Flags: W
LayerCount: 2
Fore
SplineSet
627 -156 m 1,0,-1
 287 707 l 1,1,-1
 111 678 l 1,2,-1
 90 793 l 1,3,-1
 391 844 l 1,4,-1
 627 219 l 1,5,-1
 684 41 l 1,6,-1
 725 221 l 1,7,-1
 1108 1634 l 1,8,-1
 1241 1634 l 1,9,-1
 764 -156 l 1,10,-1
 627 -156 l 1,0,-1
EndSplineSet
EndChar

StartChar: infinity
Encoding: 8734 8734 316
Width: 1765
VWidth: 1024
GlyphClass: 2
Flags: W
LayerCount: 2
Fore
SplineSet
471 242 m 0,0,1
 344 242 344 242 255 307.5 c 128,-1,2
 166 373 166 373 125 479 c 0,3,4
 98 545 98 545 98 627 c 0,5,6
 98 768 98 768 208 867 c 0,7,8
 320 966 320 966 467 967 c 0,9,10
 569 967 569 967 645 926 c 0,11,12
 766 860 766 860 883 709 c 1,13,14
 953 799 953 799 1018 860 c 0,15,16
 1137 966 1137 966 1292 967 c 0,17,18
 1419 967 1419 967 1507 909.5 c 128,-1,19
 1595 852 1595 852 1634 754 c 0,20,21
 1659 688 1659 688 1659 610 c 0,22,23
 1659 485 1659 485 1595.5 396 c 128,-1,24
 1532 307 1532 307 1432 268 c 0,25,26
 1362 241 1362 241 1290 242 c 0,27,28
 1175 242 1175 242 1078 307.5 c 128,-1,29
 981 373 981 373 881 500 c 1,30,31
 811 412 811 412 743.5 351.5 c 128,-1,32
 676 291 676 291 588 260 c 0,33,34
 532 242 532 242 471 242 c 0,0,1
475 365 m 0,35,36
 565 365 565 365 655 434 c 0,37,38
 725 487 725 487 811 602 c 1,39,40
 754 686 754 686 696.5 742.5 c 128,-1,41
 639 799 639 799 577.5 823.5 c 128,-1,42
 516 848 516 848 463 848 c 0,43,44
 381 848 381 848 326.5 807 c 128,-1,45
 272 766 272 766 251.5 708.5 c 128,-1,46
 231 651 231 651 231 606 c 0,47,48
 231 528 231 528 271 471 c 128,-1,49
 311 414 311 414 366.5 389.5 c 128,-1,50
 422 365 422 365 475 365 c 0,35,36
1294 365 m 0,51,52
 1405 365 1405 365 1461.5 437.5 c 128,-1,53
 1518 510 1518 510 1518 633 c 0,54,55
 1518 705 1518 705 1480 756 c 128,-1,56
 1442 807 1442 807 1388.5 827.5 c 128,-1,57
 1335 848 1335 848 1288 848 c 0,58,59
 1118 848 1118 848 950 606 c 1,60,61
 1048 479 1048 479 1126 422 c 128,-1,62
 1204 365 1204 365 1294 365 c 0,51,52
EndSplineSet
EndChar

StartChar: integral
Encoding: 8747 8747 317
Width: 718
VWidth: 1024
GlyphClass: 2
Flags: W
LayerCount: 2
Fore
SplineSet
410.5 -381 m 128,-1,1
 350 -410 350 -410 278.5 -410 c 128,-1,2
 207 -410 207 -410 127 -387 c 1,3,-1
 125 -254 l 1,4,5
 166 -270 166 -270 238 -270 c 0,6,7
 336 -270 336 -270 368.5 -217 c 128,-1,8
 401 -164 401 -164 401 -49 c 2,9,-1
 401 1286 l 2,10,11
 401 1671 401 1671 709 1671 c 0,12,13
 754 1671 754 1671 848 1649 c 1,14,-1
 850 1516 l 1,15,16
 809 1532 809 1532 737 1532 c 0,17,18
 639 1532 639 1532 604 1478.5 c 128,-1,19
 569 1425 569 1425 569 1311 c 2,20,-1
 569 -25 l 2,21,22
 569 -201 569 -201 504 -301 c 0,23,0
 471 -352 471 -352 410.5 -381 c 128,-1,1
EndSplineSet
EndChar

StartChar: approxequal
Encoding: 8776 8776 318
Width: 1382
VWidth: 1024
GlyphClass: 2
Flags: W
LayerCount: 2
Fore
SplineSet
274 266 m 1,0,-1
 158 295 l 1,1,2
 187 414 187 414 263.5 486.5 c 128,-1,3
 340 559 340 559 463 559 c 0,4,5
 508 559 508 559 560 543.5 c 128,-1,6
 612 528 612 528 642 514 c 128,-1,7
 672 500 672 500 725 471 c 128,-1,8
 778 442 778 442 830.5 415.5 c 128,-1,9
 883 389 883 389 926 389 c 0,10,11
 996 389 996 389 1034.5 434 c 128,-1,12
 1073 479 1073 479 1102 559 c 1,13,-1
 1217 530 l 1,14,15
 1156 268 1156 268 920 268 c 0,16,17
 836 266 836 266 725 324 c 0,18,19
 721 326 721 326 651.5 364.5 c 128,-1,20
 582 403 582 403 543 419.5 c 128,-1,21
 504 436 504 436 459 436 c 0,22,23
 323 434 323 434 274 266 c 1,0,-1
274 649 m 1,24,-1
 156 676 l 1,25,26
 183 795 183 795 259.5 866.5 c 128,-1,27
 336 938 336 938 461 938 c 0,28,29
 527 938 527 938 592 913.5 c 128,-1,30
 657 889 657 889 728 847 c 128,-1,31
 799 805 799 805 842 787.5 c 128,-1,32
 885 770 885 770 924 770 c 0,33,34
 994 770 994 770 1033.5 815 c 128,-1,35
 1073 860 1073 860 1102 940 c 1,36,-1
 1212 911 l 1,37,38
 1187 792 1187 792 1115.5 720.5 c 128,-1,39
 1044 649 1044 649 918 649 c 0,40,41
 832 649 832 649 741 696 c 0,42,43
 704 712 704 712 639.5 749 c 128,-1,44
 575 786 575 786 538.5 802.5 c 128,-1,45
 502 819 502 819 457 819 c 0,46,47
 323 819 323 819 274 649 c 1,24,-1
EndSplineSet
EndChar

StartChar: notequal
Encoding: 8800 8800 319
Width: 1382
VWidth: 1024
GlyphClass: 2
Flags: W
LayerCount: 2
Fore
SplineSet
467 47 m 1,0,-1
 344 66 l 1,1,-1
 475 332 l 1,2,-1
 174 332 l 1,3,-1
 164 455 l 1,4,-1
 537 455 l 1,5,-1
 688 745 l 1,6,-1
 174 745 l 1,7,-1
 164 868 l 1,8,-1
 745 868 l 1,9,-1
 885 1151 l 1,10,-1
 1012 1130 l 1,11,-1
 883 868 l 1,12,-1
 1200 868 l 1,13,-1
 1210 745 l 1,14,-1
 823 745 l 1,15,-1
 672 455 l 1,16,-1
 1200 455 l 1,17,-1
 1210 332 l 1,18,-1
 610 332 l 1,19,-1
 467 47 l 1,0,-1
EndSplineSet
EndChar

StartChar: lessequal
Encoding: 8804 8804 320
Width: 1382
VWidth: 1024
GlyphClass: 2
Flags: W
LayerCount: 2
Fore
SplineSet
1174 221 m 1,0,-1
 201 682 l 1,1,-1
 201 766 l 1,2,-1
 1174 1249 l 1,3,-1
 1174 1106 l 1,4,-1
 381 727 l 1,5,-1
 1174 365 l 1,6,-1
 1174 221 l 1,0,-1
164 8 m 1,7,-1
 164 135 l 1,8,-1
 1204 135 l 1,9,-1
 1204 8 l 1,10,-1
 164 8 l 1,7,-1
EndSplineSet
EndChar

StartChar: greaterequal
Encoding: 8805 8805 321
Width: 1382
VWidth: 1024
GlyphClass: 2
Flags: W
LayerCount: 2
Fore
SplineSet
197 223 m 1,0,-1
 197 369 l 1,1,-1
 997 725 l 1,2,-1
 201 1106 l 1,3,-1
 201 1249 l 1,4,-1
 1180 766 l 1,5,-1
 1180 684 l 1,6,-1
 197 223 l 1,0,-1
164 8 m 1,7,-1
 164 135 l 1,8,-1
 1200 135 l 1,9,-1
 1200 8 l 1,10,-1
 164 8 l 1,7,-1
EndSplineSet
EndChar

StartChar: lozenge
Encoding: 9674 9674 322
Width: 1277
VWidth: 1024
GlyphClass: 2
Flags: W
LayerCount: 2
Fore
SplineSet
575 -45 m 1,0,-1
 115 729 l 1,1,-1
 584 1505 l 1,2,-1
 692 1505 l 1,3,-1
 1157 729 l 1,4,-1
 684 -45 l 1,5,-1
 575 -45 l 1,0,-1
631 100 m 1,6,7
 709 237 709 237 1004 729 c 1,8,9
 988 760 988 760 848.5 994.5 c 128,-1,10
 709 1229 709 1229 639 1356 c 1,11,12
 569 1229 569 1229 426 992 c 0,13,14
 283 753 283 753 266 729 c 1,15,16
 307 659 307 659 426 456.5 c 128,-1,17
 545 254 545 254 631 100 c 1,6,7
EndSplineSet
EndChar

StartChar: uniFB01
Encoding: 64257 64257 323
Width: 1232
VWidth: 1024
GlyphClass: 2
Flags: W
LayerCount: 2
Fore
SplineSet
252 0 m 1,0,-1
 252 942 l 1,1,-1
 45 942 l 1,2,-1
 45 1051 l 1,3,-1
 252 1051 l 1,4,-1
 254 1165 l 1,5,6
 258 1450 258 1450 416 1524 c 0,7,8
 475 1553 475 1553 557 1550 c 0,9,10
 602 1548 602 1548 696 1528 c 1,11,-1
 700 1397 l 1,12,13
 659 1413 659 1413 586 1413 c 0,14,15
 488 1413 488 1413 455 1358 c 128,-1,16
 422 1303 422 1303 422 1190 c 2,17,-1
 422 1051 l 1,18,-1
 1059 1051 l 1,19,-1
 1059 0 l 1,20,-1
 889 0 l 1,21,-1
 889 942 l 1,22,-1
 422 942 l 1,23,-1
 422 0 l 1,24,-1
 252 0 l 1,0,-1
897 1339 m 1,25,-1
 897 1497 l 1,26,-1
 1055 1497 l 1,27,-1
 1055 1339 l 1,28,-1
 897 1339 l 1,25,-1
EndSplineSet
EndChar

StartChar: J.alt
Encoding: 65538 -1 325
Width: 960
VWidth: 1024
GlyphClass: 2
Flags: W
LayerCount: 2
Fore
SplineSet
328 -25 m 0,0,1
 181 -25 181 -25 74 82 c 1,2,-1
 125 201 l 1,3,4
 223 127 223 127 334 127 c 0,5,6
 496 127 496 127 561 285 c 0,7,8
 598 371 598 371 598 500 c 2,9,-1
 598 1491 l 1,10,-1
 774 1491 l 1,11,-1
 774 512 l 2,12,13
 774 324 774 324 708.5 195 c 128,-1,14
 643 66 643 66 514 12 c 0,15,16
 430 -25 430 -25 328 -25 c 0,0,1
EndSplineSet
EndChar

StartChar: a.alt
Encoding: 65539 -1 326
Width: 1247
VWidth: 1024
GlyphClass: 2
Flags: W
LayerCount: 2
Fore
SplineSet
565 -25 m 0,0,1
 356 -25 356 -25 223 124.5 c 128,-1,2
 90 274 90 274 90 506 c 0,3,4
 90 776 90 776 233.5 926.5 c 128,-1,5
 377 1077 377 1077 629 1077 c 0,6,7
 1092 1077 1092 1077 1092 532 c 2,8,-1
 1092 293 l 2,9,10
 1092 213 1092 213 1130 178 c 0,11,12
 1171 143 1171 143 1221 143 c 1,13,-1
 1184 -4 l 1,14,15
 1106 -4 1106 -4 1036.5 41 c 128,-1,16
 967 86 967 86 946 170 c 1,17,18
 827 -25 827 -25 565 -25 c 0,0,1
586 119 m 0,19,20
 779 119 779 119 852 233 c 0,21,22
 889 290 889 290 906.5 362 c 128,-1,23
 924 434 924 434 924 537 c 0,24,25
 924 752 924 752 851 843 c 128,-1,26
 778 934 778 934 631 934 c 0,27,28
 457 934 457 934 359.5 823.5 c 128,-1,29
 262 713 262 713 262 516 c 0,30,31
 262 344 262 344 352.5 231.5 c 128,-1,32
 443 119 443 119 586 119 c 0,19,20
EndSplineSet
EndChar

StartChar: e.alt
Encoding: 65540 -1 327
Width: 1097
VWidth: 1024
GlyphClass: 2
Flags: W
LayerCount: 2
Fore
SplineSet
602 -20 m 0,0,1
 500 -20 500 -20 409.5 17.5 c 128,-1,2
 319 55 319 55 248.5 124 c 128,-1,3
 178 193 178 193 137 297 c 128,-1,4
 96 401 96 401 96 540.5 c 128,-1,5
 96 680 96 680 153.5 803 c 128,-1,6
 211 926 211 926 328.5 1003.5 c 128,-1,7
 446 1081 446 1081 607 1081 c 128,-1,8
 768 1081 768 1081 868.5 991 c 128,-1,9
 969 901 969 901 969 772 c 128,-1,10
 969 643 969 643 875.5 567.5 c 128,-1,11
 782 492 782 492 638 451 c 0,12,13
 492 410 492 410 295 381 c 1,14,15
 328 250 328 250 414 188.5 c 128,-1,16
 500 127 500 127 606.5 127 c 128,-1,17
 713 127 713 127 803 170 c 128,-1,18
 893 213 893 213 952 283 c 1,19,-1
 1036 174 l 1,20,21
 852 -20 852 -20 602 -20 c 0,0,1
283 502 m 1,22,23
 590 545 590 545 705 618 c 0,24,25
 803 679 803 679 803 774 c 0,26,27
 803 846 803 846 751 890 c 0,28,29
 697 934 697 934 606 934 c 0,30,31
 459 934 459 934 370 821.5 c 128,-1,32
 281 709 281 709 281 553 c 0,33,34
 279 529 279 529 283 502 c 1,22,23
EndSplineSet
EndChar

StartChar: k.alt
Encoding: 65541 -1 328
Width: 1107
VWidth: 1024
GlyphClass: 2
Flags: W
LayerCount: 2
Fore
SplineSet
1022 1051 m 1,0,1
 799 719 799 719 713 594 c 1,2,-1
 1092 0 l 1,3,-1
 905 0 l 1,4,-1
 618 455 l 1,5,-1
 311 0 l 1,6,-1
 182 0 l 1,7,-1
 182 1563 l 1,8,-1
 352 1563 l 1,9,-1
 352 315 l 1,10,-1
 840 1051 l 1,11,-1
 1022 1051 l 1,0,1
EndSplineSet
EndChar

StartChar: n.alt
Encoding: 65542 -1 329
Width: 1292
VWidth: 1024
GlyphClass: 2
Flags: W
LayerCount: 2
Fore
SplineSet
1122 -25 m 1,0,1
 1048 -17 1048 -17 1005.5 -0.5 c 128,-1,2
 963 16 963 16 940.5 52 c 128,-1,3
 918 88 918 88 909.5 132 c 128,-1,4
 901 176 901 176 901 254 c 2,5,-1
 901 270 l 1,6,-1
 905 586 l 1,7,-1
 905 598 l 2,8,9
 905 811 905 811 836 877 c 0,10,11
 775 934 775 934 653.5 934 c 128,-1,12
 532 934 532 934 442 856 c 128,-1,13
 352 778 352 778 352 668 c 2,14,-1
 352 0 l 1,15,-1
 184 0 l 1,16,-1
 184 717 l 2,17,18
 184 836 184 836 158 1051 c 1,19,-1
 328 1051 l 1,20,-1
 352 905 l 1,21,22
 413 991 413 991 487 1034 c 128,-1,23
 561 1077 561 1077 678 1077 c 128,-1,24
 795 1077 795 1077 870.5 1043.5 c 128,-1,25
 946 1010 946 1010 991 944.5 c 128,-1,26
 1036 879 1036 879 1055 793 c 0,27,28
 1073 705 1073 705 1073 590 c 2,29,-1
 1073 582 l 1,30,-1
 1071 276 l 1,31,-1
 1071 262 l 2,32,33
 1071 174 1071 174 1086.5 144.5 c 128,-1,34
 1102 115 1102 115 1159 104 c 1,35,-1
 1122 -25 l 1,0,1
EndSplineSet
EndChar

StartChar: nine.alt
Encoding: 65543 -1 330
Width: 1218
VWidth: 1024
GlyphClass: 2
Flags: W
LayerCount: 2
Fore
SplineSet
526 -25 m 0,0,1
 303 -25 303 -25 188 123 c 1,2,-1
 242 240 l 1,3,4
 348 123 348 123 528 123 c 0,5,6
 721 123 721 123 831 295 c 1,7,8
 933 455 933 455 940 700 c 1,9,-1
 940 725 l 1,10,11
 827 545 827 545 557 545 c 0,12,13
 393 545 393 545 282.5 619.5 c 128,-1,14
 172 694 172 694 123 821 c 0,15,16
 90 907 90 907 90 1008 c 0,17,18
 90 1172 90 1172 170 1284.5 c 128,-1,19
 250 1397 250 1397 385 1450 c 0,20,21
 479 1487 479 1487 594 1487 c 0,22,23
 795 1487 795 1487 915 1378 c 0,24,25
 1118 1192 1118 1192 1118 776 c 0,26,27
 1118 510 1118 510 1032 316.5 c 128,-1,28
 946 123 946 123 778 35 c 0,29,30
 667 -25 667 -25 526 -25 c 0,0,1
586 688 m 0,31,32
 697 688 697 688 778.5 737 c 128,-1,33
 860 786 860 786 901 868 c 0,34,35
 930 925 930 925 928 995 c 0,36,37
 928 1108 928 1108 873 1190 c 0,38,39
 819 1274 819 1274 731 1315 c 1,40,41
 663 1344 663 1344 586 1343 c 0,42,43
 475 1343 475 1343 401.5 1288 c 128,-1,44
 328 1233 328 1233 293 1143 c 0,45,46
 270 1086 270 1086 270 1012 c 0,47,48
 270 860 270 860 352 774 c 128,-1,49
 434 688 434 688 586 688 c 0,31,32
EndSplineSet
EndChar

StartChar: s.alt
Encoding: 65544 -1 331
Width: 1024
VWidth: 1024
GlyphClass: 2
Flags: W
LayerCount: 2
Fore
SplineSet
924 291 m 0,0,1
 924 -26 924 -26 545 -27 c 0,2,3
 449 -27 449 -27 325 7 c 128,-1,4
 201 41 201 41 117 92 c 1,5,-1
 164 233 l 1,6,7
 225 188 225 188 335 152 c 0,8,9
 443 115 443 115 541 115 c 0,10,11
 758 115 758 115 758 279 c 0,12,13
 758 394 758 394 569 444 c 1,14,15
 430 483 430 483 393 496 c 0,16,17
 213 553 213 553 156 645 c 0,18,19
 119 708 119 708 118 785 c 128,-1,20
 117 862 117 862 148.5 919.5 c 128,-1,21
 180 977 180 977 236 1012 c 0,22,23
 347 1082 347 1082 506 1081 c 0,24,25
 703 1081 703 1081 854 989 c 1,26,-1
 807 864 l 1,27,28
 762 893 762 893 675 915.5 c 128,-1,29
 588 938 588 938 499 938 c 128,-1,30
 410 938 410 938 350.5 903 c 128,-1,31
 291 868 291 868 291 793 c 0,32,33
 291 764 291 764 306.5 738.5 c 128,-1,34
 322 713 322 713 339 696.5 c 128,-1,35
 356 680 356 680 399 661.5 c 128,-1,36
 442 643 442 643 563 610 c 1,37,38
 715 563 715 563 778 528 c 0,39,40
 924 447 924 447 924 291 c 0,0,1
EndSplineSet
EndChar

StartChar: u.alt
Encoding: 65545 -1 332
Width: 1243
VWidth: 1024
GlyphClass: 2
Flags: W
LayerCount: 2
Fore
SplineSet
543 -25 m 0,0,1
 387 -25 387 -25 279 72 c 0,2,3
 226 121 226 121 195 202 c 128,-1,4
 164 283 164 283 164 389 c 2,5,-1
 164 596 l 2,6,7
 164 727 164 727 153.5 840.5 c 128,-1,8
 143 954 143 954 133 1004 c 2,9,-1
 123 1051 l 1,10,-1
 291 1051 l 1,11,12
 295 1039 295 1039 302 1009 c 128,-1,13
 309 979 309 979 320.5 866.5 c 128,-1,14
 332 754 332 754 332 610 c 2,15,-1
 332 389 l 2,16,17
 332 250 332 250 398.5 185.5 c 128,-1,18
 465 121 465 121 574.5 121 c 128,-1,19
 684 121 684 121 778 199 c 0,20,21
 823 236 823 236 850 296 c 128,-1,22
 877 356 877 356 877 428 c 2,23,-1
 877 1051 l 1,24,-1
 1047 1051 l 1,25,-1
 1047 293 l 2,26,27
 1047 213 1047 213 1085.5 178 c 128,-1,28
 1124 143 1124 143 1174 143 c 1,29,-1
 1139 -4 l 1,30,31
 1057 -4 1057 -4 993.5 37 c 128,-1,32
 930 78 930 78 909 160 c 1,33,34
 783 -25 783 -25 543 -25 c 0,0,1
EndSplineSet
EndChar

StartChar: uniF6C3
Encoding: 65546 -1 333
Width: 612
VWidth: 1024
GlyphClass: 2
Flags: W
LayerCount: 2
Fore
SplineSet
113 -618 m 1,0,-1
 221 -143 l 1,1,-1
 414 -143 l 1,2,-1
 246 -618 l 1,3,-1
 113 -618 l 1,0,-1
EndSplineSet
EndChar
